<svg id="svg" version="1.1" xmlns="http://www.w3.org/2000/svg" xmlns:xlink="http://www.w3.org/1999/xlink" width="400" height="400" viewBox="0, 0, 400,400"><g id="svgg"><path id="path0" d="M82.805 0.295 C 82.258 0.397,81.330 0.822,80.743 1.240 C 80.157 1.658,79.494 2.000,79.272 2.000 C 79.049 2.000,78.807 2.135,78.733 2.300 C 78.660 2.465,77.834 3.275,76.899 4.100 C 75.963 4.925,75.296 5.600,75.417 5.600 C 75.538 5.600,75.192 6.044,74.649 6.587 C 74.106 7.130,73.546 7.940,73.404 8.387 C 73.262 8.834,72.978 9.200,72.773 9.200 C 72.568 9.200,72.400 9.740,72.400 10.400 C 72.400 11.060,72.220 11.600,72.000 11.600 C 71.780 11.600,71.600 12.219,71.600 12.976 C 71.600 13.733,71.420 14.464,71.200 14.600 C 70.980 14.736,70.800 15.996,70.800 17.400 C 70.800 18.804,70.980 20.064,71.200 20.200 C 71.420 20.336,71.600 20.829,71.600 21.295 C 71.600 22.182,72.434 24.855,72.819 25.200 C 72.941 25.310,73.337 26.036,73.698 26.813 C 74.732 29.037,79.201 33.200,80.556 33.200 C 80.910 33.200,81.200 33.359,81.200 33.553 C 81.200 33.894,82.146 34.296,83.776 34.650 C 84.758 34.863,84.703 34.786,84.903 36.200 C 84.997 36.860,85.184 37.670,85.319 38.000 C 85.454 38.330,85.665 39.950,85.788 41.600 C 85.911 43.250,86.112 45.950,86.236 47.600 C 86.359 49.250,86.627 50.771,86.830 50.980 C 87.034 51.189,87.200 52.854,87.200 54.680 C 87.200 56.627,87.365 58.000,87.600 58.000 C 87.833 58.000,88.000 59.325,88.000 61.176 C 88.000 62.923,88.180 64.464,88.400 64.600 C 88.620 64.736,88.800 66.367,88.800 68.224 C 88.800 70.208,88.965 71.600,89.200 71.600 C 89.420 71.600,89.600 72.592,89.600 73.805 C 89.600 75.018,89.768 76.323,89.973 76.705 C 90.178 77.087,90.722 80.910,91.182 85.200 C 91.641 89.490,92.185 94.350,92.389 96.000 C 92.594 97.650,92.955 100.710,93.192 102.800 C 93.430 104.890,93.794 108.040,94.002 109.800 C 94.210 111.560,94.469 113.834,94.576 114.854 C 94.684 115.873,95.021 117.429,95.324 118.311 L 95.877 119.914 92.094 122.657 C 88.555 125.223,81.672 130.254,78.330 132.717 C 76.065 134.385,74.487 137.349,74.430 140.040 C 74.374 142.732,75.256 144.474,79.800 150.648 C 81.120 152.441,83.190 155.305,84.400 157.013 C 85.610 158.720,87.022 160.632,87.538 161.262 L 88.477 162.407 89.576 161.503 C 90.180 161.006,91.363 160.060,92.204 159.400 C 95.615 156.723,96.512 156.010,102.237 151.428 C 105.517 148.803,108.290 146.553,108.400 146.428 C 108.510 146.302,109.410 145.572,110.400 144.806 C 112.558 143.134,111.836 143.710,120.200 136.981 C 123.940 133.972,127.211 131.427,127.469 131.324 C 128.672 130.847,128.223 129.735,125.095 125.444 C 123.283 122.959,120.681 119.378,119.313 117.487 C 116.040 112.963,114.178 111.808,110.114 111.780 C 106.574 111.757,106.742 111.933,106.335 107.802 C 106.151 105.931,105.824 102.915,105.608 101.100 C 105.392 99.285,105.032 96.225,104.808 94.300 C 104.584 92.375,104.225 89.315,104.010 87.500 C 103.076 79.595,102.875 76.592,103.249 76.141 C 103.496 75.844,103.492 75.628,103.239 75.539 C 103.021 75.463,102.810 74.050,102.769 72.400 C 102.728 70.750,102.554 69.220,102.382 69.000 C 102.085 68.620,101.874 66.513,101.362 58.804 C 101.237 56.936,100.981 55.312,100.791 55.194 C 100.601 55.077,100.410 53.505,100.367 51.702 C 100.323 49.898,100.133 48.518,99.944 48.635 C 99.755 48.752,99.600 47.307,99.600 45.424 C 99.600 43.408,99.436 42.000,99.200 42.000 C 98.967 42.000,98.800 40.675,98.800 38.824 C 98.800 37.077,98.620 35.536,98.400 35.400 C 97.669 34.948,97.916 32.400,98.691 32.400 C 99.867 32.400,103.971 27.625,105.396 24.600 C 106.897 21.410,107.234 16.321,106.203 12.411 C 105.911 11.305,105.791 10.397,105.936 10.394 C 106.081 10.391,105.999 10.256,105.754 10.094 C 105.508 9.932,104.913 9.022,104.430 8.070 C 103.060 5.368,99.619 2.369,95.940 0.673 C 94.518 0.018,85.655 -0.238,82.805 0.295 M91.805 13.866 C 92.242 14.452,92.792 15.127,93.027 15.366 C 93.512 15.859,93.372 18.087,92.759 19.647 C 91.874 21.896,87.686 22.523,85.845 20.681 C 83.948 18.784,84.273 14.475,86.363 13.812 C 86.824 13.666,87.200 13.378,87.200 13.173 C 87.200 12.216,91.001 12.788,91.805 13.866 M259.600 76.000 C 259.600 76.259,253.775 76.431,243.100 76.487 L 226.600 76.574 239.800 76.789 C 254.744 77.032,254.518 76.989,258.100 80.323 C 262.620 84.530,262.932 86.829,262.013 109.200 C 261.494 121.833,260.863 138.908,260.394 153.000 C 260.182 159.380,259.826 169.460,259.604 175.400 C 258.651 200.931,258.375 208.444,257.990 219.400 C 257.766 225.780,257.403 235.860,257.182 241.800 C 256.962 247.740,256.606 257.730,256.392 264.000 C 255.264 297.039,255.093 299.983,254.024 304.600 C 249.916 322.339,236.060 335.578,217.800 339.211 C 215.968 339.575,237.552 339.380,240.600 339.005 C 241.700 338.869,242.960 338.610,243.400 338.428 C 243.840 338.247,245.190 337.868,246.400 337.588 C 247.610 337.307,248.870 336.946,249.200 336.786 C 249.530 336.625,250.250 336.315,250.800 336.097 C 260.281 332.343,270.160 323.345,273.634 315.300 C 273.943 314.585,274.331 314.000,274.498 314.000 C 274.664 314.000,274.800 313.728,274.800 313.395 C 274.800 313.062,274.959 312.477,275.153 312.095 C 277.452 307.576,278.338 303.251,278.798 294.309 C 278.987 290.629,279.290 287.389,279.471 287.109 C 279.652 286.829,279.800 281.959,279.800 276.286 C 279.800 268.011,279.908 265.906,280.345 265.635 C 280.791 265.358,280.837 263.944,280.597 257.860 C 280.293 250.167,280.613 243.050,281.217 244.028 C 281.402 244.327,281.519 239.679,281.477 233.673 C 281.421 225.820,281.529 222.695,281.860 222.488 C 282.191 222.281,282.303 219.185,282.260 211.487 C 282.217 203.777,282.329 200.694,282.661 200.487 C 282.992 200.281,283.105 197.283,283.061 189.835 C 283.014 181.828,283.114 179.431,283.502 179.301 C 283.897 179.168,283.948 177.040,283.739 169.378 C 283.497 160.511,283.533 159.600,284.136 159.369 C 284.692 159.156,284.800 158.476,284.800 155.181 C 284.800 152.990,284.977 151.138,285.200 151.000 C 285.420 150.864,285.600 150.133,285.600 149.376 C 285.600 148.619,285.420 148.000,285.200 148.000 C 284.624 148.000,284.706 146.905,285.300 146.664 C 285.676 146.511,285.652 146.356,285.200 146.037 C 284.766 145.730,284.744 145.611,285.118 145.606 C 285.529 145.601,285.624 143.722,285.577 136.549 C 285.538 130.606,285.661 127.409,285.936 127.239 C 286.209 127.071,286.378 123.275,286.420 116.390 C 286.456 110.566,286.632 101.501,286.812 96.246 C 286.992 90.991,286.988 86.401,286.803 86.046 C 286.618 85.691,286.192 84.764,285.856 83.987 C 285.520 83.210,284.859 82.130,284.388 81.587 C 283.916 81.044,283.411 80.397,283.265 80.148 C 282.840 79.423,279.112 77.200,278.322 77.200 C 277.925 77.200,277.600 77.020,277.600 76.800 C 277.600 76.578,276.533 76.400,275.200 76.400 C 273.867 76.400,272.800 76.222,272.800 76.000 C 272.800 75.749,270.333 75.600,266.200 75.600 C 262.067 75.600,259.600 75.749,259.600 76.000 M102.176 79.100 C 102.314 80.365,102.517 82.750,102.627 84.400 C 102.737 86.050,102.995 87.760,103.199 88.200 C 103.404 88.640,103.662 90.260,103.774 91.800 C 103.885 93.340,104.168 96.220,104.402 98.200 C 104.636 100.180,104.925 103.150,105.044 104.800 C 105.163 106.450,105.427 107.971,105.630 108.180 C 106.798 109.380,106.031 111.845,104.100 113.098 C 103.055 113.777,100.967 115.254,99.460 116.382 C 96.189 118.830,95.600 118.676,95.600 115.375 C 95.600 114.205,95.420 113.136,95.200 113.000 C 94.980 112.864,94.800 111.334,94.800 109.600 C 94.800 107.866,94.620 106.336,94.400 106.200 C 94.180 106.064,94.000 104.534,94.000 102.800 C 94.000 101.066,93.820 99.536,93.600 99.400 C 93.380 99.264,93.200 97.734,93.200 96.000 C 93.200 94.266,93.020 92.736,92.800 92.600 C 92.580 92.464,92.400 90.938,92.400 89.210 C 92.400 87.481,92.247 86.007,92.059 85.933 C 91.872 85.860,91.614 83.775,91.487 81.300 L 91.256 76.800 96.591 76.800 L 101.926 76.800 102.176 79.100 M219.588 97.814 C 211.860 100.197,209.567 110.456,215.479 116.198 C 224.656 125.110,238.935 113.692,232.560 102.538 C 230.105 98.242,224.648 96.255,219.588 97.814 M156.595 108.556 C 155.623 108.980,147.559 115.085,146.800 115.971 C 146.690 116.100,145.752 116.834,144.717 117.603 C 142.595 119.177,142.582 119.398,144.448 122.340 C 148.328 128.458,149.968 137.792,148.570 145.788 C 144.255 170.458,117.396 182.904,95.400 170.428 C 93.292 169.232,91.420 167.815,89.105 165.663 C 87.083 163.781,86.733 163.783,84.756 165.678 C 84.450 165.972,83.391 166.839,82.401 167.606 C 80.329 169.212,79.965 169.509,76.252 172.625 C 69.539 178.259,71.259 183.286,82.200 190.007 C 111.352 207.916,149.279 198.012,165.401 168.281 C 166.141 166.917,166.983 165.757,167.273 165.705 C 167.748 165.619,173.088 172.656,175.995 177.200 C 178.127 180.532,180.092 182.485,182.292 183.458 C 184.472 184.422,187.753 184.723,188.200 184.000 C 188.336 183.780,188.713 183.600,189.039 183.600 C 189.639 183.600,194.244 180.557,199.466 176.711 C 205.256 172.446,211.733 167.757,214.031 166.167 C 224.118 159.185,224.548 155.589,216.586 144.800 C 214.719 142.270,211.312 137.590,209.016 134.400 C 198.799 120.205,198.152 119.600,193.201 119.600 C 189.918 119.600,189.228 119.931,183.313 124.348 C 171.990 132.803,172.000 132.797,172.000 131.006 C 172.000 126.599,166.682 112.364,164.124 109.923 C 162.115 108.006,159.110 107.461,156.595 108.556 M245.921 140.816 C 239.546 144.183,241.369 153.886,248.527 154.693 C 255.142 155.439,259.235 146.601,254.338 142.147 C 251.889 139.920,248.603 139.400,245.921 140.816 M233.600 186.473 C 232.610 186.680,231.170 187.005,230.400 187.195 C 229.630 187.385,227.920 187.745,226.600 187.994 C 225.280 188.244,223.647 188.617,222.972 188.824 C 222.296 189.031,221.359 189.200,220.890 189.200 C 220.421 189.200,219.624 189.368,219.119 189.574 C 218.147 189.970,213.789 190.952,205.677 192.604 C 194.619 194.856,193.134 197.517,195.817 210.267 C 196.596 213.970,197.604 218.800,198.057 221.000 C 198.510 223.200,199.225 226.620,199.647 228.600 C 200.068 230.580,200.581 233.010,200.787 234.000 C 201.531 237.589,201.725 238.217,202.392 239.200 C 202.765 239.750,203.181 240.507,203.316 240.883 C 204.398 243.886,209.061 244.581,217.225 242.953 C 224.325 241.538,227.298 240.931,229.800 240.387 C 230.680 240.196,232.390 239.834,233.600 239.583 C 234.810 239.332,236.430 238.977,237.200 238.793 C 237.970 238.610,239.680 238.253,241.000 238.000 C 251.411 236.006,253.364 232.532,250.781 220.600 C 250.591 219.720,250.231 218.010,249.982 216.800 C 249.733 215.590,249.365 213.835,249.165 212.900 C 248.964 211.965,248.636 210.435,248.435 209.500 C 248.235 208.565,247.867 206.810,247.618 205.600 C 247.369 204.390,247.017 202.680,246.836 201.800 C 244.824 192.021,244.609 191.397,242.448 189.072 C 241.391 187.934,240.132 187.245,237.640 186.440 C 236.120 185.948,236.105 185.948,233.600 186.473 M143.000 216.354 C 138.953 217.389,135.165 224.194,132.621 235.000 C 132.258 236.540,131.859 238.160,131.732 238.600 C 131.606 239.040,131.390 243.249,131.251 247.953 L 131.000 256.505 127.780 252.153 C 126.009 249.759,123.579 246.450,122.380 244.801 C 119.299 240.562,119.199 240.455,117.211 239.279 C 115.075 238.014,110.670 237.819,108.600 238.897 C 107.445 239.498,98.810 245.821,98.400 246.366 C 98.290 246.512,95.860 248.331,93.000 250.407 C 83.279 257.466,83.457 257.309,81.986 260.084 C 81.004 261.938,80.937 265.524,81.852 267.320 C 82.596 268.781,83.447 269.986,90.387 279.400 C 93.145 283.140,96.257 287.490,97.304 289.067 C 100.424 293.768,102.642 295.200,106.803 295.200 C 110.023 295.200,110.934 294.714,118.800 288.797 C 120.506 287.514,126.851 282.890,130.042 280.606 C 131.715 279.407,134.001 277.602,135.123 276.593 L 137.163 274.759 138.037 276.480 C 150.377 300.770,180.879 313.275,207.600 305.000 C 216.447 302.260,226.538 296.310,229.568 292.048 C 232.732 287.596,230.848 284.560,219.092 275.167 L 216.265 272.908 213.432 275.291 C 191.207 293.994,158.269 280.968,154.787 252.100 C 153.882 244.599,156.066 235.551,160.349 229.052 C 161.365 227.511,161.366 227.502,160.566 226.852 C 160.125 226.494,157.369 224.220,154.443 221.800 C 147.609 216.148,146.281 215.515,143.000 216.354 M138.200 308.467 C 131.699 312.062,133.618 321.704,140.956 322.313 C 148.612 322.948,151.790 312.872,145.200 308.856 C 143.636 307.903,139.623 307.680,138.200 308.467 " stroke="none" fill="#9bdb2c" fill-rule="evenodd"></path><path id="path1" d="M76.635 3.803 C 75.995 4.353,75.558 4.891,75.665 4.998 C 75.771 5.104,76.374 4.654,77.004 3.996 C 78.399 2.539,78.216 2.443,76.635 3.803 M249.600 7.200 C 249.600 7.420,249.195 7.606,248.700 7.613 C 247.222 7.634,244.000 12.280,244.000 14.391 C 244.000 14.633,243.655 15.508,243.233 16.335 C 242.812 17.161,242.342 18.504,242.189 19.319 C 242.036 20.133,241.751 20.800,241.555 20.800 C 241.360 20.800,241.200 21.340,241.200 22.000 C 241.200 22.660,241.020 23.200,240.800 23.200 C 240.580 23.200,240.400 23.650,240.400 24.200 C 240.400 24.750,240.220 25.200,240.000 25.200 C 239.780 25.200,239.600 25.549,239.600 25.976 C 239.600 26.403,239.420 26.864,239.200 27.000 C 238.980 27.136,238.800 27.687,238.800 28.224 C 238.800 28.761,238.620 29.200,238.400 29.200 C 238.180 29.200,238.000 29.639,238.000 30.176 C 238.000 30.713,237.820 31.264,237.600 31.400 C 237.380 31.536,237.200 31.997,237.200 32.424 C 237.200 32.851,237.020 33.200,236.800 33.200 C 236.580 33.200,236.400 33.740,236.400 34.400 C 236.400 35.060,236.220 35.600,236.000 35.600 C 235.780 35.600,235.600 36.140,235.600 36.800 C 235.600 37.460,235.420 38.000,235.200 38.000 C 234.980 38.000,234.800 38.540,234.800 39.200 C 234.800 39.860,234.620 40.400,234.400 40.400 C 234.180 40.400,234.000 40.839,234.000 41.376 C 234.000 41.913,233.820 42.464,233.600 42.600 C 233.380 42.736,233.200 43.287,233.200 43.824 C 233.200 44.361,233.020 44.800,232.800 44.800 C 232.580 44.800,232.400 45.340,232.400 46.000 C 232.400 46.660,232.220 47.200,232.000 47.200 C 231.780 47.200,231.600 47.652,231.600 48.205 C 231.600 48.758,231.442 49.523,231.249 49.905 C 230.660 51.072,230.000 53.408,230.000 54.328 C 230.000 54.808,229.820 55.200,229.600 55.200 C 229.380 55.200,229.200 55.909,229.200 56.776 C 229.200 57.643,229.020 58.464,228.800 58.600 C 228.580 58.736,228.400 59.366,228.400 60.000 C 228.400 60.634,228.220 61.264,228.000 61.400 C 227.780 61.536,227.600 62.411,227.600 63.344 C 227.600 64.277,227.437 65.211,227.237 65.420 C 226.900 65.773,226.772 66.589,226.153 72.321 C 226.027 73.487,226.034 74.882,226.169 75.421 L 226.415 76.400 243.008 76.400 C 253.803 76.400,259.600 76.260,259.600 76.000 C 259.600 75.749,262.067 75.600,266.200 75.600 C 270.333 75.600,272.800 75.749,272.800 76.000 C 272.800 76.222,273.867 76.400,275.200 76.400 C 276.533 76.400,277.600 76.578,277.600 76.800 C 277.600 77.020,277.925 77.200,278.322 77.200 C 279.112 77.200,282.840 79.423,283.265 80.148 C 283.411 80.397,283.916 81.044,284.388 81.587 C 284.859 82.130,285.520 83.210,285.856 83.987 C 286.192 84.764,286.618 85.691,286.803 86.046 C 286.988 86.401,286.992 90.991,286.812 96.246 C 286.632 101.501,286.456 110.548,286.421 116.350 C 286.367 125.143,286.256 127.001,285.755 127.502 C 285.424 127.833,285.254 128.365,285.377 128.684 C 285.500 129.004,285.600 129.431,285.600 129.633 C 285.600 129.835,286.669 130.000,287.976 130.000 C 289.283 130.000,290.464 130.180,290.600 130.400 C 290.744 130.633,293.004 130.800,296.024 130.800 C 299.208 130.800,301.200 130.646,301.200 130.400 C 301.200 130.178,302.267 130.000,303.600 130.000 C 304.933 130.000,306.000 129.822,306.000 129.600 C 306.000 129.380,306.630 129.200,307.400 129.200 C 308.170 129.200,308.800 129.020,308.800 128.800 C 308.800 128.580,309.340 128.400,310.000 128.400 C 310.660 128.400,311.200 128.220,311.200 128.000 C 311.200 127.780,311.740 127.600,312.400 127.600 C 313.060 127.600,313.600 127.420,313.600 127.200 C 313.600 126.980,313.960 126.800,314.400 126.800 C 314.840 126.800,315.200 126.620,315.200 126.400 C 315.200 126.180,315.560 126.000,316.000 126.000 C 316.440 126.000,316.800 125.820,316.800 125.600 C 316.800 125.380,317.147 125.200,317.571 125.200 C 317.996 125.200,318.581 124.975,318.871 124.700 C 319.162 124.425,319.895 123.945,320.500 123.632 C 321.105 123.320,321.600 122.915,321.600 122.732 C 321.600 122.550,321.825 122.400,322.100 122.400 C 322.375 122.399,323.088 121.904,323.685 121.300 C 327.206 117.731,328.400 116.364,328.400 115.899 C 328.400 115.612,328.760 115.117,329.200 114.800 C 329.640 114.483,330.000 113.943,330.000 113.600 C 330.000 113.257,330.360 112.717,330.800 112.400 C 331.240 112.083,331.600 111.503,331.600 111.112 C 331.600 110.720,331.780 110.400,332.000 110.400 C 332.220 110.400,332.400 110.040,332.400 109.600 C 332.400 109.160,332.580 108.800,332.800 108.800 C 333.020 108.800,333.200 108.530,333.200 108.200 C 333.200 107.870,333.380 107.600,333.600 107.600 C 333.820 107.600,334.000 107.240,334.000 106.800 C 334.000 106.360,334.180 106.000,334.400 106.000 C 334.620 106.000,334.800 105.640,334.800 105.200 C 334.800 104.760,334.980 104.400,335.200 104.400 C 335.420 104.400,335.600 104.051,335.600 103.624 C 335.600 103.197,335.780 102.736,336.000 102.600 C 336.220 102.464,336.400 101.913,336.400 101.376 C 336.400 100.839,336.580 100.400,336.800 100.400 C 337.020 100.400,337.200 100.040,337.200 99.600 C 337.200 99.160,337.380 98.800,337.600 98.800 C 337.820 98.800,338.000 98.361,338.000 97.824 C 338.000 97.287,338.180 96.736,338.400 96.600 C 338.620 96.464,338.800 96.003,338.800 95.576 C 338.800 95.149,338.980 94.800,339.200 94.800 C 339.420 94.800,339.600 94.260,339.600 93.600 C 339.600 92.940,339.780 92.400,340.000 92.400 C 340.220 92.400,340.400 91.961,340.400 91.424 C 340.400 90.887,340.570 90.342,340.777 90.214 C 340.984 90.086,341.275 89.173,341.423 88.186 C 341.571 87.198,341.852 86.292,342.046 86.171 C 342.241 86.051,342.400 85.333,342.400 84.576 C 342.400 83.819,342.580 83.200,342.800 83.200 C 343.020 83.200,343.200 82.660,343.200 82.000 C 343.200 81.340,343.380 80.800,343.600 80.800 C 343.820 80.800,344.000 80.260,344.000 79.600 C 344.000 78.940,344.180 78.400,344.400 78.400 C 344.620 78.400,344.800 77.860,344.800 77.200 C 344.800 76.540,344.980 76.000,345.200 76.000 C 345.420 76.000,345.600 75.370,345.600 74.600 C 345.600 73.830,345.780 73.200,346.000 73.200 C 346.220 73.200,346.400 72.671,346.400 72.024 C 346.400 71.377,346.580 70.736,346.800 70.600 C 347.020 70.464,347.200 69.733,347.200 68.976 C 347.200 68.219,347.380 67.600,347.600 67.600 C 347.820 67.600,348.000 66.981,348.000 66.224 C 348.000 65.467,348.180 64.736,348.400 64.600 C 348.620 64.464,348.800 63.834,348.800 63.200 C 348.800 62.566,348.980 61.936,349.200 61.800 C 349.420 61.664,349.600 60.933,349.600 60.176 C 349.600 59.419,349.780 58.800,350.000 58.800 C 350.220 58.800,350.400 58.181,350.400 57.424 C 350.400 56.667,350.580 55.936,350.800 55.800 C 351.020 55.664,351.200 54.933,351.200 54.176 C 351.200 53.419,351.380 52.800,351.600 52.800 C 351.820 52.800,352.000 52.080,352.000 51.200 C 352.000 50.320,352.180 49.600,352.400 49.600 C 352.625 49.600,352.800 48.485,352.800 47.055 C 352.800 41.969,349.343 40.704,338.990 41.999 C 337.235 42.219,334.270 42.480,332.400 42.580 C 330.530 42.680,328.192 42.934,327.203 43.145 C 326.215 43.355,325.270 43.443,325.103 43.340 C 324.937 43.237,324.797 43.388,324.794 43.676 C 324.790 44.021,324.687 44.054,324.494 43.773 C 324.179 43.315,322.183 43.284,321.736 43.730 C 321.588 43.879,320.507 44.000,319.333 44.000 C 318.023 44.000,317.200 44.173,317.200 44.449 C 317.200 44.746,316.982 44.717,316.557 44.364 C 316.015 43.914,315.840 43.930,315.449 44.465 C 315.093 44.952,314.510 45.055,312.951 44.905 C 311.702 44.785,310.549 44.906,309.964 45.219 C 309.440 45.500,308.080 45.692,306.941 45.646 C 305.802 45.599,304.754 45.750,304.612 45.981 C 304.469 46.211,303.463 46.400,302.376 46.400 C 301.062 46.400,300.400 46.567,300.400 46.900 C 300.400 47.252,299.807 47.359,298.398 47.261 C 296.696 47.143,296.432 47.218,296.640 47.761 C 296.775 48.113,296.804 48.400,296.704 48.400 C 296.293 48.400,294.800 46.873,294.800 46.453 C 294.800 46.204,294.620 46.000,294.400 46.000 C 294.180 46.000,294.000 45.719,294.000 45.376 C 294.000 45.033,293.820 44.864,293.600 45.000 C 293.380 45.136,293.200 45.057,293.200 44.825 C 293.200 44.104,285.231 35.911,276.253 27.400 C 270.257 21.716,270.129 21.600,269.809 21.600 C 269.673 21.600,268.319 20.340,266.800 18.800 C 265.281 17.260,263.874 16.000,263.673 16.000 C 263.472 16.000,262.314 15.055,261.100 13.900 C 257.170 10.161,253.840 7.600,252.908 7.600 C 252.408 7.600,252.000 7.420,252.000 7.200 C 252.000 6.980,251.460 6.800,250.800 6.800 C 250.140 6.800,249.600 6.980,249.600 7.200 M106.240 12.666 C 106.608 14.199,106.800 14.344,106.800 13.090 C 106.800 12.517,106.613 11.932,106.384 11.790 C 106.111 11.621,106.062 11.923,106.240 12.666 M101.693 30.000 C 101.418 30.440,101.331 30.800,101.500 30.800 C 101.669 30.800,102.032 30.440,102.307 30.000 C 102.582 29.560,102.669 29.200,102.500 29.200 C 102.331 29.200,101.968 29.560,101.693 30.000 M77.424 31.787 C 77.851 32.110,78.380 32.375,78.600 32.375 C 78.820 32.375,78.651 32.110,78.224 31.787 C 77.796 31.464,77.267 31.200,77.047 31.200 C 76.827 31.200,76.996 31.464,77.424 31.787 M98.000 34.553 C 98.000 34.883,98.180 35.264,98.400 35.400 C 98.620 35.536,98.800 35.377,98.800 35.047 C 98.800 34.717,98.620 34.336,98.400 34.200 C 98.180 34.064,98.000 34.223,98.000 34.553 M91.487 81.300 C 91.614 83.775,91.872 85.860,92.059 85.933 C 92.247 86.007,92.400 87.481,92.400 89.210 C 92.400 90.938,92.580 92.464,92.800 92.600 C 93.020 92.736,93.200 94.266,93.200 96.000 C 93.200 97.734,93.380 99.264,93.600 99.400 C 93.820 99.536,94.000 101.066,94.000 102.800 C 94.000 104.534,94.180 106.064,94.400 106.200 C 94.620 106.336,94.800 107.866,94.800 109.600 C 94.800 111.334,94.980 112.864,95.200 113.000 C 95.420 113.136,95.600 114.205,95.600 115.375 C 95.600 118.676,96.189 118.830,99.460 116.382 C 100.967 115.254,103.055 113.777,104.100 113.098 C 106.031 111.845,106.798 109.380,105.630 108.180 C 105.427 107.971,105.163 106.450,105.044 104.800 C 104.925 103.150,104.636 100.180,104.402 98.200 C 104.168 96.220,103.885 93.340,103.774 91.800 C 103.662 90.260,103.404 88.640,103.199 88.200 C 102.995 87.760,102.737 86.050,102.627 84.400 C 102.517 82.750,102.314 80.365,102.176 79.100 L 101.926 76.800 96.591 76.800 L 91.256 76.800 91.487 81.300 " stroke="none" fill="#7fb11f" fill-rule="evenodd"></path><path id="path2" d="M103.430 75.563 C 103.520 75.653,103.429 75.924,103.229 76.165 C 103.010 76.429,103.015 78.118,103.242 80.402 C 103.595 83.949,103.774 85.534,104.792 94.100 C 105.669 101.484,106.016 104.562,106.335 107.802 C 106.742 111.933,106.574 111.757,110.114 111.780 C 114.178 111.808,116.040 112.963,119.313 117.487 C 120.681 119.378,123.283 122.959,125.095 125.444 C 128.223 129.735,128.672 130.847,127.469 131.324 C 127.211 131.427,123.940 133.972,120.200 136.981 C 111.836 143.710,112.558 143.134,110.400 144.806 C 109.410 145.572,108.510 146.302,108.400 146.428 C 108.290 146.553,105.517 148.803,102.237 151.428 C 96.512 156.010,95.615 156.723,92.204 159.400 C 91.363 160.060,90.180 161.006,89.576 161.503 L 88.477 162.407 87.538 161.262 C 87.022 160.632,85.610 158.720,84.400 157.013 C 83.190 155.305,81.120 152.441,79.800 150.648 C 75.256 144.474,74.374 142.732,74.430 140.040 C 74.487 137.349,76.065 134.385,78.330 132.717 C 81.672 130.254,88.555 125.223,92.094 122.657 L 95.877 119.914 95.324 118.311 C 95.021 117.429,94.684 115.873,94.576 114.854 C 94.469 113.834,94.210 111.560,94.002 109.800 C 93.794 108.040,93.430 104.890,93.192 102.800 C 92.955 100.710,92.594 97.650,92.389 96.000 C 92.185 94.350,91.638 89.490,91.175 85.200 C 90.712 80.910,90.128 76.977,89.877 76.459 L 89.421 75.519 73.611 75.678 L 57.800 75.837 55.900 76.931 C 54.855 77.533,54.000 77.946,54.000 77.848 C 54.000 77.500,49.792 81.861,49.300 82.718 C 49.025 83.197,48.800 83.862,48.800 84.195 C 48.800 84.528,48.620 84.800,48.400 84.800 C 48.180 84.800,48.000 85.149,48.000 85.576 C 48.000 86.003,47.812 86.469,47.583 86.611 C 47.072 86.926,47.112 98.918,47.629 100.276 C 47.822 100.784,47.995 106.064,48.013 112.009 C 48.033 118.666,48.191 122.729,48.423 122.586 C 48.655 122.443,48.823 126.406,48.861 132.876 C 48.930 144.780,48.910 144.243,49.305 144.638 C 49.467 144.801,49.600 148.124,49.600 152.024 C 49.600 158.012,49.695 159.151,50.211 159.349 C 50.736 159.550,50.783 160.346,50.548 165.029 C 50.331 169.345,50.384 170.543,50.804 170.802 C 51.334 171.130,51.547 179.106,51.282 188.747 C 51.212 191.329,51.338 192.685,51.690 193.110 C 52.080 193.581,52.178 196.176,52.108 204.144 C 52.039 212.035,52.136 214.637,52.508 214.867 C 52.880 215.097,52.980 217.641,52.919 225.267 C 52.874 230.820,52.989 235.551,53.174 235.782 C 54.207 237.064,54.098 253.122,53.061 252.541 C 52.777 252.381,52.792 252.489,53.100 252.821 C 53.375 253.118,53.600 254.278,53.600 255.400 C 53.600 256.522,53.802 257.642,54.048 257.888 C 54.358 258.198,54.483 261.517,54.454 268.648 C 54.425 275.621,54.551 279.046,54.842 279.226 C 55.129 279.404,55.267 282.523,55.256 288.635 C 55.245 294.700,55.383 297.866,55.667 298.041 C 55.901 298.186,56.240 299.451,56.419 300.852 C 56.883 304.482,57.929 308.635,58.978 311.006 C 60.714 314.930,61.517 316.414,63.632 319.602 C 68.413 326.809,80.496 336.400,84.795 336.400 C 85.150 336.400,85.611 336.557,85.820 336.749 C 86.494 337.369,92.882 338.750,97.200 339.209 C 103.396 339.867,218.135 339.586,219.800 338.908 C 220.460 338.639,222.260 338.048,223.800 337.594 C 237.100 333.674,249.714 320.838,253.276 307.600 C 255.114 300.771,255.158 300.153,256.392 264.000 C 256.606 257.730,256.962 247.740,257.182 241.800 C 257.403 235.860,257.766 225.780,257.990 219.400 C 258.375 208.444,258.651 200.931,259.604 175.400 C 259.826 169.460,260.182 159.380,260.394 153.000 C 260.863 138.908,261.494 121.833,262.013 109.200 C 262.940 86.627,262.639 84.488,257.937 80.198 C 254.317 76.895,253.772 76.796,239.349 76.798 C 228.791 76.800,226.823 76.709,226.402 76.203 C 225.967 75.678,218.405 75.593,164.586 75.503 C 130.861 75.446,103.340 75.473,103.430 75.563 M226.686 97.848 C 231.829 99.590,235.240 105.387,234.021 110.315 C 231.859 119.055,221.730 122.268,215.479 116.198 C 207.070 108.032,215.586 94.089,226.686 97.848 M161.874 108.425 C 165.501 109.796,172.000 124.288,172.000 131.006 C 172.000 132.797,171.990 132.803,183.313 124.348 C 189.228 119.931,189.918 119.600,193.201 119.600 C 198.152 119.600,198.799 120.205,209.016 134.400 C 211.312 137.590,214.719 142.270,216.586 144.800 C 224.548 155.589,224.118 159.185,214.031 166.167 C 211.733 167.757,205.256 172.446,199.466 176.711 C 194.244 180.557,189.639 183.600,189.039 183.600 C 188.713 183.600,188.336 183.780,188.200 184.000 C 187.753 184.723,184.472 184.422,182.292 183.458 C 180.092 182.485,178.127 180.532,175.995 177.200 C 173.088 172.656,167.748 165.619,167.273 165.705 C 166.983 165.757,166.141 166.917,165.401 168.281 C 149.279 198.012,111.352 207.916,82.200 190.007 C 71.259 183.286,69.539 178.259,76.252 172.625 C 79.965 169.509,80.329 169.212,82.401 167.606 C 83.391 166.839,84.450 165.972,84.756 165.678 C 86.733 163.783,87.083 163.781,89.105 165.663 C 107.725 182.977,137.609 176.193,146.705 152.588 C 150.504 142.726,149.588 130.445,144.448 122.340 C 142.582 119.398,142.595 119.177,144.717 117.603 C 145.752 116.834,146.690 116.100,146.800 115.971 C 147.559 115.085,155.623 108.980,156.595 108.556 C 158.071 107.913,160.367 107.856,161.874 108.425 M142.800 120.567 C 142.800 120.878,142.935 121.193,143.100 121.267 C 143.561 121.472,145.825 125.960,146.597 128.200 C 148.341 133.262,149.032 142.490,147.970 146.554 C 144.378 160.299,135.359 170.372,124.038 173.282 C 123.247 173.485,121.790 173.861,120.800 174.118 C 117.459 174.983,104.786 174.548,104.167 173.547 C 104.049 173.356,103.601 173.200,103.172 173.200 C 101.661 173.200,96.379 170.597,93.200 168.287 C 88.094 164.575,87.449 163.610,89.300 162.451 C 90.015 162.003,91.056 161.223,91.613 160.718 C 92.171 160.213,93.431 159.172,94.413 158.406 C 95.396 157.639,96.470 156.790,96.800 156.519 C 97.130 156.248,100.820 153.290,105.000 149.944 C 112.697 143.783,122.628 135.721,135.000 125.590 C 141.637 120.155,142.800 119.407,142.800 120.567 M252.120 140.647 C 257.959 143.597,258.010 151.187,252.209 153.996 C 247.213 156.414,241.768 152.621,242.092 146.948 C 242.388 141.763,247.710 138.419,252.120 140.647 M283.867 159.467 C 283.720 159.613,283.633 162.628,283.674 166.167 C 283.715 169.705,283.814 171.650,283.895 170.490 C 283.978 169.297,284.207 168.481,284.421 168.613 C 284.630 168.742,284.800 168.672,284.800 168.457 C 284.800 168.242,284.575 167.976,284.300 167.865 C 283.900 167.704,283.900 167.657,284.300 167.632 C 284.666 167.608,284.800 166.476,284.800 163.400 C 284.800 159.554,284.604 158.729,283.867 159.467 M283.057 180.700 C 282.920 181.525,282.839 184.810,282.877 188.000 C 282.914 191.190,283.013 192.900,283.096 191.800 C 283.180 190.700,283.417 189.629,283.624 189.420 C 284.097 188.942,284.124 179.200,283.652 179.200 C 283.461 179.200,283.193 179.875,283.057 180.700 M237.640 186.440 C 240.132 187.245,241.391 187.934,242.448 189.072 C 244.609 191.397,244.824 192.021,246.836 201.800 C 247.017 202.680,247.369 204.390,247.618 205.600 C 247.867 206.810,248.235 208.565,248.435 209.500 C 248.636 210.435,248.964 211.965,249.165 212.900 C 249.365 213.835,249.733 215.590,249.982 216.800 C 250.231 218.010,250.591 219.720,250.781 220.600 C 253.364 232.532,251.411 236.006,241.000 238.000 C 239.680 238.253,237.970 238.610,237.200 238.793 C 236.430 238.977,234.810 239.332,233.600 239.583 C 232.390 239.834,230.680 240.196,229.800 240.387 C 227.298 240.931,224.325 241.538,217.225 242.953 C 209.061 244.581,204.398 243.886,203.316 240.883 C 203.181 240.507,202.765 239.750,202.392 239.200 C 201.725 238.217,201.531 237.589,200.787 234.000 C 200.581 233.010,200.068 230.580,199.647 228.600 C 199.225 226.620,198.510 223.200,198.057 221.000 C 197.604 218.800,196.596 213.970,195.817 210.267 C 193.134 197.517,194.619 194.856,205.677 192.604 C 213.789 190.952,218.147 189.970,219.119 189.574 C 219.624 189.368,220.421 189.200,220.890 189.200 C 221.359 189.200,222.296 189.031,222.972 188.824 C 223.647 188.617,225.280 188.244,226.600 187.994 C 227.920 187.745,229.630 187.385,230.400 187.195 C 232.113 186.773,235.241 186.113,235.840 186.048 C 236.082 186.022,236.892 186.198,237.640 186.440 M282.254 202.256 C 282.114 203.277,282.033 206.652,282.074 209.756 C 282.115 212.860,282.214 214.455,282.295 213.300 C 282.376 212.145,282.612 211.200,282.821 211.200 C 283.041 211.200,283.200 208.935,283.200 205.800 C 283.200 200.432,282.740 198.709,282.254 202.256 M148.210 216.912 C 148.712 217.181,151.518 219.380,154.443 221.800 C 157.369 224.220,160.125 226.494,160.566 226.852 C 161.366 227.502,161.365 227.511,160.349 229.052 C 156.066 235.551,153.882 244.599,154.787 252.100 C 158.269 280.968,191.207 293.994,213.432 275.291 L 216.265 272.908 219.092 275.167 C 230.848 284.560,232.732 287.596,229.568 292.048 C 226.538 296.310,216.447 302.260,207.600 305.000 C 180.879 313.275,150.377 300.770,138.037 276.480 L 137.163 274.759 135.123 276.593 C 134.001 277.602,131.715 279.407,130.042 280.606 C 126.851 282.890,120.506 287.514,118.800 288.797 C 110.934 294.714,110.023 295.200,106.803 295.200 C 102.642 295.200,100.424 293.768,97.304 289.067 C 96.257 287.490,93.145 283.140,90.387 279.400 C 83.447 269.986,82.596 268.781,81.852 267.320 C 80.937 265.524,81.004 261.938,81.986 260.084 C 83.457 257.309,83.279 257.466,93.000 250.407 C 95.860 248.331,98.290 246.512,98.400 246.366 C 98.810 245.821,107.445 239.498,108.600 238.897 C 110.670 237.819,115.075 238.014,117.211 239.279 C 119.199 240.455,119.299 240.562,122.380 244.801 C 123.579 246.450,126.009 249.759,127.780 252.153 L 131.000 256.505 131.251 247.953 C 131.390 243.249,131.606 239.040,131.732 238.600 C 131.859 238.160,132.258 236.540,132.621 235.000 C 134.522 226.925,138.453 218.459,140.915 217.137 C 143.093 215.966,146.255 215.869,148.210 216.912 M281.457 223.900 C 281.320 224.725,281.241 228.010,281.280 231.200 C 281.319 234.390,281.416 235.965,281.496 234.700 C 281.575 233.435,281.811 232.400,282.020 232.400 C 282.240 232.400,282.400 230.292,282.400 227.400 C 282.400 222.527,281.956 220.880,281.457 223.900 M166.252 231.654 C 168.423 233.444,170.894 235.469,171.741 236.154 C 172.589 236.839,176.644 240.190,180.752 243.600 C 184.860 247.010,191.716 252.666,195.987 256.169 C 200.258 259.672,204.123 262.852,204.576 263.237 C 205.029 263.622,207.605 265.772,210.300 268.014 C 215.932 272.700,215.877 272.567,213.100 274.857 C 211.945 275.810,210.910 276.681,210.800 276.795 C 203.780 284.007,185.744 285.417,174.173 279.658 C 169.248 277.207,160.441 269.066,160.407 266.933 C 160.403 266.677,160.265 266.407,160.100 266.333 C 159.812 266.205,158.279 263.180,157.549 261.300 C 157.357 260.805,157.034 259.995,156.830 259.500 C 156.322 258.263,156.013 256.716,155.572 253.200 C 155.365 251.550,155.125 250.009,155.039 249.775 C 154.953 249.542,155.130 247.472,155.432 245.175 C 156.216 239.208,156.443 238.021,156.844 237.773 C 157.040 237.652,157.200 237.228,157.200 236.832 C 157.200 235.465,161.094 228.400,161.848 228.400 C 162.099 228.400,164.080 229.864,166.252 231.654 M280.660 246.032 C 280.517 247.399,280.432 250.696,280.472 253.359 C 280.512 256.021,280.612 257.345,280.694 256.300 C 280.776 255.255,281.014 254.400,281.222 254.400 C 281.691 254.400,281.720 244.809,281.254 244.073 C 281.043 243.741,280.823 244.467,280.660 246.032 M279.859 267.700 C 279.720 268.855,279.638 272.050,279.676 274.800 C 279.713 277.550,279.812 278.941,279.894 277.890 C 279.977 276.840,280.196 276.074,280.382 276.189 C 280.567 276.303,280.745 273.968,280.777 270.999 C 280.835 265.574,280.332 263.766,279.859 267.700 M279.471 287.109 C 279.290 287.389,278.988 290.629,278.800 294.309 C 278.612 297.989,278.363 301.630,278.246 302.400 C 278.129 303.170,278.129 303.485,278.246 303.100 C 278.363 302.715,278.625 302.400,278.829 302.400 C 279.033 302.400,279.200 301.065,279.200 299.433 C 279.200 297.746,279.378 296.407,279.614 296.329 C 279.876 296.241,279.986 294.441,279.914 291.395 C 279.850 288.697,279.656 286.823,279.471 287.109 M277.400 305.600 C 277.250 306.073,277.217 306.550,277.327 306.660 C 277.437 306.770,277.650 306.473,277.800 306.000 C 277.950 305.527,277.983 305.050,277.873 304.940 C 277.763 304.830,277.550 305.127,277.400 305.600 M276.600 308.400 C 276.450 308.873,276.417 309.350,276.527 309.460 C 276.637 309.570,276.850 309.273,277.000 308.800 C 277.150 308.327,277.183 307.850,277.073 307.740 C 276.963 307.630,276.750 307.927,276.600 308.400 M145.200 308.856 C 151.790 312.872,148.612 322.948,140.956 322.313 C 133.618 321.704,131.699 312.062,138.200 308.467 C 139.623 307.680,143.636 307.903,145.200 308.856 M273.634 315.300 C 271.287 320.734,263.978 328.753,258.000 332.453 C 253.559 335.201,246.780 338.000,244.564 338.000 C 244.060 338.000,243.532 338.187,243.390 338.416 C 243.085 338.909,244.270 338.682,248.000 337.529 C 256.280 334.972,264.611 329.114,269.800 322.202 C 272.360 318.791,275.119 314.000,274.523 314.000 C 274.343 314.000,273.943 314.585,273.634 315.300 M238.200 339.200 L 237.000 339.505 238.200 339.523 C 238.860 339.533,240.210 339.397,241.200 339.220 L 243.000 338.900 241.200 338.897 C 240.210 338.896,238.860 339.032,238.200 339.200 " stroke="none" fill="#bbeb6b" fill-rule="evenodd"></path><path id="path3" d="M279.200 300.600 C 279.200 301.810,279.380 302.800,279.600 302.800 C 279.820 302.800,280.000 301.810,280.000 300.600 C 280.000 299.390,279.820 298.400,279.600 298.400 C 279.380 298.400,279.200 299.390,279.200 300.600 M55.200 309.576 C 55.200 314.463,55.355 317.649,55.600 317.800 C 55.850 317.955,56.000 322.004,56.000 328.624 C 56.000 335.408,56.143 339.200,56.400 339.200 C 56.657 339.200,56.800 343.133,56.800 350.200 C 56.800 357.267,56.943 361.200,57.200 361.200 C 57.456 361.200,57.600 364.733,57.600 371.000 C 57.600 376.390,57.758 380.800,57.950 380.800 C 58.143 380.800,58.397 381.745,58.514 382.900 C 58.890 386.603,59.797 389.002,61.540 390.900 C 62.095 391.505,62.422 392.000,62.266 392.000 C 62.110 392.000,62.973 392.990,64.183 394.200 C 65.393 395.410,66.657 396.400,66.991 396.400 C 67.326 396.400,67.600 396.580,67.600 396.800 C 67.600 397.020,67.881 397.200,68.224 397.200 C 68.567 397.200,68.736 397.380,68.600 397.600 C 68.464 397.820,68.723 398.000,69.176 398.000 C 69.629 398.000,70.000 398.180,70.000 398.400 C 70.000 398.620,70.345 398.800,70.767 398.800 C 71.188 398.800,71.608 399.025,71.700 399.300 C 71.945 400.035,262.455 400.035,262.700 399.300 C 262.792 399.025,263.212 398.800,263.633 398.800 C 264.055 398.800,264.400 398.620,264.400 398.400 C 264.400 398.180,264.760 398.000,265.200 398.000 C 265.640 398.000,266.000 397.820,266.000 397.600 C 266.000 397.380,266.273 397.200,266.606 397.200 C 267.159 397.200,273.200 391.510,273.200 390.990 C 273.200 390.868,273.571 390.266,274.024 389.653 C 274.477 389.040,274.943 387.922,275.060 387.169 C 275.177 386.416,275.436 385.740,275.636 385.667 C 275.836 385.593,276.000 384.828,276.000 383.967 C 276.000 383.105,276.180 382.400,276.400 382.400 C 276.652 382.400,276.800 379.733,276.800 375.200 C 276.800 370.667,276.948 368.000,277.200 368.000 C 277.457 368.000,277.600 364.133,277.600 357.200 C 277.600 350.267,277.743 346.400,278.000 346.400 C 278.257 346.400,278.400 342.467,278.400 335.400 C 278.400 328.333,278.543 324.400,278.800 324.400 C 279.056 324.400,279.200 320.667,279.200 314.000 C 279.200 307.333,279.056 303.600,278.800 303.600 C 278.580 303.600,278.400 304.219,278.400 304.976 C 278.400 305.733,278.220 306.464,278.000 306.600 C 277.780 306.736,277.600 307.289,277.600 307.829 C 277.600 308.369,277.441 309.123,277.247 309.505 C 277.052 309.887,276.715 310.650,276.497 311.200 C 275.598 313.471,274.163 316.302,273.116 317.872 C 272.502 318.792,272.000 319.660,272.000 319.802 C 272.000 322.356,260.590 332.379,254.400 335.263 C 252.530 336.134,250.687 337.017,250.305 337.224 C 249.923 337.431,249.259 337.600,248.829 337.600 C 248.399 337.600,247.948 337.760,247.827 337.956 C 247.706 338.151,247.021 338.412,246.304 338.534 C 245.587 338.656,244.100 338.979,243.000 339.252 C 240.127 339.964,99.668 340.277,95.000 339.581 C 76.169 336.774,62.105 324.462,56.821 306.157 C 56.369 304.593,56.000 302.928,56.000 302.457 C 56.000 301.986,55.820 301.600,55.600 301.600 C 55.347 301.600,55.200 304.525,55.200 309.576 " stroke="none" fill="#f2f9f1" fill-rule="evenodd"></path><path id="path4" d="M135.000 125.590 C 122.628 135.721,112.697 143.783,105.000 149.944 C 100.820 153.290,97.130 156.248,96.800 156.519 C 96.470 156.790,95.396 157.639,94.413 158.406 C 93.431 159.172,92.171 160.213,91.613 160.718 C 91.056 161.223,90.015 162.003,89.300 162.451 C 87.449 163.610,88.094 164.575,93.200 168.287 C 96.379 170.597,101.661 173.200,103.172 173.200 C 103.601 173.200,104.049 173.356,104.167 173.547 C 104.786 174.548,117.459 174.983,120.800 174.118 C 121.790 173.861,123.247 173.485,124.038 173.282 C 135.359 170.372,144.378 160.299,147.970 146.554 C 149.032 142.490,148.341 133.262,146.597 128.200 C 145.825 125.960,143.561 121.472,143.100 121.267 C 142.935 121.193,142.800 120.878,142.800 120.567 C 142.800 119.407,141.637 120.155,135.000 125.590 M49.606 162.300 C 49.615 166.611,50.243 167.345,50.606 163.468 C 50.899 160.344,50.740 159.200,50.013 159.200 C 49.764 159.200,49.602 160.433,49.606 162.300 M284.000 170.576 C 284.000 171.799,284.148 172.800,284.329 172.800 C 284.820 172.800,284.903 168.911,284.418 168.611 C 284.146 168.443,284.000 169.131,284.000 170.576 M50.416 179.168 C 50.393 183.771,50.535 187.636,50.731 187.757 C 51.482 188.221,51.870 179.119,51.339 173.500 C 50.856 168.382,50.459 170.822,50.416 179.168 M283.467 189.467 C 283.320 189.613,283.203 190.918,283.206 192.367 C 283.210 194.233,283.327 194.825,283.605 194.400 C 283.916 193.925,284.099 189.200,283.807 189.200 C 283.766 189.200,283.613 189.320,283.467 189.467 M51.216 200.963 C 51.240 205.488,51.405 209.279,51.582 209.389 C 52.081 209.697,52.516 200.787,52.198 196.776 C 51.680 190.232,51.171 192.403,51.216 200.963 M282.400 213.824 C 282.400 215.471,282.549 216.355,282.800 216.200 C 283.020 216.064,283.200 214.883,283.200 213.576 C 283.200 212.259,283.022 211.200,282.800 211.200 C 282.574 211.200,282.400 212.341,282.400 213.824 M52.000 222.776 C 52.000 227.163,52.157 230.850,52.349 230.969 C 52.875 231.294,53.310 222.867,52.988 218.574 C 52.510 212.204,52.000 214.375,52.000 222.776 M160.823 229.300 C 159.490 231.408,157.200 236.167,157.200 236.832 C 157.200 237.228,157.040 237.652,156.844 237.773 C 156.443 238.021,156.216 239.208,155.432 245.175 C 155.130 247.472,154.953 249.542,155.039 249.775 C 155.125 250.009,155.365 251.550,155.572 253.200 C 156.013 256.716,156.322 258.263,156.830 259.500 C 157.034 259.995,157.357 260.805,157.549 261.300 C 158.279 263.180,159.812 266.205,160.100 266.333 C 160.265 266.407,160.403 266.677,160.407 266.933 C 160.441 269.066,169.248 277.207,174.173 279.658 C 185.744 285.417,203.780 284.007,210.800 276.795 C 210.910 276.681,211.945 275.810,213.100 274.857 C 215.877 272.567,215.932 272.700,210.300 268.014 C 207.605 265.772,205.029 263.622,204.576 263.237 C 204.123 262.852,200.258 259.672,195.987 256.169 C 191.716 252.666,184.860 247.010,180.752 243.600 C 176.644 240.190,172.589 236.839,171.741 236.154 C 170.894 235.469,168.423 233.444,166.252 231.654 C 161.935 228.096,161.660 227.977,160.823 229.300 M281.600 235.024 C 281.600 236.671,281.749 237.555,282.000 237.400 C 282.220 237.264,282.400 236.083,282.400 234.776 C 282.400 233.459,282.222 232.400,282.000 232.400 C 281.774 232.400,281.600 233.541,281.600 235.024 M52.800 243.953 C 52.800 248.573,52.960 252.452,53.156 252.573 C 53.697 252.907,54.125 244.540,53.800 240.001 C 53.306 233.098,52.800 235.098,52.800 243.953 M280.800 257.024 C 280.800 258.671,280.949 259.555,281.200 259.400 C 281.420 259.264,281.600 258.083,281.600 256.776 C 281.600 255.459,281.422 254.400,281.200 254.400 C 280.974 254.400,280.800 255.541,280.800 257.024 M53.600 265.920 C 53.600 271.307,53.746 274.400,54.000 274.400 C 54.687 274.400,54.652 258.539,53.964 257.820 C 53.745 257.591,53.600 260.820,53.600 265.920 M280.267 275.867 C 279.821 276.313,279.961 280.800,280.421 280.800 C 280.681 280.800,280.810 279.807,280.758 278.200 C 280.712 276.770,280.642 275.600,280.604 275.600 C 280.565 275.600,280.413 275.720,280.267 275.867 M54.428 287.300 C 54.410 292.021,54.562 295.650,54.792 296.000 C 55.070 296.422,55.202 295.591,55.236 293.200 C 55.378 283.253,55.260 279.200,54.830 279.200 C 54.616 279.200,54.447 282.625,54.428 287.300 M279.200 297.400 C 279.200 297.950,279.380 298.400,279.600 298.400 C 279.820 298.400,280.000 297.950,280.000 297.400 C 280.000 296.850,279.820 296.400,279.600 296.400 C 279.380 296.400,279.200 296.850,279.200 297.400 M55.200 299.800 C 55.200 300.790,55.380 301.600,55.600 301.600 C 55.820 301.600,56.000 301.986,56.000 302.457 C 56.000 302.928,56.369 304.593,56.821 306.157 C 62.000 324.098,75.214 335.975,93.800 339.396 C 97.193 340.021,239.335 340.287,240.885 339.672 C 241.262 339.522,210.032 339.457,171.485 339.526 C 122.026 339.615,100.164 339.521,97.200 339.207 C 92.885 338.750,86.495 337.370,85.820 336.749 C 85.611 336.557,85.150 336.400,84.795 336.400 C 83.789 336.400,77.408 333.018,74.460 330.922 C 69.248 327.217,63.159 319.996,60.529 314.400 C 58.890 310.912,58.270 309.398,57.910 308.006 C 56.967 304.356,56.729 303.300,56.556 302.000 C 56.120 298.727,55.943 298.000,55.582 298.000 C 55.372 298.000,55.200 298.810,55.200 299.800 M278.180 303.900 C 277.662 306.936,276.062 311.439,274.236 315.000 C 272.651 318.092,272.626 318.155,273.078 317.875 C 273.440 317.652,275.635 313.363,276.496 311.200 C 276.714 310.650,277.052 309.887,277.247 309.505 C 277.441 309.123,277.600 308.369,277.600 307.829 C 277.600 307.289,277.780 306.736,278.000 306.600 C 278.220 306.464,278.400 305.733,278.400 304.976 C 278.400 304.219,278.580 303.600,278.800 303.600 C 279.020 303.600,279.200 303.330,279.200 303.000 C 279.200 301.772,278.427 302.454,278.180 303.900 M271.721 319.500 C 267.776 325.721,260.772 331.923,254.268 334.954 C 253.425 335.347,252.822 335.756,252.929 335.863 C 254.580 337.514,268.976 325.202,272.303 319.294 C 273.021 318.020,272.555 318.185,271.721 319.500 M246.600 338.000 C 245.829 338.331,245.831 338.345,246.676 338.372 C 247.158 338.387,247.664 338.220,247.800 338.000 C 248.092 337.527,247.701 337.527,246.600 338.000 M243.400 338.800 L 242.600 339.144 243.400 339.166 C 243.840 339.178,244.470 339.013,244.800 338.800 C 245.595 338.286,244.596 338.286,243.400 338.800 " stroke="none" fill="#d4f49c" fill-rule="evenodd"></path></g></svg>