<svg id="svg" version="1.1" xmlns="http://www.w3.org/2000/svg" xmlns:xlink="http://www.w3.org/1999/xlink" width="400" height="400" viewBox="0, 0, 400,400"><g id="svgg"><path id="path0" d="M260.083 177.701 C 257.819 179.955,242.069 195.719,225.083 212.732 C 208.097 229.745,192.357 245.495,190.105 247.732 C 185.350 252.456,185.443 252.172,187.900 254.460 C 192.534 258.775,199.736 263.049,206.000 265.200 C 206.770 265.464,207.760 265.826,208.200 266.003 C 208.943 266.303,210.624 266.726,214.600 267.613 C 228.114 270.630,244.031 267.269,256.600 258.745 C 283.566 240.458,289.151 202.674,268.623 177.401 C 264.747 172.628,265.194 172.613,260.083 177.701 M261.749 189.002 C 264.648 193.368,268.000 202.172,268.000 205.420 L 268.000 206.400 254.467 206.400 C 247.023 206.400,240.807 206.273,240.652 206.118 C 240.321 205.788,259.181 186.800,259.840 186.800 C 260.086 186.800,260.945 187.791,261.749 189.002 M268.000 219.780 C 268.000 223.692,261.712 238.400,260.040 238.400 C 259.841 238.400,241.957 220.691,240.433 218.987 C 240.342 218.884,246.507 218.800,254.133 218.800 L 268.000 218.800 268.000 219.780 M218.800 241.800 C 218.800 257.720,219.361 256.171,214.093 254.788 C 210.699 253.897,207.367 252.662,205.200 251.493 C 201.831 249.676,199.610 248.203,199.396 247.645 C 199.178 247.076,217.726 228.000,218.497 228.000 C 218.664 228.000,218.800 234.210,218.800 241.800 M241.297 237.497 C 246.524 242.720,250.800 247.201,250.800 247.455 C 250.800 249.290,236.375 255.600,232.180 255.600 L 231.200 255.600 231.200 241.800 C 231.200 234.210,231.334 228.000,231.497 228.000 C 231.660 228.000,236.070 232.274,241.297 237.497 M38.000 235.191 C 37.670 235.409,36.838 235.591,36.151 235.594 C 33.912 235.605,22.455 239.740,21.821 240.766 C 21.715 240.938,21.812 244.122,22.037 247.840 C 22.262 251.558,22.630 258.470,22.854 263.200 C 23.307 272.785,23.737 280.885,24.392 292.200 C 24.634 296.380,25.001 302.860,25.206 306.600 C 25.411 310.340,25.764 316.685,25.990 320.700 C 26.215 324.715,26.579 331.195,26.797 335.100 C 27.505 347.774,28.679 368.387,29.033 374.360 C 29.249 378.013,29.396 378.647,30.243 379.560 L 31.207 380.600 74.103 380.830 C 119.229 381.072,118.506 381.096,120.064 379.333 C 120.743 378.565,120.877 377.240,121.609 364.000 C 121.810 360.370,122.167 354.070,122.402 350.000 C 122.637 345.930,123.009 339.360,123.228 335.400 C 123.447 331.440,123.795 325.230,124.001 321.600 C 124.207 317.970,124.566 311.580,124.800 307.400 C 125.356 297.456,125.874 288.331,126.401 279.200 C 126.824 271.862,127.307 262.964,127.819 253.053 C 127.965 250.221,127.931 247.973,127.742 248.056 C 127.554 248.138,126.410 248.674,125.200 249.246 C 113.322 254.864,98.364 255.467,86.600 250.802 C 83.363 249.519,77.725 246.524,76.801 245.597 C 76.470 245.266,75.705 244.740,75.100 244.430 C 74.495 244.119,74.000 243.715,74.000 243.532 C 74.000 243.350,73.764 243.200,73.475 243.200 C 73.187 243.200,72.602 242.881,72.175 242.492 C 69.656 240.192,61.248 236.743,55.200 235.529 C 52.262 234.939,38.780 234.674,38.000 235.191 M275.174 287.759 C 275.054 287.879,273.526 288.163,271.778 288.390 C 270.030 288.617,267.610 288.992,266.400 289.222 C 265.190 289.452,263.524 289.741,262.697 289.863 C 261.871 289.985,261.095 290.245,260.974 290.442 C 260.852 290.639,260.324 290.800,259.800 290.800 C 259.276 290.800,258.736 290.980,258.600 291.200 C 258.464 291.420,257.911 291.600,257.371 291.600 C 256.831 291.600,256.077 291.759,255.695 291.953 C 255.313 292.148,254.550 292.486,254.000 292.705 C 240.097 298.249,228.689 308.299,223.242 319.800 C 222.513 321.340,221.755 322.913,221.558 323.295 C 221.361 323.677,221.200 324.262,221.200 324.595 C 221.200 325.062,220.697 325.200,218.994 325.200 C 216.736 325.200,213.600 325.954,213.600 326.497 C 213.600 326.664,213.318 326.800,212.974 326.800 C 209.785 326.800,204.302 339.056,206.800 340.600 C 207.020 340.736,207.200 341.287,207.200 341.824 C 207.200 342.361,207.380 342.800,207.600 342.800 C 207.820 342.800,208.000 343.041,208.000 343.336 C 208.000 345.702,214.367 349.590,218.251 349.596 C 220.902 349.600,221.364 349.886,221.821 351.802 C 222.180 353.305,224.451 358.154,224.880 358.333 C 225.056 358.407,225.200 358.644,225.200 358.861 C 225.200 359.619,227.867 363.258,230.689 366.350 C 232.446 368.275,232.747 369.011,231.900 369.310 C 231.432 369.476,233.826 371.978,234.467 371.994 C 234.614 371.997,235.484 372.720,236.400 373.600 C 237.316 374.480,238.371 375.200,238.744 375.200 C 239.118 375.200,239.683 375.560,240.000 376.000 C 240.317 376.440,240.857 376.800,241.200 376.800 C 241.543 376.800,242.083 377.160,242.400 377.600 C 242.717 378.040,243.207 378.400,243.488 378.400 C 243.770 378.400,244.000 378.580,244.000 378.800 C 244.000 379.020,244.360 379.200,244.800 379.200 C 245.240 379.200,245.600 379.380,245.600 379.600 C 245.600 379.820,245.960 380.000,246.400 380.000 C 246.840 380.000,247.200 380.180,247.200 380.400 C 247.200 380.620,247.560 380.800,248.000 380.800 C 248.440 380.800,248.800 380.980,248.800 381.200 C 248.800 381.420,249.160 381.600,249.600 381.600 C 250.040 381.600,250.400 381.780,250.400 382.000 C 250.400 382.220,250.749 382.400,251.176 382.400 C 251.603 382.400,252.064 382.580,252.200 382.800 C 252.336 383.020,252.887 383.200,253.424 383.200 C 253.961 383.200,254.400 383.380,254.400 383.600 C 254.400 383.820,254.940 384.000,255.600 384.000 C 256.260 384.000,256.800 384.180,256.800 384.400 C 256.800 384.620,257.239 384.800,257.776 384.800 C 258.313 384.800,258.864 384.980,259.000 385.200 C 259.136 385.420,259.867 385.600,260.624 385.600 C 261.381 385.600,262.000 385.780,262.000 386.000 C 262.000 386.220,262.720 386.400,263.600 386.400 C 264.480 386.400,265.200 386.580,265.200 386.800 C 265.200 387.022,266.267 387.200,267.600 387.200 C 268.933 387.200,270.000 387.378,270.000 387.600 C 270.000 387.857,274.000 388.000,281.200 388.000 C 288.400 388.000,292.400 387.857,292.400 387.600 C 292.400 387.378,293.467 387.200,294.800 387.200 C 296.133 387.200,297.200 387.022,297.200 386.800 C 297.200 386.580,297.920 386.400,298.800 386.400 C 299.680 386.400,300.400 386.220,300.400 386.000 C 300.400 385.780,301.120 385.600,302.000 385.600 C 302.880 385.600,303.600 385.420,303.600 385.200 C 303.600 384.980,304.140 384.800,304.800 384.800 C 305.460 384.800,306.000 384.620,306.000 384.400 C 306.000 384.180,306.540 384.000,307.200 384.000 C 307.860 384.000,308.400 383.820,308.400 383.600 C 308.400 383.380,308.850 383.200,309.400 383.200 C 309.950 383.200,310.400 383.020,310.400 382.800 C 310.400 382.580,310.760 382.400,311.200 382.400 C 311.640 382.400,312.000 382.220,312.000 382.000 C 312.000 381.780,312.360 381.600,312.800 381.600 C 313.240 381.600,313.600 381.420,313.600 381.200 C 313.600 380.980,313.960 380.800,314.400 380.800 C 314.840 380.800,315.200 380.620,315.200 380.400 C 315.200 380.180,315.560 380.000,316.000 380.000 C 316.440 380.000,316.800 379.820,316.800 379.600 C 316.800 379.380,317.160 379.200,317.600 379.200 C 318.040 379.200,318.400 379.020,318.400 378.800 C 318.400 378.580,318.636 378.400,318.925 378.400 C 319.213 378.400,319.836 378.040,320.308 377.600 C 320.780 377.160,321.404 376.800,321.695 376.800 C 321.986 376.800,322.483 376.440,322.800 376.000 C 323.117 375.560,323.592 375.200,323.856 375.200 C 324.119 375.200,325.084 374.480,326.000 373.600 C 326.916 372.720,327.792 372.000,327.948 372.000 C 328.428 372.000,332.400 368.112,332.400 367.643 C 332.400 367.399,332.580 367.200,332.800 367.200 C 333.020 367.200,333.200 367.020,333.200 366.800 C 333.200 366.581,333.920 365.659,334.800 364.752 C 335.680 363.845,336.400 362.895,336.400 362.640 C 336.400 362.385,336.760 361.917,337.200 361.600 C 337.640 361.283,338.000 360.703,338.000 360.312 C 338.000 359.920,338.180 359.600,338.400 359.600 C 338.620 359.600,338.800 359.330,338.800 359.000 C 338.800 358.670,338.980 358.400,339.200 358.400 C 339.420 358.400,339.600 358.166,339.600 357.880 C 339.600 357.170,340.535 355.207,340.875 355.203 C 341.027 355.201,341.278 354.351,341.434 353.313 C 341.830 350.672,342.236 350.400,345.771 350.400 C 347.524 350.400,348.800 350.231,348.800 350.000 C 348.800 349.780,349.160 349.600,349.600 349.600 C 350.040 349.600,350.400 349.420,350.400 349.200 C 350.400 348.980,350.675 348.800,351.011 348.800 C 351.346 348.800,352.426 347.995,353.411 347.011 C 354.395 346.026,355.200 344.946,355.200 344.611 C 355.200 344.275,355.380 344.000,355.600 344.000 C 355.820 344.000,356.000 343.640,356.000 343.200 C 356.000 342.760,356.180 342.400,356.400 342.400 C 356.644 342.400,356.800 340.541,356.800 337.624 C 356.800 334.871,356.631 332.742,356.400 332.600 C 356.180 332.464,356.000 332.003,356.000 331.576 C 356.000 331.149,355.820 330.800,355.600 330.800 C 355.380 330.800,355.200 330.565,355.200 330.278 C 355.200 327.975,349.628 324.800,345.585 324.800 C 342.253 324.800,341.826 324.501,341.434 321.887 C 341.278 320.849,340.982 320.000,340.775 320.000 C 340.569 320.000,340.400 319.640,340.400 319.200 C 340.400 318.760,340.220 318.400,340.000 318.400 C 339.780 318.400,339.600 318.040,339.600 317.600 C 339.600 317.160,339.420 316.800,339.200 316.800 C 338.980 316.800,338.800 316.440,338.800 316.000 C 338.800 315.560,338.620 315.200,338.400 315.200 C 338.180 315.200,338.000 314.964,338.000 314.675 C 338.000 314.387,337.640 313.764,337.200 313.292 C 336.760 312.820,336.400 312.281,336.400 312.095 C 336.400 311.536,333.732 308.801,333.456 309.077 C 333.315 309.218,333.200 309.030,333.200 308.659 C 333.200 307.921,328.284 302.800,327.576 302.800 C 327.335 302.800,326.446 302.080,325.600 301.200 C 324.754 300.320,323.869 299.600,323.631 299.600 C 323.394 299.600,323.200 299.450,323.200 299.268 C 323.200 299.085,322.705 298.680,322.100 298.368 C 321.495 298.055,320.651 297.485,320.225 297.100 C 319.798 296.715,319.213 296.400,318.925 296.400 C 318.636 296.400,318.400 296.220,318.400 296.000 C 318.400 295.780,318.040 295.600,317.600 295.600 C 317.160 295.600,316.800 295.420,316.800 295.200 C 316.800 294.621,315.298 294.707,315.101 295.298 C 314.946 295.761,313.775 295.336,310.305 293.556 C 309.923 293.360,309.338 293.200,309.005 293.200 C 308.672 293.200,308.400 293.020,308.400 292.800 C 308.400 292.580,308.038 292.400,307.595 292.400 C 307.152 292.400,306.477 292.238,306.095 292.039 C 305.713 291.840,304.635 291.452,303.700 291.175 C 302.765 290.898,302.000 290.544,302.000 290.389 C 302.000 290.233,301.325 289.995,300.500 289.861 C 299.675 289.727,298.190 289.427,297.200 289.195 C 293.250 288.268,289.877 287.927,282.797 287.738 C 278.725 287.629,275.295 287.639,275.174 287.759 M266.094 307.676 C 272.707 310.772,276.474 318.580,274.653 325.417 C 270.482 341.079,249.478 341.772,244.436 326.414 C 240.290 313.785,253.933 301.983,266.094 307.676 " stroke="none" fill="#f4d937" fill-rule="evenodd"></path><path id="path1" d="M160.400 82.463 C 154.356 83.694,154.141 83.749,151.200 84.849 L 150.000 85.297 149.997 89.149 C 149.992 94.461,148.571 104.483,147.183 109.000 C 142.681 123.644,136.513 134.366,126.923 144.220 C 123.301 147.942,122.738 148.457,116.600 153.665 C 104.721 163.744,93.041 178.782,87.055 191.704 C 85.973 194.041,84.933 193.960,112.706 193.711 L 138.600 193.478 140.316 194.355 C 143.908 196.192,144.126 198.403,142.822 219.800 C 142.608 223.320,142.161 231.510,141.829 238.000 C 141.497 244.490,141.033 253.310,140.798 257.600 C 140.563 261.890,140.332 266.120,140.285 267.000 L 140.200 268.600 152.400 268.800 C 165.110 269.008,165.458 269.057,167.000 270.863 C 168.800 272.971,168.800 272.973,168.800 287.411 C 168.800 307.430,170.136 305.996,151.490 305.999 L 138.380 306.000 137.990 307.026 C 137.776 307.590,137.618 309.165,137.640 310.526 C 137.691 313.671,138.301 312.124,138.360 308.700 L 138.400 306.400 151.300 306.417 L 164.200 306.434 167.400 309.446 C 170.239 312.119,175.578 316.841,180.822 321.318 C 181.800 322.153,184.895 324.569,187.700 326.685 C 190.505 328.802,192.800 330.684,192.800 330.867 C 192.800 331.050,196.010 331.200,199.933 331.200 C 208.038 331.200,207.760 331.119,206.754 333.201 C 206.187 334.374,206.017 335.536,206.069 337.881 L 206.138 341.000 206.369 337.600 C 206.506 335.580,206.881 333.653,207.294 332.851 C 207.675 332.110,207.895 331.354,207.782 331.171 C 207.502 330.719,211.871 326.400,212.609 326.400 C 212.934 326.400,213.200 326.220,213.200 326.000 C 213.200 325.780,213.549 325.600,213.976 325.600 C 214.403 325.600,214.864 325.420,215.000 325.200 C 215.136 324.980,216.497 324.800,218.024 324.800 C 220.304 324.800,220.800 324.685,220.800 324.159 C 220.800 323.037,223.810 317.046,226.021 313.767 C 232.191 304.617,242.140 296.875,253.600 292.305 C 254.150 292.086,254.913 291.748,255.295 291.553 C 255.677 291.359,256.341 291.200,256.771 291.200 C 257.201 291.200,257.664 291.020,257.800 290.800 C 257.936 290.580,258.476 290.400,259.000 290.400 C 259.524 290.400,260.052 290.239,260.174 290.042 C 260.295 289.845,261.071 289.587,261.897 289.468 C 262.724 289.349,264.300 289.059,265.400 288.824 C 270.130 287.812,275.770 287.224,280.859 287.213 L 286.317 287.200 287.746 282.700 C 290.063 275.402,291.367 269.467,292.864 259.400 C 293.711 253.712,293.579 232.286,292.661 226.400 C 287.304 192.032,272.379 164.977,246.800 143.267 C 230.208 129.184,221.455 114.123,219.418 96.153 L 219.187 94.106 222.093 93.849 C 226.584 93.451,232.122 92.548,233.400 92.006 C 233.840 91.819,234.560 91.582,235.000 91.479 C 235.440 91.375,236.097 91.168,236.459 91.018 C 237.033 90.781,237.147 91.201,237.342 94.273 C 237.465 96.213,237.759 98.970,237.995 100.400 C 238.230 101.830,238.526 103.720,238.653 104.600 C 238.779 105.480,239.044 106.371,239.241 106.580 C 239.438 106.789,239.600 107.554,239.600 108.280 C 239.600 109.006,239.780 109.600,240.000 109.600 C 240.220 109.600,240.400 110.129,240.400 110.776 C 240.400 111.423,240.580 112.064,240.800 112.200 C 241.020 112.336,241.200 112.799,241.200 113.229 C 241.200 113.984,241.344 114.374,242.338 116.295 C 242.592 116.787,242.800 117.552,242.800 117.995 C 242.800 118.438,242.980 118.800,243.200 118.800 C 243.420 118.800,243.600 119.059,243.600 119.375 C 243.600 121.045,251.752 135.154,254.246 137.800 C 254.661 138.241,255.512 139.285,256.137 140.122 C 257.625 142.114,263.582 148.068,266.610 150.591 C 267.925 151.686,269.090 152.677,269.200 152.794 C 269.310 152.910,270.570 153.994,272.000 155.202 C 276.771 159.235,283.643 166.643,287.768 172.200 C 288.584 173.300,289.491 174.494,289.783 174.854 C 292.674 178.418,296.084 184.228,299.844 192.000 C 301.494 195.410,302.983 198.470,303.154 198.800 C 303.326 199.130,303.715 200.255,304.020 201.300 C 304.325 202.345,304.715 203.200,304.887 203.200 C 305.059 203.200,305.200 203.639,305.200 204.176 C 305.200 204.713,305.380 205.264,305.600 205.400 C 305.820 205.536,306.000 206.076,306.000 206.600 C 306.000 207.124,306.180 207.664,306.400 207.800 C 306.620 207.936,306.800 208.577,306.800 209.224 C 306.800 209.871,306.980 210.400,307.200 210.400 C 307.420 210.400,307.600 211.019,307.600 211.776 C 307.600 212.533,307.780 213.264,308.000 213.400 C 308.220 213.536,308.400 214.267,308.400 215.024 C 308.400 215.781,308.562 216.400,308.760 216.400 C 308.958 216.400,309.217 217.165,309.336 218.100 C 309.455 219.035,309.754 220.790,309.999 222.000 C 310.810 225.995,311.225 229.724,311.550 235.902 C 311.879 242.182,312.416 244.681,312.380 239.767 C 312.325 232.304,311.058 223.364,308.771 214.300 C 308.535 213.365,308.245 212.013,308.127 211.296 C 308.008 210.579,307.751 209.894,307.556 209.773 C 307.360 209.652,307.200 209.124,307.200 208.600 C 307.200 208.076,307.020 207.536,306.800 207.400 C 306.580 207.264,306.400 206.827,306.400 206.430 C 306.400 206.032,306.021 204.738,305.557 203.553 C 305.093 202.369,304.578 201.040,304.411 200.600 C 302.585 195.788,299.002 188.462,295.908 183.213 C 293.968 179.921,290.896 175.204,290.429 174.800 C 290.302 174.690,289.388 173.521,288.399 172.201 C 283.147 165.197,275.805 157.559,268.600 151.603 C 264.144 147.919,257.992 141.759,255.601 138.587 C 254.612 137.274,253.690 136.110,253.554 136.000 C 251.916 134.682,245.124 122.437,243.236 117.400 C 242.741 116.080,242.170 114.687,241.968 114.305 C 241.766 113.923,241.600 113.259,241.600 112.829 C 241.600 112.399,241.420 111.936,241.200 111.800 C 240.980 111.664,240.800 111.034,240.800 110.400 C 240.800 109.766,240.640 109.148,240.444 109.027 C 240.249 108.906,239.986 108.221,239.861 107.504 C 239.736 106.787,239.438 105.210,239.198 104.000 C 238.493 100.429,238.042 97.214,237.756 93.700 C 237.478 90.281,237.227 89.929,235.667 90.764 C 234.522 91.377,229.253 92.410,224.200 93.011 C 212.919 94.355,205.167 92.978,193.200 87.507 C 188.132 85.189,184.533 83.959,180.600 83.199 C 179.280 82.944,177.445 82.570,176.523 82.368 C 174.412 81.905,162.804 81.973,160.400 82.463 M190.157 133.006 C 190.859 133.340,195.776 137.975,201.083 143.306 C 214.853 157.141,214.893 155.347,200.502 169.678 C 186.665 183.458,188.536 183.472,174.491 169.475 C 160.263 155.294,160.303 157.240,173.953 143.455 C 185.352 131.942,186.438 131.242,190.157 133.006 M266.734 174.500 C 271.341 179.464,275.809 186.734,277.980 192.800 C 278.255 193.570,278.622 194.560,278.795 195.000 C 279.552 196.930,280.655 201.757,281.188 205.477 C 282.237 212.797,281.127 224.258,278.795 230.200 C 278.622 230.640,278.255 231.630,277.980 232.400 C 266.225 265.243,226.343 279.003,195.600 260.822 C 191.496 258.395,185.200 253.199,185.200 252.238 C 185.200 251.644,264.081 172.800,264.675 172.800 C 264.940 172.800,265.866 173.565,266.734 174.500 M97.388 178.502 C 97.855 181.576,98.578 185.289,99.549 189.600 C 99.772 190.590,100.058 191.895,100.185 192.500 L 100.415 193.600 93.608 193.600 C 89.863 193.600,86.800 193.539,86.800 193.464 C 86.800 193.389,87.723 191.544,88.852 189.364 C 89.981 187.184,91.106 184.996,91.352 184.503 C 91.598 184.010,91.935 183.605,92.100 183.603 C 92.265 183.601,92.400 183.419,92.400 183.197 C 92.400 182.572,96.566 176.455,96.865 176.640 C 97.011 176.730,97.246 177.568,97.388 178.502 M40.800 234.000 C 39.970 234.175,41.926 234.297,45.600 234.301 C 49.878 234.306,51.304 234.205,50.200 233.977 C 48.271 233.578,42.741 233.591,40.800 234.000 M35.600 234.800 C 34.625 235.112,34.630 235.121,35.800 235.132 C 36.460 235.138,37.360 234.989,37.800 234.800 C 38.894 234.330,37.067 234.330,35.600 234.800 M53.400 234.800 C 53.840 234.989,54.740 235.138,55.400 235.132 C 56.570 235.121,56.575 235.112,55.600 234.800 C 54.133 234.330,52.306 234.330,53.400 234.800 M30.075 236.273 C 28.466 236.829,27.229 237.363,27.327 237.460 C 27.424 237.557,29.100 237.100,31.052 236.444 C 33.003 235.787,34.240 235.253,33.800 235.257 C 33.360 235.260,31.684 235.718,30.075 236.273 M57.400 235.600 C 57.840 235.789,58.560 235.944,59.000 235.944 L 59.800 235.944 59.000 235.600 C 58.560 235.411,57.840 235.256,57.400 235.256 L 56.600 235.256 57.400 235.600 M60.400 236.400 C 60.730 236.613,61.270 236.788,61.600 236.788 C 62.133 236.788,62.133 236.745,61.600 236.400 C 61.270 236.187,60.730 236.012,60.400 236.012 C 59.867 236.012,59.867 236.055,60.400 236.400 M23.824 238.817 C 20.615 240.377,20.653 240.249,21.148 247.937 C 21.384 251.602,21.768 258.110,22.001 262.400 C 22.581 273.078,22.734 274.433,22.590 267.600 C 22.523 264.410,22.242 258.110,21.966 253.600 C 21.690 249.090,21.449 244.320,21.432 243.000 L 21.400 240.600 23.920 239.347 C 25.306 238.657,26.551 237.982,26.687 237.847 C 27.199 237.335,26.120 237.700,23.824 238.817 M64.400 237.739 C 64.400 237.816,65.795 238.566,67.500 239.408 C 69.205 240.249,73.092 242.616,76.138 244.668 C 81.309 248.153,82.801 248.973,82.200 248.000 C 82.064 247.780,81.779 247.600,81.566 247.600 C 81.353 247.600,78.786 245.999,75.862 244.042 C 70.231 240.273,64.400 237.067,64.400 237.739 M312.027 245.600 C 311.963 245.930,311.758 248.720,311.573 251.800 C 311.387 254.880,311.051 258.660,310.825 260.200 C 310.599 261.740,310.304 263.900,310.168 265.000 C 310.033 266.100,309.760 267.171,309.561 267.380 C 309.363 267.589,309.200 268.433,309.200 269.256 C 309.200 270.079,309.020 270.864,308.800 271.000 C 308.580 271.136,308.400 271.779,308.400 272.429 C 308.400 273.079,308.238 273.923,308.039 274.305 C 307.840 274.687,307.463 275.810,307.200 276.800 C 306.937 277.790,306.560 278.913,306.361 279.295 C 306.162 279.677,306.000 280.341,306.000 280.771 C 306.000 281.201,305.820 281.664,305.600 281.800 C 305.380 281.936,305.200 282.399,305.200 282.829 C 305.200 283.259,305.041 283.923,304.847 284.305 C 304.488 285.010,303.747 286.745,303.183 288.200 C 302.431 290.139,302.422 290.433,303.107 290.644 C 303.488 290.762,304.113 291.025,304.495 291.229 C 304.877 291.433,305.541 291.600,305.971 291.600 C 306.401 291.600,306.864 291.780,307.000 292.000 C 307.136 292.220,307.509 292.400,307.828 292.400 C 308.294 292.400,310.930 293.466,312.500 294.290 C 312.665 294.376,312.800 294.352,312.800 294.235 C 312.800 293.947,308.504 292.000,307.868 292.000 C 307.589 292.000,307.189 291.851,306.980 291.670 C 306.771 291.488,305.835 291.099,304.900 290.806 C 303.190 290.269,302.902 289.775,303.553 288.495 C 303.878 287.857,304.390 286.669,305.233 284.600 C 305.412 284.160,305.952 282.540,306.432 281.000 C 306.912 279.460,307.441 277.840,307.607 277.400 C 308.318 275.516,310.066 268.323,310.620 265.000 C 311.664 258.737,312.509 249.559,312.292 246.841 C 312.211 245.829,312.091 245.270,312.027 245.600 M128.285 247.473 C 128.178 247.653,128.067 249.870,128.039 252.400 C 128.011 254.930,127.819 258.710,127.612 260.800 C 127.158 265.402,126.723 277.410,127.023 277.111 C 127.140 276.993,127.421 273.140,127.647 268.548 C 128.742 246.239,128.727 246.733,128.285 247.473 M86.800 250.333 C 87.735 250.937,92.437 252.402,93.366 252.379 C 94.055 252.361,90.052 250.964,87.000 250.157 C 86.371 249.990,86.328 250.028,86.800 250.333 M114.600 252.000 L 113.400 252.305 114.600 252.347 C 115.260 252.369,116.070 252.213,116.400 252.000 C 117.143 251.520,116.487 251.520,114.600 252.000 M95.000 252.800 C 95.440 252.989,96.520 253.136,97.400 253.126 L 99.000 253.108 97.400 252.777 C 96.520 252.595,95.440 252.448,95.000 252.451 L 94.200 252.456 95.000 252.800 M110.400 252.800 L 109.400 253.120 110.400 253.132 C 110.950 253.138,111.760 252.989,112.200 252.800 L 113.000 252.456 112.200 252.468 C 111.760 252.474,110.950 252.624,110.400 252.800 M101.600 253.638 C 103.030 253.823,105.370 253.823,106.800 253.638 C 109.102 253.340,108.805 253.301,104.200 253.301 C 99.595 253.301,99.297 253.340,101.600 253.638 M22.871 275.400 C 22.826 276.936,23.145 283.368,24.014 298.400 C 24.237 302.250,24.603 308.820,24.828 313.000 C 25.052 317.180,25.399 323.480,25.599 327.000 C 25.798 330.520,26.148 337.163,26.376 341.762 C 26.604 346.361,26.902 350.231,27.040 350.362 C 27.307 350.617,27.033 342.988,26.401 332.600 C 25.637 320.029,25.210 312.481,24.805 304.400 C 24.579 299.890,24.212 293.770,23.990 290.800 C 23.768 287.830,23.570 283.870,23.550 282.000 C 23.508 278.101,22.950 272.685,22.871 275.400 M126.484 281.600 C 126.435 283.910,126.312 287.060,126.210 288.600 L 126.026 291.400 126.424 289.200 C 126.643 287.990,126.766 284.840,126.698 282.200 L 126.573 277.400 126.484 281.600 M125.684 295.600 C 125.635 297.910,125.512 301.060,125.410 302.600 L 125.226 305.400 125.624 303.200 C 125.843 301.990,125.966 298.840,125.898 296.200 L 125.773 291.400 125.684 295.600 M313.600 294.800 C 313.930 295.013,314.470 295.188,314.800 295.188 C 315.333 295.188,315.333 295.145,314.800 294.800 C 314.470 294.587,313.930 294.412,313.600 294.412 C 313.067 294.412,313.067 294.455,313.600 294.800 M124.884 309.400 C 124.835 311.600,124.714 314.930,124.615 316.800 L 124.434 320.200 124.828 317.400 C 125.044 315.860,125.165 312.530,125.097 310.000 L 124.972 305.400 124.884 309.400 M137.102 320.600 C 136.938 322.800,136.829 326.130,136.858 328.000 L 136.913 331.400 137.261 327.000 C 137.452 324.580,137.562 321.250,137.504 319.600 L 137.400 316.600 137.102 320.600 M124.085 324.640 C 124.038 326.421,123.916 329.301,123.813 331.040 C 123.633 334.090,123.640 334.123,124.025 332.000 C 124.244 330.790,124.367 327.910,124.297 325.600 C 124.179 321.710,124.164 321.639,124.085 324.640 M123.283 338.600 C 123.235 340.360,123.113 343.330,123.013 345.200 C 122.836 348.501,122.842 348.530,123.221 346.200 C 123.435 344.880,123.557 341.910,123.490 339.600 C 123.381 335.798,123.362 335.703,123.283 338.600 M206.685 341.900 C 207.991 345.414,214.217 351.116,215.427 349.906 C 215.516 349.817,214.730 349.370,213.681 348.912 C 211.326 347.884,208.617 345.233,207.569 342.932 C 206.800 341.243,206.166 340.503,206.685 341.900 M220.300 350.265 C 220.575 350.376,220.800 350.724,220.800 351.039 C 220.800 351.353,220.965 351.923,221.166 352.305 C 221.367 352.687,221.980 353.990,222.529 355.200 C 223.077 356.410,223.813 357.760,224.163 358.200 C 224.513 358.640,224.142 357.650,223.338 356.000 C 221.914 353.077,221.509 352.139,221.049 350.700 C 220.926 350.315,220.594 350.014,220.313 350.032 C 219.911 350.056,219.908 350.107,220.300 350.265 M27.426 356.800 C 27.874 375.430,28.423 379.742,30.486 380.846 C 31.678 381.484,31.764 381.000,30.595 380.233 C 29.056 379.225,28.901 378.451,28.380 369.152 C 28.116 364.449,27.760 358.350,27.589 355.600 L 27.277 350.600 27.426 356.800 M122.221 358.518 C 122.045 360.892,121.996 362.930,122.112 363.045 C 122.388 363.321,122.935 355.960,122.712 354.968 C 122.617 354.546,122.396 356.143,122.221 358.518 M224.800 359.338 C 224.800 359.797,227.381 363.585,227.699 363.593 C 227.930 363.598,226.544 361.422,224.923 359.233 C 224.856 359.142,224.800 359.189,224.800 359.338 M228.694 365.000 C 229.145 365.660,229.914 366.560,230.404 367.000 C 230.894 367.440,231.442 368.160,231.622 368.600 C 231.828 369.103,231.952 369.177,231.956 368.800 C 231.960 368.470,231.043 367.210,229.919 366.000 C 228.794 364.790,228.242 364.340,228.694 365.000 M121.421 372.518 C 121.245 374.892,121.196 376.930,121.312 377.045 C 121.588 377.321,122.135 369.960,121.912 368.968 C 121.817 368.546,121.596 370.143,121.421 372.518 M120.663 378.980 C 120.533 379.319,119.836 379.956,119.113 380.396 C 118.391 380.837,118.022 381.198,118.294 381.199 C 118.958 381.201,121.466 378.932,121.149 378.616 C 121.011 378.478,120.793 378.642,120.663 378.980 M53.469 381.500 C 65.167 381.559,84.427 381.559,96.269 381.500 C 108.111 381.441,98.540 381.393,75.000 381.393 C 51.460 381.393,41.771 381.441,53.469 381.500 " stroke="none" fill="#fbeb93" fill-rule="evenodd"></path><path id="path2" d="M235.400 91.296 C 234.740 91.522,233.840 91.851,233.400 92.026 C 232.070 92.557,226.454 93.462,222.093 93.849 L 219.187 94.106 219.418 96.153 C 221.455 114.123,230.208 129.184,246.800 143.267 C 272.379 164.977,287.304 192.032,292.661 226.400 C 293.579 232.286,293.711 253.712,292.864 259.400 C 291.367 269.467,290.063 275.402,287.746 282.700 L 286.317 287.200 280.859 287.213 C 275.770 287.224,270.130 287.812,265.400 288.824 C 264.300 289.059,262.724 289.349,261.897 289.468 C 261.071 289.587,260.295 289.845,260.174 290.042 C 260.052 290.239,259.524 290.400,259.000 290.400 C 258.476 290.400,257.936 290.580,257.800 290.800 C 257.664 291.020,257.201 291.200,256.771 291.200 C 256.341 291.200,255.677 291.359,255.295 291.553 C 254.913 291.748,254.150 292.086,253.600 292.305 C 242.140 296.875,232.191 304.617,226.021 313.767 C 223.810 317.046,220.800 323.037,220.800 324.159 C 220.800 324.685,220.304 324.800,218.024 324.800 C 216.497 324.800,215.136 324.980,215.000 325.200 C 214.864 325.420,214.403 325.600,213.976 325.600 C 213.549 325.600,213.200 325.780,213.200 326.000 C 213.200 326.220,212.934 326.400,212.609 326.400 C 211.978 326.400,207.417 330.750,207.725 331.058 C 207.825 331.158,208.906 330.241,210.128 329.020 C 211.349 327.799,212.630 326.800,212.974 326.800 C 213.318 326.800,213.600 326.664,213.600 326.497 C 213.600 325.954,216.736 325.200,218.994 325.200 C 220.697 325.200,221.200 325.062,221.200 324.595 C 221.200 324.262,221.361 323.677,221.558 323.295 C 221.755 322.913,222.513 321.340,223.242 319.800 C 228.689 308.299,240.097 298.249,254.000 292.705 C 254.550 292.486,255.313 292.148,255.695 291.953 C 256.077 291.759,256.831 291.600,257.371 291.600 C 257.911 291.600,258.464 291.420,258.600 291.200 C 258.736 290.980,259.276 290.800,259.800 290.800 C 260.324 290.800,260.852 290.639,260.974 290.442 C 261.095 290.245,261.871 289.985,262.697 289.863 C 263.524 289.741,265.190 289.452,266.400 289.222 C 276.647 287.271,288.878 287.262,297.200 289.198 C 298.190 289.428,299.675 289.727,300.500 289.861 C 301.325 289.995,302.000 290.262,302.000 290.453 C 302.000 291.231,302.635 290.734,302.697 289.907 C 302.734 289.416,302.976 288.561,303.236 288.007 C 303.495 287.453,303.884 286.550,304.100 286.000 C 304.316 285.450,304.652 284.687,304.847 284.305 C 305.041 283.923,305.200 283.259,305.200 282.829 C 305.200 282.399,305.380 281.936,305.600 281.800 C 305.820 281.664,306.000 281.201,306.000 280.771 C 306.000 280.341,306.162 279.677,306.361 279.295 C 306.560 278.913,306.937 277.790,307.200 276.800 C 307.463 275.810,307.840 274.687,308.039 274.305 C 308.238 273.923,308.400 273.079,308.400 272.429 C 308.400 271.779,308.580 271.136,308.800 271.000 C 309.020 270.864,309.200 270.079,309.200 269.256 C 309.200 268.433,309.363 267.589,309.561 267.380 C 309.760 267.171,310.033 266.100,310.168 265.000 C 310.304 263.900,310.597 261.740,310.821 260.200 C 312.534 248.410,312.199 232.844,309.999 222.000 C 309.754 220.790,309.455 219.035,309.336 218.100 C 309.217 217.165,308.958 216.400,308.760 216.400 C 308.562 216.400,308.400 215.781,308.400 215.024 C 308.400 214.267,308.220 213.536,308.000 213.400 C 307.780 213.264,307.600 212.533,307.600 211.776 C 307.600 211.019,307.420 210.400,307.200 210.400 C 306.980 210.400,306.800 209.871,306.800 209.224 C 306.800 208.577,306.620 207.936,306.400 207.800 C 306.180 207.664,306.000 207.124,306.000 206.600 C 306.000 206.076,305.820 205.536,305.600 205.400 C 305.380 205.264,305.200 204.713,305.200 204.176 C 305.200 203.639,305.059 203.200,304.887 203.200 C 304.715 203.200,304.325 202.345,304.020 201.300 C 303.715 200.255,303.326 199.130,303.154 198.800 C 302.983 198.470,301.494 195.410,299.844 192.000 C 296.084 184.228,292.674 178.418,289.783 174.854 C 289.491 174.494,288.584 173.300,287.768 172.200 C 283.643 166.643,276.771 159.235,272.000 155.202 C 270.570 153.994,269.310 152.910,269.200 152.794 C 269.090 152.677,267.925 151.686,266.610 150.591 C 263.582 148.068,257.625 142.114,256.137 140.122 C 255.512 139.285,254.661 138.241,254.246 137.800 C 251.752 135.154,243.600 121.045,243.600 119.375 C 243.600 119.059,243.420 118.800,243.200 118.800 C 242.980 118.800,242.800 118.438,242.800 117.995 C 242.800 117.552,242.620 116.832,242.400 116.395 C 242.180 115.958,241.820 115.242,241.600 114.805 C 241.380 114.368,241.200 113.659,241.200 113.229 C 241.200 112.799,241.020 112.336,240.800 112.200 C 240.580 112.064,240.400 111.423,240.400 110.776 C 240.400 110.129,240.220 109.600,240.000 109.600 C 239.780 109.600,239.600 109.006,239.600 108.280 C 239.600 107.554,239.438 106.789,239.241 106.580 C 239.044 106.371,238.779 105.480,238.653 104.600 C 238.526 103.720,238.230 101.830,237.995 100.400 C 237.759 98.970,237.466 96.225,237.343 94.300 C 237.221 92.375,237.003 90.819,236.860 90.843 C 236.717 90.866,236.060 91.070,235.400 91.296 M224.697 212.305 C 202.974 234.032,185.200 252.002,185.200 252.238 C 185.200 253.703,193.189 259.672,199.988 263.286 C 205.047 265.977,215.704 268.863,220.143 268.746 C 221.926 268.699,221.720 268.627,218.600 268.208 C 216.620 267.943,214.460 267.597,213.800 267.440 C 213.140 267.283,211.790 266.968,210.800 266.740 C 209.810 266.512,208.640 266.181,208.200 266.003 C 207.760 265.826,206.770 265.464,206.000 265.200 C 199.736 263.049,192.534 258.775,187.900 254.460 C 185.443 252.172,185.350 252.456,190.105 247.732 C 192.357 245.495,208.097 229.745,225.083 212.732 C 265.898 171.853,264.126 173.602,264.718 173.601 C 266.304 173.598,272.405 181.959,275.516 188.400 C 292.176 222.890,269.998 263.191,231.600 268.200 C 227.967 268.674,227.905 268.698,230.200 268.744 C 248.435 269.113,270.977 251.966,277.980 232.400 C 278.255 231.630,278.622 230.640,278.795 230.200 C 281.127 224.258,282.237 212.797,281.188 205.477 C 280.655 201.757,279.552 196.930,278.795 195.000 C 278.622 194.560,278.255 193.570,277.980 192.800 C 276.388 188.352,272.268 181.050,269.290 177.400 C 267.271 174.924,265.140 172.800,264.675 172.800 C 264.411 172.800,246.421 190.577,224.697 212.305 M94.500 179.635 C 93.345 181.372,92.400 182.975,92.400 183.197 C 92.400 183.419,92.265 183.601,92.100 183.603 C 91.935 183.605,91.598 184.010,91.352 184.503 C 91.106 184.996,89.981 187.184,88.852 189.364 C 87.723 191.544,86.800 193.389,86.800 193.464 C 86.800 193.539,89.863 193.600,93.608 193.600 L 100.415 193.600 100.185 192.500 C 100.058 191.895,99.772 190.590,99.549 189.600 C 98.578 185.289,97.855 181.576,97.388 178.502 C 97.017 176.060,96.828 176.134,94.500 179.635 M249.882 196.318 C 244.650 201.553,240.497 205.963,240.652 206.118 C 240.807 206.273,247.023 206.400,254.467 206.400 L 268.000 206.400 268.000 205.420 C 268.000 201.121,261.724 186.800,259.840 186.800 C 259.595 186.800,255.113 191.083,249.882 196.318 M240.433 218.987 C 241.957 220.691,259.841 238.400,260.040 238.400 C 261.712 238.400,268.000 223.692,268.000 219.780 L 268.000 218.800 254.133 218.800 C 246.507 218.800,240.342 218.884,240.433 218.987 M208.679 237.521 C 198.206 248.001,198.466 247.554,201.714 249.493 C 206.514 252.358,209.175 253.496,214.093 254.788 C 219.361 256.171,218.800 257.720,218.800 241.800 C 218.800 234.210,218.664 228.000,218.497 228.000 C 218.330 228.000,213.912 232.284,208.679 237.521 M231.200 241.800 L 231.200 255.600 232.180 255.600 C 236.375 255.600,250.800 249.290,250.800 247.455 C 250.800 246.958,231.990 228.000,231.497 228.000 C 231.334 228.000,231.200 234.210,231.200 241.800 M37.800 234.800 C 37.360 234.989,36.560 235.156,36.023 235.172 C 34.888 235.205,28.274 237.208,28.513 237.446 C 28.601 237.535,29.827 237.231,31.237 236.771 C 35.600 235.348,37.945 235.071,45.600 235.071 C 53.442 235.071,57.407 235.598,61.355 237.164 C 61.991 237.416,62.602 237.532,62.713 237.421 C 62.824 237.310,62.574 237.108,62.157 236.972 C 61.741 236.836,60.950 236.575,60.400 236.392 C 59.850 236.209,58.410 235.850,57.200 235.595 C 55.990 235.339,54.349 234.966,53.554 234.765 C 51.740 234.307,38.881 234.336,37.800 234.800 M65.233 238.552 C 65.641 238.924,69.600 240.793,69.600 240.613 C 69.600 240.388,65.780 238.400,65.347 238.400 C 65.193 238.400,65.142 238.468,65.233 238.552 M21.595 240.606 C 21.201 241.081,21.184 242.099,21.517 245.306 L 21.942 249.400 21.779 245.172 C 21.667 242.260,21.763 240.797,22.088 240.472 C 22.348 240.212,22.456 240.000,22.329 240.000 C 22.202 240.000,21.872 240.273,21.595 240.606 M71.600 241.895 C 71.600 242.284,73.214 243.319,73.451 243.082 C 73.547 242.986,73.169 242.610,72.612 242.245 C 72.056 241.880,71.600 241.722,71.600 241.895 M74.000 243.495 C 74.000 243.884,75.614 244.919,75.851 244.682 C 75.947 244.586,75.569 244.210,75.012 243.845 C 74.456 243.480,74.000 243.322,74.000 243.495 M76.943 245.800 C 77.273 246.130,77.663 246.400,77.810 246.400 C 77.956 246.400,78.610 246.780,79.261 247.244 C 79.913 247.708,80.528 248.006,80.627 247.906 C 80.799 247.735,76.975 245.200,76.545 245.200 C 76.434 245.200,76.613 245.470,76.943 245.800 M81.200 248.183 C 81.200 248.324,84.475 249.924,86.600 250.822 C 90.090 252.296,95.370 253.483,99.600 253.745 L 103.000 253.956 99.200 253.431 C 95.279 252.890,92.287 252.302,90.200 251.663 C 88.601 251.173,83.504 249.146,83.000 248.799 C 82.445 248.417,81.200 247.991,81.200 248.183 M125.000 248.964 C 123.900 249.478,121.740 250.304,120.200 250.799 C 116.541 251.974,115.403 252.455,117.000 252.150 C 119.569 251.659,127.200 248.695,127.200 248.188 C 127.200 247.930,127.242 247.915,125.000 248.964 M22.107 255.000 C 22.096 256.980,22.221 259.680,22.385 261.000 L 22.682 263.400 22.699 261.000 C 22.708 259.680,22.583 256.980,22.421 255.000 L 22.127 251.400 22.107 255.000 M112.200 252.800 L 111.400 253.144 112.200 253.125 C 112.640 253.114,113.540 252.968,114.200 252.800 L 115.400 252.495 114.200 252.475 C 113.540 252.465,112.640 252.611,112.200 252.800 M107.400 253.600 L 105.400 253.874 107.200 253.897 C 108.190 253.910,109.450 253.776,110.000 253.600 C 111.244 253.201,110.306 253.201,107.400 253.600 M127.469 257.956 C 127.321 258.695,127.223 260.043,127.251 260.950 C 127.292 262.302,127.363 262.130,127.644 260.000 C 128.017 257.165,127.900 255.799,127.469 257.956 M22.883 271.800 C 22.885 272.680,23.021 274.480,23.185 275.800 L 23.482 278.200 23.501 275.200 C 23.512 273.550,23.376 271.750,23.200 271.200 C 22.927 270.347,22.880 270.435,22.883 271.800 M126.656 272.484 C 126.521 272.988,126.433 274.390,126.460 275.600 C 126.507 277.718,126.520 277.688,126.822 274.801 C 127.145 271.711,127.085 270.882,126.656 272.484 M23.683 285.800 C 23.685 286.680,23.821 288.480,23.985 289.800 L 24.282 292.200 24.301 289.200 C 24.312 287.550,24.176 285.750,24.000 285.200 C 23.727 284.347,23.680 284.435,23.683 285.800 M125.856 286.484 C 125.721 286.988,125.632 288.390,125.657 289.600 C 125.703 291.772,125.708 291.763,126.048 288.830 C 126.395 285.836,126.310 284.792,125.856 286.484 M24.682 302.600 C 24.804 305.020,24.971 307.075,25.052 307.167 C 25.340 307.491,25.101 300.583,24.783 299.400 C 24.600 298.717,24.556 300.096,24.682 302.600 M125.056 300.484 C 124.921 300.988,124.832 302.390,124.857 303.600 C 124.903 305.772,124.908 305.763,125.248 302.830 C 125.595 299.836,125.510 298.792,125.056 300.484 M138.398 308.500 C 138.397 309.655,138.234 311.230,138.037 312.000 C 137.839 312.770,137.570 317.405,137.438 322.300 L 137.198 331.200 164.999 331.200 C 180.290 331.200,192.800 331.050,192.800 330.867 C 192.800 330.684,190.505 328.802,187.700 326.685 C 184.895 324.569,181.800 322.153,180.822 321.318 C 175.578 316.841,170.239 312.119,167.400 309.446 L 164.200 306.434 151.300 306.417 L 138.400 306.400 138.398 308.500 M253.453 307.366 C 245.882 310.537,241.950 318.842,244.436 326.414 C 249.478 341.772,270.482 341.079,274.653 325.417 C 277.823 313.514,264.948 302.552,253.453 307.366 M25.452 317.000 C 25.586 319.200,25.764 321.075,25.848 321.167 C 26.178 321.528,25.921 314.550,25.576 313.800 C 25.342 313.290,25.297 314.448,25.452 317.000 M124.256 314.884 C 124.121 315.388,124.036 317.150,124.066 318.800 L 124.121 321.800 124.409 318.000 C 124.709 314.053,124.673 313.328,124.256 314.884 M26.265 331.000 C 26.392 333.200,26.564 335.075,26.648 335.167 C 26.956 335.504,26.709 328.967,26.377 328.000 C 26.169 327.394,26.125 328.575,26.265 331.000 M123.456 328.884 C 123.321 329.388,123.234 331.150,123.262 332.800 L 123.314 335.800 123.624 332.000 C 123.940 328.124,123.893 327.253,123.456 328.884 M206.673 334.153 C 206.523 334.545,206.411 335.166,206.425 335.533 C 206.442 335.975,206.581 335.874,206.837 335.234 C 207.049 334.703,207.161 334.082,207.085 333.854 C 207.009 333.627,206.824 333.761,206.673 334.153 M27.088 346.000 C 27.211 348.530,27.376 350.675,27.455 350.767 C 27.751 351.107,27.508 343.363,27.193 342.400 C 27.009 341.837,26.964 343.412,27.088 346.000 M122.659 343.488 C 122.521 344.319,122.438 347.160,122.473 349.800 L 122.536 354.600 122.799 348.400 C 123.079 341.814,123.057 341.075,122.659 343.488 M215.053 349.588 C 215.169 349.705,216.553 349.890,218.128 350.000 C 220.595 350.172,221.012 350.311,221.135 351.000 C 221.213 351.440,221.460 351.980,221.684 352.200 C 221.958 352.470,221.996 352.275,221.802 351.600 C 221.336 349.980,220.756 349.685,217.721 349.527 C 216.138 349.444,214.938 349.472,215.053 349.588 M27.879 360.000 C 28.004 362.530,28.173 364.675,28.253 364.767 C 28.555 365.109,28.307 357.360,27.986 356.400 C 27.792 355.821,27.747 357.336,27.879 360.000 M121.859 357.488 C 121.721 358.319,121.636 361.160,121.670 363.800 L 121.731 368.600 122.009 362.400 C 122.300 355.903,122.272 354.986,121.859 357.488 M230.470 366.700 C 231.258 367.525,232.001 368.470,232.120 368.800 C 232.313 369.333,232.339 369.333,232.358 368.800 C 232.378 368.203,229.839 365.200,229.313 365.200 C 229.162 365.200,229.682 365.875,230.470 366.700 M28.670 373.600 C 28.797 375.910,28.968 377.875,29.050 377.967 C 29.356 378.307,29.108 371.363,28.780 370.400 C 28.577 369.803,28.533 371.093,28.670 373.600 M121.059 371.488 C 120.921 372.319,120.832 374.260,120.861 375.800 C 120.909 378.356,120.942 378.236,121.235 374.411 C 121.566 370.076,121.493 368.859,121.059 371.488 M31.462 380.900 C 31.564 381.065,47.612 381.158,67.124 381.107 C 86.636 381.056,98.100 380.967,92.600 380.908 C 66.862 380.635,31.295 380.630,31.462 380.900 " stroke="none" fill="#f4e362" fill-rule="evenodd"></path><path id="path3" d="M238.993 6.389 C 239.126 6.603,239.843 7.068,240.588 7.421 C 241.500 7.854,242.212 8.639,242.771 9.827 C 244.215 12.899,243.954 13.870,240.202 19.400 C 234.421 27.921,229.276 37.617,226.407 45.400 C 225.920 46.720,225.383 48.160,225.213 48.600 C 222.933 54.513,220.704 64.291,219.384 74.175 C 218.778 78.715,218.560 93.607,219.100 93.591 C 222.738 93.488,234.247 91.524,235.667 90.764 C 237.116 89.989,237.600 90.318,237.600 92.079 C 237.600 94.021,238.316 99.950,238.798 102.000 C 238.979 102.770,239.337 104.390,239.593 105.600 C 239.849 106.810,240.205 108.250,240.383 108.800 C 240.561 109.350,240.929 110.610,241.199 111.600 C 241.470 112.590,241.833 113.760,242.007 114.200 C 242.180 114.640,242.730 116.080,243.229 117.400 C 245.237 122.717,250.599 132.350,253.717 136.243 C 259.049 142.902,262.817 146.787,268.600 151.590 C 284.305 164.632,296.688 181.279,303.641 198.700 C 305.972 204.541,306.400 205.740,306.400 206.430 C 306.400 206.827,306.559 207.251,306.752 207.370 C 306.946 207.490,307.201 207.996,307.319 208.494 C 307.438 208.992,307.914 210.840,308.377 212.600 C 311.573 224.731,312.595 233.868,312.271 247.400 C 312.156 252.240,311.856 257.460,311.606 259.000 C 309.949 269.195,309.085 272.893,306.508 280.800 C 305.756 283.110,304.909 285.540,304.626 286.200 C 302.828 290.402,302.813 290.150,304.900 290.806 C 305.835 291.099,306.771 291.488,306.980 291.670 C 307.189 291.851,307.605 292.000,307.905 292.000 C 308.205 292.000,309.564 292.535,310.925 293.190 C 314.466 294.892,315.275 294.909,315.812 293.290 C 316.051 292.570,316.371 292.105,316.523 292.257 C 316.676 292.409,316.800 292.154,316.800 291.690 C 316.800 291.227,316.983 290.734,317.207 290.596 C 317.430 290.458,317.526 290.204,317.419 290.031 C 317.313 289.859,317.484 289.376,317.800 288.959 C 318.116 288.542,318.380 287.806,318.387 287.324 C 318.394 286.842,318.580 286.336,318.800 286.200 C 319.020 286.064,319.200 285.524,319.200 285.000 C 319.200 284.476,319.380 283.936,319.600 283.800 C 319.820 283.664,320.000 283.124,320.000 282.600 C 320.000 282.076,320.180 281.536,320.400 281.400 C 320.620 281.264,320.800 280.533,320.800 279.776 C 320.800 279.019,320.958 278.400,321.151 278.400 C 321.343 278.400,321.497 277.635,321.492 276.700 C 321.487 275.627,321.652 275.037,321.942 275.100 C 322.214 275.159,322.400 274.664,322.400 273.880 C 322.400 273.154,322.625 272.318,322.900 272.021 C 323.306 271.584,323.288 271.542,322.800 271.800 C 322.312 272.058,322.294 272.016,322.700 271.579 C 322.975 271.282,323.200 270.266,323.200 269.320 C 323.200 268.374,323.386 267.600,323.613 267.600 C 323.839 267.600,324.007 267.015,323.985 266.300 C 323.918 264.125,324.868 262.000,325.907 262.000 C 326.190 262.000,327.199 261.235,328.151 260.300 C 329.102 259.365,330.284 258.330,330.778 258.000 C 332.250 257.015,336.126 253.732,338.688 251.300 C 339.210 250.805,339.808 250.400,340.018 250.400 C 340.228 250.400,340.400 250.119,340.400 249.776 C 340.400 249.433,340.567 249.256,340.771 249.382 C 340.975 249.508,341.243 249.294,341.367 248.906 C 341.490 248.517,342.134 247.959,342.798 247.665 C 343.461 247.371,343.903 246.966,343.779 246.765 C 343.654 246.564,343.761 246.400,344.016 246.400 C 344.271 246.400,344.983 245.860,345.600 245.200 C 346.217 244.540,347.019 244.000,347.384 244.000 C 347.749 244.000,347.936 243.820,347.800 243.600 C 347.664 243.380,347.749 243.200,347.990 243.200 C 348.230 243.200,349.041 242.615,349.792 241.900 C 350.542 241.185,351.391 240.397,351.678 240.149 C 353.086 238.931,358.798 232.788,358.892 232.392 C 358.952 232.142,360.035 230.851,361.300 229.523 C 362.565 228.195,363.600 226.932,363.600 226.715 C 363.600 226.498,364.140 225.817,364.800 225.200 C 365.460 224.583,366.000 223.977,366.000 223.851 C 366.000 223.420,368.555 220.000,368.877 220.000 C 369.055 220.000,369.200 219.730,369.200 219.400 C 369.200 219.070,369.336 218.800,369.502 218.800 C 369.669 218.800,370.064 218.215,370.380 217.500 C 370.697 216.785,371.280 215.851,371.678 215.425 C 372.075 214.998,372.400 214.413,372.400 214.125 C 372.400 213.836,372.591 213.600,372.824 213.600 C 373.057 213.600,373.155 213.450,373.041 213.267 C 372.928 213.084,373.276 212.285,373.815 211.492 C 374.419 210.604,374.693 209.786,374.529 209.360 C 374.349 208.890,374.414 208.761,374.732 208.958 C 375.031 209.143,375.200 208.951,375.200 208.424 C 375.200 207.971,375.346 207.600,375.525 207.600 C 375.704 207.600,376.098 206.970,376.400 206.200 C 376.702 205.430,377.096 204.800,377.275 204.800 C 377.454 204.800,377.600 204.350,377.600 203.800 C 377.600 203.250,377.780 202.800,378.000 202.800 C 378.220 202.800,378.400 202.440,378.400 202.000 C 378.400 201.560,378.580 201.200,378.800 201.200 C 379.020 201.200,379.200 200.750,379.200 200.200 C 379.200 199.650,379.380 199.200,379.600 199.200 C 379.820 199.200,380.000 198.750,380.000 198.200 C 380.000 197.650,380.180 197.200,380.400 197.200 C 380.620 197.200,380.800 196.660,380.800 196.000 C 380.800 195.340,380.980 194.800,381.200 194.800 C 381.420 194.800,381.600 194.339,381.600 193.776 C 381.600 193.213,381.750 192.845,381.933 192.959 C 382.117 193.072,382.267 192.906,382.267 192.590 C 382.267 191.988,383.060 189.169,383.615 187.800 C 383.962 186.945,384.324 185.403,384.672 183.300 C 384.791 182.585,385.013 182.000,385.166 182.000 C 385.318 182.000,385.488 181.251,385.542 180.336 C 385.596 179.421,385.811 178.353,386.020 177.963 C 386.229 177.572,386.400 176.510,386.400 175.603 C 386.400 174.695,386.552 174.047,386.737 174.161 C 386.923 174.276,387.114 173.175,387.161 171.715 C 387.208 170.255,387.412 168.751,387.615 168.373 C 388.104 167.458,388.064 143.600,387.573 143.600 C 387.368 143.600,387.200 142.441,387.200 141.024 C 387.200 139.607,387.020 138.336,386.800 138.200 C 386.580 138.064,386.400 137.233,386.400 136.353 C 386.400 135.388,386.241 134.851,386.000 135.000 C 385.760 135.148,385.600 134.631,385.600 133.704 C 385.600 132.855,385.433 131.989,385.229 131.780 C 385.025 131.571,384.775 130.860,384.673 130.200 C 384.416 128.530,383.957 127.200,383.638 127.200 C 383.491 127.200,383.326 126.615,383.272 125.900 C 383.219 125.185,383.000 124.540,382.787 124.467 C 382.574 124.393,382.400 123.898,382.400 123.367 C 382.400 122.835,382.220 122.400,382.000 122.400 C 381.780 122.400,381.600 122.040,381.600 121.600 C 381.600 121.160,381.420 120.800,381.200 120.800 C 380.980 120.800,380.800 120.445,380.800 120.012 C 380.800 119.579,380.440 118.583,380.000 117.800 C 379.560 117.017,379.200 116.111,379.200 115.788 C 379.200 115.465,379.020 115.200,378.800 115.200 C 378.580 115.200,378.400 114.840,378.400 114.400 C 378.400 113.960,378.220 113.600,378.000 113.600 C 377.780 113.600,377.600 113.330,377.600 113.000 C 377.600 112.670,377.420 112.400,377.200 112.400 C 376.980 112.400,376.800 112.119,376.800 111.776 C 376.800 111.433,376.620 111.264,376.400 111.400 C 376.180 111.536,376.000 111.394,376.000 111.085 C 376.000 110.336,375.009 108.385,374.118 107.379 C 373.723 106.933,373.349 106.332,373.286 106.042 C 373.223 105.752,372.914 105.257,372.600 104.943 C 372.285 104.628,371.713 103.837,371.328 103.185 C 370.943 102.533,370.486 102.000,370.314 102.000 C 370.141 102.000,370.000 101.775,370.000 101.500 C 369.999 100.853,368.236 98.800,367.680 98.800 C 367.446 98.800,367.140 98.440,367.000 98.000 C 366.860 97.560,366.578 97.200,366.373 97.200 C 366.168 97.200,366.000 96.962,366.000 96.672 C 366.000 96.073,364.213 94.400,363.573 94.400 C 363.342 94.400,363.251 94.240,363.372 94.045 C 363.644 93.605,362.625 92.708,362.263 93.070 C 362.118 93.215,362.000 93.045,362.000 92.694 C 362.000 92.342,361.657 91.945,361.237 91.812 C 360.817 91.679,360.373 91.306,360.250 90.985 C 360.126 90.663,359.836 90.400,359.605 90.400 C 359.375 90.400,358.574 89.770,357.826 89.000 C 357.079 88.230,356.576 87.600,356.710 87.600 C 357.328 87.600,355.314 86.424,354.676 86.413 C 354.278 86.406,354.040 86.259,354.146 86.087 C 354.253 85.915,353.678 85.330,352.870 84.787 C 352.061 84.244,351.051 83.485,350.625 83.100 C 350.198 82.715,349.613 82.400,349.325 82.400 C 349.036 82.400,348.800 82.220,348.800 82.000 C 348.800 81.780,348.519 81.600,348.176 81.600 C 347.807 81.600,347.669 81.412,347.838 81.138 C 348.007 80.864,347.949 80.785,347.694 80.942 C 347.458 81.088,347.025 80.971,346.732 80.681 C 346.233 80.188,344.932 79.512,344.332 79.435 C 344.185 79.416,343.598 78.995,343.029 78.500 C 342.460 78.005,341.798 77.600,341.559 77.600 C 341.319 77.600,340.617 77.239,339.998 76.799 C 339.379 76.358,338.586 76.107,338.236 76.241 C 337.886 76.376,337.600 76.286,337.600 76.043 C 337.600 75.799,337.330 75.600,337.000 75.600 C 336.670 75.600,336.397 75.375,336.394 75.100 C 336.390 74.767,336.258 74.800,336.000 75.200 C 335.742 75.600,335.610 75.633,335.606 75.300 C 335.603 75.025,335.240 74.800,334.800 74.800 C 334.360 74.800,334.000 74.620,334.000 74.400 C 334.000 74.180,333.539 74.000,332.976 74.000 C 332.396 74.000,332.060 73.827,332.200 73.600 C 332.347 73.361,331.863 73.200,331.000 73.200 C 330.137 73.200,329.653 73.039,329.800 72.800 C 329.947 72.561,329.463 72.400,328.600 72.400 C 327.804 72.400,327.247 72.247,327.363 72.060 C 327.478 71.874,327.014 71.705,326.331 71.686 C 325.649 71.666,324.899 71.459,324.665 71.225 C 324.431 70.991,323.657 70.800,322.944 70.800 C 322.231 70.800,321.536 70.620,321.400 70.400 C 321.264 70.180,320.479 70.000,319.656 70.000 C 318.833 70.000,317.989 69.837,317.780 69.637 C 316.830 68.729,288.800 67.928,288.800 68.809 C 288.800 69.024,287.821 69.200,286.624 69.200 C 285.427 69.200,284.336 69.380,284.200 69.600 C 284.064 69.820,283.279 70.000,282.456 70.000 C 281.633 70.000,280.786 70.174,280.573 70.387 C 280.361 70.599,279.617 70.816,278.921 70.869 C 278.225 70.923,277.744 71.109,277.851 71.283 C 277.959 71.457,277.317 71.600,276.424 71.600 C 275.531 71.600,274.800 71.780,274.800 72.000 C 274.800 72.220,274.260 72.400,273.600 72.400 C 272.940 72.400,272.400 72.547,272.400 72.728 C 272.400 72.908,271.500 73.300,270.400 73.600 C 269.300 73.900,268.400 74.292,268.400 74.472 C 268.400 74.653,267.849 74.800,267.176 74.800 C 266.463 74.800,266.056 74.967,266.200 75.200 C 266.336 75.420,266.110 75.600,265.698 75.600 C 264.991 75.600,261.299 77.162,260.000 78.012 C 259.670 78.228,258.635 78.799,257.700 79.282 C 256.765 79.764,256.000 80.304,256.000 80.480 C 256.000 80.656,255.640 80.800,255.200 80.800 C 254.760 80.800,254.400 80.980,254.400 81.200 C 254.400 81.420,254.164 81.600,253.875 81.600 C 253.587 81.600,252.964 81.960,252.492 82.400 C 252.020 82.840,251.536 83.200,251.417 83.200 C 251.040 83.200,251.183 74.578,251.566 74.180 C 251.768 73.971,252.017 72.720,252.121 71.400 C 252.466 67.009,253.554 61.200,254.032 61.200 C 254.209 61.200,254.293 60.881,254.217 60.491 C 254.142 60.100,254.330 59.065,254.634 58.191 C 254.939 57.316,255.191 56.276,255.194 55.881 C 255.197 55.485,255.542 54.453,255.961 53.587 C 256.379 52.721,256.684 51.470,256.638 50.806 C 256.592 50.143,256.671 49.600,256.813 49.600 C 257.142 49.600,258.167 47.511,258.057 47.063 C 257.944 46.597,258.907 44.000,259.193 44.000 C 259.321 44.000,259.466 43.505,259.516 42.900 C 259.566 42.295,259.785 41.740,260.003 41.667 C 260.222 41.593,260.400 41.178,260.400 40.743 C 260.400 40.308,260.580 40.064,260.800 40.200 C 261.028 40.341,261.200 39.996,261.200 39.400 C 261.200 38.804,261.372 38.459,261.600 38.600 C 261.820 38.736,262.000 38.602,262.000 38.303 C 262.000 37.549,262.935 35.607,263.300 35.603 C 263.465 35.601,263.600 35.094,263.600 34.475 C 263.600 33.857,263.960 32.964,264.400 32.492 C 264.840 32.020,265.200 31.446,265.200 31.217 C 265.200 30.988,265.380 30.800,265.600 30.800 C 265.820 30.800,266.000 30.450,266.000 30.023 C 266.000 29.595,266.359 28.994,266.797 28.687 C 267.236 28.380,267.461 27.995,267.298 27.831 C 267.135 27.668,267.286 27.324,267.634 27.067 C 267.983 26.810,268.391 26.105,268.541 25.500 C 268.692 24.895,269.082 24.400,269.408 24.400 C 269.733 24.400,270.000 24.152,270.000 23.849 C 270.000 23.546,270.270 23.074,270.600 22.800 C 270.930 22.526,271.203 22.009,271.207 21.651 C 271.211 21.293,271.660 20.577,272.205 20.059 C 272.751 19.542,273.117 18.990,273.020 18.832 C 272.923 18.675,273.184 18.300,273.600 18.000 C 274.016 17.700,274.266 17.307,274.155 17.127 C 274.044 16.947,274.154 16.800,274.400 16.800 C 274.646 16.800,274.736 16.620,274.600 16.400 C 274.464 16.180,274.538 16.000,274.764 16.000 C 275.021 16.000,275.142 14.666,275.088 12.432 C 274.997 8.749,274.104 6.800,272.507 6.800 C 272.202 6.800,272.064 6.620,272.200 6.400 C 272.363 6.136,266.730 6.000,255.600 6.000 C 244.779 6.000,238.839 6.139,238.993 6.389 M299.741 94.496 C 299.617 94.696,299.895 94.622,300.358 94.333 C 301.033 93.912,301.358 93.906,301.995 94.304 C 302.490 94.613,304.305 94.800,306.818 94.800 C 309.402 94.800,310.759 94.943,310.600 95.200 C 310.448 95.446,311.121 95.600,312.353 95.600 C 313.453 95.600,314.464 95.780,314.600 96.000 C 314.736 96.220,315.567 96.400,316.447 96.400 C 317.412 96.400,317.949 96.559,317.800 96.800 C 317.656 97.033,318.063 97.200,318.776 97.200 C 319.449 97.200,320.000 97.380,320.000 97.600 C 320.000 97.820,320.529 98.000,321.176 98.000 C 321.823 98.000,322.464 98.180,322.600 98.400 C 322.736 98.620,323.287 98.800,323.824 98.800 C 324.361 98.800,324.800 98.980,324.800 99.200 C 324.800 99.420,325.160 99.600,325.600 99.600 C 326.040 99.600,326.400 99.791,326.400 100.024 C 326.400 100.257,326.568 100.344,326.772 100.217 C 326.977 100.091,327.251 100.158,327.380 100.368 C 327.641 100.789,329.927 102.000,330.461 102.000 C 330.648 102.000,331.160 102.360,331.600 102.800 C 332.040 103.240,332.681 103.600,333.024 103.600 C 333.367 103.600,333.536 103.780,333.400 104.000 C 333.264 104.220,333.523 104.400,333.976 104.400 C 334.429 104.400,334.800 104.580,334.800 104.800 C 334.800 105.020,335.070 105.200,335.400 105.200 C 335.730 105.200,336.004 105.335,336.009 105.500 C 336.014 105.665,336.823 106.340,337.808 107.000 C 338.793 107.660,339.599 108.335,339.599 108.500 C 339.600 108.665,339.865 108.800,340.189 108.800 C 340.877 108.800,344.432 112.234,344.095 112.572 C 343.969 112.697,344.197 112.800,344.600 112.800 C 345.003 112.800,345.222 112.911,345.086 113.048 C 344.776 113.358,345.785 114.400,346.395 114.400 C 346.644 114.400,346.736 114.580,346.600 114.800 C 346.464 115.020,346.623 115.200,346.953 115.200 C 347.351 115.200,347.499 115.488,347.390 116.054 C 347.299 116.524,347.320 116.813,347.437 116.697 C 347.700 116.433,349.600 118.296,349.600 118.818 C 349.600 119.028,349.810 119.200,350.067 119.200 C 350.323 119.200,350.424 119.309,350.291 119.443 C 350.058 119.675,350.269 120.009,351.600 121.519 C 351.930 121.894,352.543 122.875,352.963 123.700 C 353.383 124.525,353.878 125.200,354.063 125.200 C 354.248 125.200,354.400 125.560,354.400 126.000 C 354.400 126.440,354.580 126.800,354.800 126.800 C 355.020 126.800,355.200 127.160,355.200 127.600 C 355.200 128.040,355.380 128.400,355.600 128.400 C 355.820 128.400,356.000 128.760,356.000 129.200 C 356.000 129.640,356.180 130.000,356.400 130.000 C 356.620 130.000,356.800 130.551,356.800 131.224 C 356.800 131.937,356.967 132.344,357.200 132.200 C 357.427 132.060,357.600 132.396,357.600 132.976 C 357.600 133.539,357.780 134.000,358.000 134.000 C 358.220 134.000,358.400 134.551,358.400 135.224 C 358.400 135.937,358.567 136.344,358.800 136.200 C 359.037 136.054,359.200 136.507,359.200 137.310 C 359.200 138.056,359.325 138.792,359.478 138.945 C 359.631 139.098,359.811 139.533,359.878 139.912 C 359.944 140.290,360.188 141.680,360.420 143.000 C 361.121 146.991,361.506 150.874,361.284 151.723 C 361.157 152.208,361.235 152.426,361.481 152.274 C 361.728 152.121,361.839 152.449,361.762 153.111 C 361.470 155.661,361.480 157.483,361.791 157.985 C 361.987 158.303,361.969 158.428,361.747 158.291 C 361.523 158.152,361.333 159.696,361.277 162.097 C 361.226 164.319,360.991 166.370,360.755 166.655 C 360.518 166.940,360.386 168.167,360.462 169.383 C 360.549 170.770,360.432 171.656,360.150 171.764 C 359.902 171.859,359.572 173.301,359.416 174.968 C 359.260 176.636,358.967 178.000,358.766 178.000 C 358.565 178.000,358.400 178.619,358.400 179.376 C 358.400 180.133,358.220 180.864,358.000 181.000 C 357.780 181.136,357.600 181.687,357.600 182.224 C 357.600 182.761,357.420 183.200,357.200 183.200 C 356.980 183.200,356.800 183.740,356.800 184.400 C 356.800 185.060,356.620 185.600,356.400 185.600 C 356.180 185.600,356.000 186.140,356.000 186.800 C 356.000 187.460,355.820 188.000,355.600 188.000 C 355.380 188.000,355.200 188.360,355.200 188.800 C 355.200 189.240,355.020 189.600,354.800 189.600 C 354.580 189.600,354.400 190.050,354.400 190.600 C 354.400 191.150,354.220 191.600,354.000 191.600 C 353.780 191.600,353.600 192.050,353.600 192.600 C 353.600 193.150,353.465 193.601,353.300 193.603 C 352.935 193.607,352.000 195.549,352.000 196.303 C 352.000 196.602,351.820 196.736,351.600 196.600 C 351.380 196.464,351.200 196.723,351.200 197.176 C 351.200 197.629,351.041 198.000,350.847 198.000 C 350.652 198.000,350.393 198.315,350.271 198.700 C 349.983 199.609,348.788 201.553,347.900 202.558 C 347.515 202.994,347.200 203.688,347.200 204.099 C 347.200 204.511,347.020 204.736,346.800 204.600 C 346.580 204.464,346.400 204.644,346.400 205.000 C 346.400 205.387,346.215 205.533,345.938 205.362 C 345.664 205.193,345.585 205.251,345.742 205.506 C 345.888 205.742,345.723 206.220,345.375 206.568 C 345.027 206.915,344.859 207.200,345.000 207.200 C 345.141 207.200,344.973 207.485,344.625 207.832 C 344.277 208.180,344.113 208.675,344.260 208.932 C 344.408 209.190,344.388 209.274,344.217 209.119 C 343.911 208.844,342.800 209.692,342.800 210.200 C 342.800 210.663,341.701 211.568,341.448 211.314 C 341.311 211.178,341.200 211.577,341.200 212.200 C 341.200 212.823,341.085 213.218,340.944 213.077 C 340.666 212.799,338.000 215.538,338.000 216.102 C 338.000 216.292,337.865 216.372,337.700 216.280 C 337.304 216.059,334.785 218.652,335.094 218.961 C 335.226 219.092,335.115 219.200,334.847 219.200 C 334.580 219.200,333.119 220.460,331.600 222.000 C 330.081 223.540,328.650 224.800,328.419 224.800 C 328.189 224.800,328.000 224.951,328.000 225.136 C 328.000 225.320,327.540 225.681,326.977 225.937 C 326.367 226.216,326.069 226.589,326.239 226.864 C 326.407 227.135,326.348 227.215,326.096 227.059 C 325.861 226.914,325.577 227.021,325.465 227.298 C 325.104 228.188,324.432 226.742,324.665 225.576 C 324.805 224.877,324.685 224.441,324.314 224.299 C 323.897 224.139,323.782 223.461,323.870 221.682 C 323.953 220.005,323.834 219.222,323.475 219.084 C 323.142 218.956,322.988 218.236,323.038 217.041 C 323.080 216.025,322.954 215.095,322.758 214.974 C 322.561 214.852,322.397 214.358,322.394 213.876 C 322.391 213.394,322.124 212.242,321.801 211.315 C 321.478 210.388,321.320 209.353,321.450 209.015 C 321.579 208.677,321.486 208.400,321.243 208.400 C 320.999 208.400,320.800 207.860,320.800 207.200 C 320.800 206.540,320.620 206.000,320.400 206.000 C 320.180 206.000,320.000 205.475,320.000 204.833 C 320.000 204.192,319.809 203.603,319.576 203.525 C 319.343 203.448,319.135 202.803,319.115 202.092 C 319.095 201.381,318.926 200.800,318.739 200.800 C 318.553 200.800,318.400 200.451,318.400 200.024 C 318.400 199.597,318.220 199.136,318.000 199.000 C 317.780 198.864,317.597 198.178,317.594 197.476 C 317.589 196.505,317.495 196.343,317.200 196.800 C 316.896 197.271,316.811 197.173,316.806 196.346 C 316.803 195.766,316.539 194.789,316.220 194.174 C 315.902 193.560,315.751 192.864,315.885 192.629 C 316.019 192.393,315.982 192.332,315.804 192.494 C 315.377 192.880,314.400 190.973,314.400 189.754 C 314.400 189.229,314.220 188.800,314.000 188.800 C 313.780 188.800,313.600 188.517,313.600 188.171 C 313.600 187.826,313.328 187.271,312.996 186.939 C 312.664 186.607,312.495 186.170,312.620 185.968 C 312.745 185.765,312.701 185.600,312.521 185.600 C 312.200 185.600,311.218 183.696,311.225 183.086 C 311.227 182.913,310.950 182.493,310.611 182.153 C 310.271 181.814,310.095 181.370,310.220 181.168 C 310.345 180.965,310.257 180.800,310.024 180.800 C 309.791 180.800,309.600 180.564,309.600 180.275 C 309.600 179.987,309.240 179.364,308.800 178.892 C 308.360 178.420,308.000 177.750,308.000 177.404 C 308.000 177.058,307.731 176.672,307.402 176.546 C 307.074 176.419,306.897 176.167,307.010 175.984 C 307.123 175.801,306.754 175.190,306.189 174.626 C 305.625 174.062,305.365 173.600,305.610 173.600 C 305.861 173.600,305.780 173.323,305.425 172.968 C 305.077 172.620,304.865 172.215,304.954 172.068 C 305.043 171.920,304.865 171.568,304.558 171.284 C 304.251 171.001,303.998 170.911,303.995 171.084 C 303.993 171.258,303.550 170.629,303.011 169.688 C 302.473 168.746,301.755 167.698,301.416 167.359 C 301.077 167.020,300.800 166.584,300.800 166.390 C 300.800 166.195,300.354 165.590,299.809 165.045 C 299.264 164.500,298.769 163.827,298.709 163.548 C 298.598 163.034,297.469 161.751,293.700 157.856 C 292.545 156.662,291.600 155.461,291.600 155.188 C 291.600 154.914,290.970 154.152,290.200 153.494 C 289.430 152.836,288.800 152.051,288.800 151.749 C 288.800 151.447,288.648 151.200,288.461 151.200 C 287.944 151.200,286.400 149.762,286.400 149.280 C 286.400 149.046,286.040 148.740,285.600 148.600 C 285.160 148.460,284.800 148.168,284.800 147.949 C 284.800 147.731,284.620 147.664,284.400 147.800 C 284.180 147.936,284.000 147.787,284.000 147.470 C 284.000 147.152,283.514 146.574,282.921 146.185 C 282.327 145.796,281.429 145.100,280.925 144.639 C 280.421 144.177,279.563 143.395,279.019 142.900 C 278.474 142.405,277.850 142.000,277.632 142.000 C 277.414 142.000,276.472 141.202,275.538 140.226 C 274.604 139.250,273.717 138.528,273.566 138.621 C 273.416 138.714,273.071 138.254,272.800 137.600 C 272.529 136.946,272.167 136.497,271.995 136.603 C 271.824 136.709,271.581 136.526,271.454 136.198 C 271.328 135.869,270.949 135.600,270.613 135.600 C 270.276 135.600,270.000 135.324,270.000 134.987 C 270.000 134.650,269.595 134.211,269.100 134.012 C 268.605 133.813,268.438 133.639,268.729 133.625 C 269.382 133.594,268.310 132.400,267.629 132.400 C 267.393 132.400,267.200 132.223,267.200 132.007 C 267.200 131.791,266.570 130.966,265.800 130.173 C 265.030 129.380,264.400 128.466,264.400 128.142 C 264.400 127.818,264.220 127.664,264.000 127.800 C 263.780 127.936,263.600 127.716,263.600 127.312 C 263.600 126.907,263.240 126.317,262.800 126.000 C 262.360 125.683,262.000 125.143,262.000 124.800 C 262.000 124.457,261.640 123.917,261.200 123.600 C 260.760 123.283,260.400 122.703,260.400 122.312 C 260.400 121.920,260.220 121.600,260.000 121.600 C 259.780 121.600,259.600 121.280,259.600 120.888 C 259.600 120.497,259.240 119.917,258.801 119.601 C 258.302 119.241,258.087 118.757,258.228 118.312 C 258.375 117.849,258.248 117.600,257.864 117.600 C 257.472 117.600,257.345 117.333,257.484 116.800 C 257.601 116.353,257.496 116.000,257.247 116.000 C 257.001 116.000,256.800 115.662,256.800 115.249 C 256.800 114.836,256.530 114.274,256.200 114.000 C 255.465 113.390,255.422 112.800,256.112 112.800 C 256.393 112.800,256.883 112.440,257.200 112.000 C 257.517 111.560,257.967 111.200,258.200 111.200 C 258.433 111.200,258.883 110.840,259.200 110.400 C 259.517 109.960,260.097 109.600,260.488 109.600 C 260.880 109.600,261.200 109.442,261.200 109.249 C 261.200 109.055,261.705 108.688,262.321 108.433 C 262.938 108.177,263.920 107.525,264.504 106.984 C 265.087 106.443,265.702 106.000,265.870 106.000 C 266.037 106.000,266.571 105.538,267.057 104.974 C 267.542 104.409,268.040 103.954,268.165 103.963 C 268.565 103.990,269.793 103.467,270.000 103.182 C 270.110 103.030,271.010 102.500,272.000 102.004 C 272.990 101.508,274.204 100.900,274.697 100.651 C 275.190 100.403,275.595 100.065,275.597 99.900 C 275.599 99.735,275.949 99.600,276.376 99.600 C 276.803 99.600,277.264 99.420,277.400 99.200 C 277.536 98.980,277.997 98.800,278.424 98.800 C 278.851 98.800,279.203 98.575,279.206 98.300 C 279.210 97.967,279.342 98.000,279.600 98.400 C 279.858 98.800,279.990 98.833,279.994 98.500 C 279.997 98.225,280.349 98.000,280.776 98.000 C 281.203 98.000,281.664 97.820,281.800 97.600 C 281.936 97.380,282.566 97.200,283.200 97.200 C 283.834 97.200,284.464 97.020,284.600 96.800 C 284.736 96.580,285.366 96.400,286.000 96.400 C 286.634 96.400,287.264 96.220,287.400 96.000 C 287.536 95.780,288.436 95.600,289.400 95.600 C 290.364 95.600,291.264 95.420,291.400 95.200 C 291.537 94.979,293.345 94.800,295.447 94.800 C 297.537 94.800,299.155 94.650,299.041 94.467 C 298.928 94.283,299.089 94.133,299.400 94.133 C 299.711 94.133,299.864 94.297,299.741 94.496 M93.100 158.214 C 91.971 159.187,91.608 159.877,92.500 159.354 C 92.775 159.193,92.235 159.791,91.300 160.684 C 90.365 161.577,89.600 162.572,89.600 162.895 C 89.600 163.219,89.083 163.915,88.451 164.442 C 87.081 165.585,85.133 168.369,85.401 168.802 C 85.506 168.971,85.233 169.203,84.796 169.317 C 84.358 169.431,84.000 169.812,84.000 170.163 C 84.000 170.513,83.809 170.800,83.576 170.800 C 83.343 170.800,83.264 170.980,83.400 171.200 C 83.536 171.420,83.446 171.600,83.200 171.600 C 82.954 171.600,82.864 171.780,83.000 172.000 C 83.136 172.220,83.074 172.400,82.863 172.400 C 82.651 172.400,82.290 172.940,82.060 173.600 C 81.830 174.260,81.452 174.800,81.221 174.800 C 80.989 174.800,80.800 174.988,80.800 175.217 C 80.800 175.446,80.440 176.020,80.000 176.492 C 79.560 176.964,79.200 177.677,79.200 178.075 C 79.200 178.474,79.020 178.800,78.800 178.800 C 78.580 178.800,78.400 179.070,78.400 179.400 C 78.400 179.730,78.220 180.000,78.000 180.000 C 77.780 180.000,77.600 180.456,77.600 181.013 C 77.600 181.569,77.331 182.128,77.002 182.254 C 76.674 182.381,76.504 182.645,76.626 182.842 C 76.748 183.039,76.665 183.200,76.442 183.200 C 76.219 183.200,75.921 183.814,75.780 184.565 C 75.639 185.316,75.181 186.299,74.762 186.749 C 74.343 187.199,74.000 187.833,74.000 188.160 C 74.000 188.486,73.820 188.864,73.600 189.000 C 73.380 189.136,73.200 189.687,73.200 190.224 C 73.200 190.761,73.020 191.200,72.800 191.200 C 72.580 191.200,72.400 191.560,72.400 192.000 C 72.400 192.440,72.175 192.805,71.900 192.812 C 71.614 192.819,71.692 192.995,72.082 193.222 C 72.482 193.455,75.534 193.574,79.463 193.510 L 86.162 193.400 86.960 191.800 C 88.990 187.730,92.349 181.882,94.525 178.631 L 96.914 175.061 96.228 169.631 C 94.578 156.559,94.662 156.867,93.100 158.214 M136.637 332.543 C 136.499 333.281,136.205 337.376,135.985 341.643 C 135.765 345.909,135.384 353.000,135.137 357.400 C 134.891 361.800,134.670 366.210,134.645 367.200 L 134.600 369.000 183.100 369.102 C 219.251 369.177,231.600 369.087,231.600 368.746 C 231.600 368.495,230.925 367.535,230.100 366.612 C 226.743 362.858,224.656 359.701,222.557 355.200 C 221.993 353.990,221.367 352.687,221.166 352.305 C 220.965 351.923,220.800 351.358,220.800 351.048 C 220.800 350.268,219.909 350.001,217.267 349.991 C 212.361 349.972,206.090 344.246,205.984 339.688 C 205.974 339.248,203.793 337.597,199.923 335.100 L 193.879 331.200 165.384 331.200 L 136.889 331.200 136.637 332.543 " stroke="none" fill="#dcecfb" fill-rule="evenodd"></path><path id="path4" d="M91.200 6.400 C 91.200 6.620,91.065 6.779,90.900 6.753 C 89.996 6.610,89.185 6.852,89.400 7.200 C 89.536 7.420,89.337 7.600,88.957 7.600 C 88.577 7.600,88.379 7.712,88.516 7.850 C 88.654 7.987,88.397 8.398,87.945 8.764 C 86.100 10.258,87.135 16.899,89.410 18.166 C 89.838 18.405,90.497 18.932,90.873 19.337 C 91.250 19.742,91.735 19.964,91.951 19.830 C 92.168 19.696,92.458 19.770,92.596 19.993 C 92.734 20.217,92.612 20.411,92.324 20.425 C 92.036 20.439,92.250 20.647,92.800 20.888 C 93.350 21.128,93.948 21.292,94.130 21.253 C 94.311 21.213,94.358 21.344,94.234 21.545 C 94.110 21.745,94.311 22.155,94.681 22.455 C 95.132 22.820,95.255 22.837,95.056 22.505 C 94.854 22.168,94.957 22.085,95.377 22.246 C 95.717 22.377,95.896 22.645,95.774 22.842 C 95.652 23.039,95.719 23.200,95.922 23.200 C 96.125 23.200,96.797 23.695,97.415 24.300 C 98.033 24.905,98.417 25.192,98.269 24.937 C 98.065 24.588,98.236 24.587,98.965 24.931 C 99.497 25.182,99.846 25.525,99.742 25.693 C 99.638 25.862,99.833 26.000,100.176 26.000 C 100.519 26.000,100.800 26.180,100.800 26.400 C 100.800 26.620,101.115 26.803,101.500 26.806 C 102.098 26.811,102.113 26.869,101.600 27.200 C 101.115 27.514,101.172 27.589,101.900 27.594 C 102.395 27.597,102.800 27.780,102.800 28.000 C 102.800 28.220,103.010 28.400,103.266 28.400 C 103.523 28.400,104.018 28.666,104.366 28.991 C 104.715 29.316,105.487 30.036,106.082 30.591 C 106.677 31.146,107.352 31.600,107.582 31.600 C 107.812 31.600,108.000 31.791,108.000 32.024 C 108.000 32.257,108.171 32.342,108.380 32.212 C 108.589 32.083,108.978 32.388,109.245 32.889 C 109.945 34.203,110.916 34.856,111.291 34.266 C 111.469 33.986,111.590 34.169,111.594 34.724 C 111.597 35.232,111.769 35.543,111.975 35.415 C 112.182 35.288,112.497 35.412,112.675 35.692 C 112.854 35.971,113.360 36.408,113.800 36.663 C 114.240 36.917,114.572 37.277,114.538 37.463 C 114.459 37.896,115.280 38.651,115.800 38.622 C 116.020 38.610,116.378 39.005,116.595 39.500 C 116.812 39.995,117.307 40.400,117.695 40.400 C 118.083 40.400,118.400 40.604,118.400 40.853 C 118.400 41.102,118.727 41.597,119.128 41.953 C 119.528 42.309,119.972 42.915,120.115 43.300 C 120.258 43.685,120.607 44.000,120.890 44.000 C 121.173 44.000,121.644 44.541,121.937 45.202 C 122.230 45.864,122.634 46.303,122.835 46.179 C 123.036 46.054,123.200 46.394,123.200 46.934 C 123.200 47.473,123.462 48.015,123.782 48.138 C 124.102 48.261,124.758 49.134,125.240 50.079 C 125.722 51.024,126.406 52.036,126.758 52.328 C 127.262 52.745,127.271 52.803,126.800 52.599 C 126.470 52.456,126.630 52.717,127.157 53.180 C 127.683 53.642,127.995 54.138,127.851 54.282 C 127.707 54.427,128.086 55.080,128.694 55.734 C 129.302 56.388,129.592 56.806,129.337 56.661 C 129.030 56.487,128.945 56.667,129.083 57.195 C 129.197 57.633,129.450 57.892,129.645 57.772 C 129.840 57.651,130.000 57.762,130.000 58.018 C 130.000 58.274,130.444 59.367,130.986 60.446 C 131.533 61.535,131.859 62.703,131.718 63.070 C 131.548 63.514,131.618 63.636,131.932 63.442 C 132.209 63.271,132.420 63.408,132.450 63.776 C 132.519 64.631,132.672 65.117,133.633 67.519 C 133.835 68.024,134.000 68.969,134.000 69.619 C 134.000 70.268,134.180 70.800,134.400 70.800 C 134.620 70.800,134.800 71.124,134.800 71.520 C 134.800 71.916,135.025 72.482,135.300 72.779 C 135.700 73.210,135.700 73.261,135.300 73.035 C 135.025 72.880,134.800 72.928,134.800 73.143 C 134.800 73.358,134.965 73.593,135.167 73.667 C 135.369 73.740,135.579 74.700,135.634 75.800 C 135.689 76.900,135.876 77.989,136.050 78.221 C 136.224 78.452,136.398 80.031,136.438 81.731 C 136.477 83.430,136.665 84.917,136.856 85.034 C 137.047 85.153,137.031 85.568,136.820 85.963 C 136.561 86.447,136.592 86.845,136.919 87.197 C 137.295 87.604,137.291 87.656,136.900 87.435 C 136.625 87.280,136.400 87.307,136.400 87.496 C 136.400 87.685,136.625 88.082,136.900 88.379 C 137.175 88.675,137.204 88.809,136.966 88.676 C 136.666 88.509,136.506 89.823,136.451 92.893 C 136.407 95.346,136.231 97.543,136.060 97.776 C 135.889 98.009,135.698 98.920,135.636 99.800 C 135.573 100.680,135.416 101.572,135.287 101.782 C 135.157 101.992,134.992 102.706,134.920 103.368 C 134.847 104.030,134.611 104.749,134.394 104.966 C 134.177 105.183,134.000 105.828,134.000 106.400 C 134.000 106.972,133.775 107.682,133.500 107.979 C 133.097 108.413,133.105 108.458,133.541 108.209 C 133.886 108.014,133.819 108.305,133.357 109.009 C 132.958 109.618,132.575 110.488,132.506 110.941 C 132.436 111.394,132.159 111.905,131.890 112.077 C 131.620 112.248,131.541 112.391,131.713 112.394 C 131.885 112.397,131.567 113.222,131.006 114.227 C 130.445 115.232,130.081 116.207,130.197 116.395 C 130.313 116.582,130.137 117.006,129.807 117.336 C 129.353 117.790,129.328 117.984,129.704 118.136 C 129.996 118.254,129.912 118.350,129.500 118.368 C 129.115 118.386,128.800 118.591,128.800 118.824 C 128.800 119.057,129.025 119.138,129.300 119.005 C 129.575 118.872,129.395 119.063,128.900 119.430 C 128.405 119.797,128.000 120.351,128.000 120.661 C 128.000 120.971,127.727 121.330,127.393 121.458 C 127.059 121.586,126.810 121.896,126.840 122.146 C 126.982 123.327,126.777 124.183,126.469 123.697 C 126.256 123.363,125.768 123.993,125.009 125.581 C 124.382 126.893,123.718 127.873,123.535 127.760 C 123.351 127.646,123.200 127.769,123.200 128.034 C 123.200 128.299,122.841 128.895,122.403 129.358 C 120.053 131.839,118.480 133.600,118.612 133.600 C 118.695 133.600,118.299 134.095,117.733 134.700 C 117.167 135.305,116.523 135.748,116.303 135.684 C 116.082 135.620,116.006 135.839,116.133 136.171 C 116.261 136.503,116.165 136.898,115.921 137.049 C 115.652 137.215,115.589 137.141,115.762 136.862 C 115.919 136.608,115.857 136.400,115.624 136.400 C 115.391 136.400,115.200 136.604,115.200 136.853 C 115.200 137.367,113.666 138.800,113.115 138.800 C 112.916 138.800,112.845 138.949,112.958 139.131 C 113.070 139.314,112.456 139.899,111.592 140.431 C 110.728 140.964,110.017 141.699,110.011 142.065 C 110.004 142.460,109.724 142.689,109.320 142.629 C 108.946 142.574,108.204 143.047,107.672 143.679 C 107.140 144.311,106.186 145.097,105.552 145.425 C 104.919 145.752,104.400 146.297,104.400 146.634 C 104.400 146.971,104.243 147.150,104.052 147.032 C 103.647 146.782,102.399 147.855,101.756 149.006 C 101.512 149.443,101.152 149.790,100.956 149.778 C 100.436 149.745,99.654 150.550,99.866 150.900 C 99.965 151.065,99.767 151.200,99.424 151.200 C 99.081 151.200,98.800 151.487,98.800 151.837 C 98.800 152.188,98.430 152.572,97.977 152.690 C 97.477 152.821,97.239 153.125,97.371 153.468 C 97.492 153.784,97.283 154.134,96.893 154.267 C 95.041 154.899,94.089 156.799,94.641 158.760 C 94.926 159.772,95.450 163.120,95.804 166.200 C 96.159 169.280,96.573 172.490,96.725 173.333 L 97.000 174.866 100.382 170.533 C 104.403 165.381,111.601 157.893,116.600 153.659 C 122.690 148.502,123.291 147.952,126.923 144.220 C 136.513 134.366,142.681 123.644,147.183 109.000 C 148.571 104.483,149.992 94.461,149.997 89.149 L 150.000 85.297 151.200 84.849 C 154.181 83.734,154.493 83.655,160.731 82.421 C 163.354 81.903,174.233 81.866,176.523 82.368 C 177.445 82.570,179.280 82.944,180.600 83.199 C 184.533 83.959,188.132 85.189,193.200 87.507 C 201.839 91.456,210.014 93.600,216.440 93.600 L 218.800 93.600 218.800 86.075 C 218.800 73.677,221.399 58.492,225.213 48.600 C 225.383 48.160,225.920 46.720,226.407 45.400 C 229.276 37.617,234.421 27.921,240.202 19.400 C 243.954 13.870,244.215 12.899,242.771 9.827 C 242.212 8.639,241.500 7.854,240.588 7.421 C 239.843 7.068,239.126 6.603,238.993 6.389 C 238.657 5.845,91.200 5.856,91.200 6.400 M256.904 49.419 C 256.589 49.761,256.553 50.048,256.807 50.204 C 257.026 50.340,257.317 50.162,257.452 49.808 C 257.783 48.947,257.514 48.757,256.904 49.419 M253.246 63.267 C 253.221 63.634,253.096 64.264,252.970 64.667 C 252.752 65.362,252.763 65.363,253.197 64.687 C 253.448 64.296,253.573 63.666,253.473 63.287 C 253.311 62.668,253.288 62.666,253.246 63.267 M264.400 128.704 C 264.400 128.871,264.760 129.232,265.200 129.507 C 266.130 130.088,266.254 129.797,265.429 128.971 C 264.798 128.341,264.400 128.237,264.400 128.704 M185.000 132.970 C 184.340 133.267,179.369 137.985,173.953 143.455 C 160.303 157.240,160.263 155.294,174.491 169.475 C 188.536 183.472,186.665 183.458,200.502 169.678 C 214.893 155.347,214.853 157.141,201.083 143.306 C 189.841 132.012,188.727 131.296,185.000 132.970 M276.000 140.704 C 276.000 140.871,276.364 141.235,276.809 141.513 C 277.559 141.981,277.581 141.959,277.113 141.209 C 276.609 140.403,276.000 140.126,276.000 140.704 M361.554 152.100 C 361.376 152.491,361.284 154.449,361.452 154.282 C 361.698 154.036,361.959 152.000,361.745 152.000 C 361.665 152.000,361.579 152.045,361.554 152.100 M291.600 155.417 C 291.600 155.536,291.960 156.020,292.400 156.492 C 293.290 157.447,293.475 156.996,292.643 155.900 C 292.127 155.221,291.600 154.976,291.600 155.417 M89.000 163.200 C 89.136 163.420,88.967 163.600,88.624 163.600 C 88.281 163.600,88.000 163.780,88.000 164.000 C 88.000 164.542,88.536 164.504,89.120 163.920 C 89.713 163.327,89.740 162.800,89.176 162.800 C 88.943 162.800,88.864 162.980,89.000 163.200 M81.281 174.018 C 80.972 174.513,80.946 174.800,81.209 174.800 C 81.438 174.800,81.732 174.522,81.862 174.183 C 82.222 173.245,81.833 173.134,81.281 174.018 M358.893 176.800 C 358.893 177.570,358.975 177.885,359.076 177.500 C 359.176 177.115,359.176 176.485,359.076 176.100 C 358.975 175.715,358.893 176.030,358.893 176.800 M77.092 181.042 C 76.931 181.202,76.800 181.609,76.800 181.947 C 76.800 182.397,76.918 182.442,77.245 182.115 C 77.490 181.870,77.621 181.463,77.537 181.210 C 77.452 180.957,77.252 180.881,77.092 181.042 M8.954 193.694 C 8.708 193.972,8.123 194.465,7.654 194.788 C 7.184 195.112,6.800 195.607,6.800 195.888 C 6.800 196.170,6.620 196.400,6.400 196.400 C 6.145 196.400,6.000 199.600,6.000 205.200 C 6.000 211.970,6.115 214.001,6.500 214.006 C 6.868 214.011,6.857 214.103,6.457 214.356 C 6.079 214.596,6.049 214.783,6.357 214.974 C 6.651 215.155,6.800 217.426,6.800 221.744 C 6.800 225.358,6.970 228.410,7.184 228.624 C 7.395 228.835,7.591 232.020,7.619 235.702 C 7.647 239.384,7.834 242.498,8.035 242.622 C 8.236 242.746,8.400 245.997,8.400 249.847 C 8.400 253.697,8.535 256.764,8.700 256.662 C 8.865 256.560,9.009 259.384,9.019 262.938 C 9.030 266.492,9.173 269.850,9.337 270.400 C 9.501 270.950,9.645 274.190,9.657 277.600 C 9.668 281.010,9.828 283.984,10.012 284.208 C 10.195 284.433,10.387 287.673,10.438 291.408 C 10.489 295.144,10.672 298.295,10.845 298.411 C 11.019 298.528,11.203 301.678,11.255 305.411 C 11.307 309.145,11.494 312.299,11.670 312.421 C 11.847 312.542,12.012 315.828,12.038 319.723 C 12.063 323.618,12.245 326.904,12.442 327.026 C 12.639 327.148,12.800 330.261,12.800 333.944 C 12.800 337.691,12.969 340.809,13.184 341.024 C 13.396 341.236,13.599 344.426,13.637 348.113 C 13.674 351.801,13.861 354.914,14.052 355.032 C 14.244 355.151,14.400 358.387,14.400 362.224 C 14.400 366.608,14.549 369.200,14.800 369.200 C 15.048 369.200,15.200 371.400,15.200 375.000 C 15.200 378.190,15.360 380.800,15.555 380.800 C 15.750 380.800,16.009 381.295,16.130 381.900 C 16.664 384.553,16.960 385.360,17.658 386.058 C 18.066 386.466,18.400 387.081,18.400 387.424 C 18.400 387.767,18.580 387.936,18.800 387.800 C 19.020 387.664,19.200 387.752,19.200 387.995 C 19.200 388.595,21.054 390.412,21.358 390.109 C 21.491 389.976,21.600 390.163,21.600 390.526 C 21.600 390.913,22.054 391.296,22.700 391.454 C 23.305 391.602,23.890 391.830,24.000 391.962 C 24.396 392.434,26.002 393.200,26.595 393.200 C 26.928 393.200,27.200 393.380,27.200 393.600 C 27.200 393.864,43.202 394.000,74.406 394.000 C 121.393 394.000,124.800 393.912,124.800 392.703 C 124.800 392.536,125.070 392.400,125.400 392.400 C 125.730 392.400,126.000 392.243,126.000 392.050 C 126.000 391.858,126.540 391.592,127.200 391.460 C 127.966 391.307,128.400 390.975,128.400 390.543 C 128.400 390.171,128.506 389.973,128.636 390.103 C 128.910 390.377,131.600 387.711,131.600 387.166 C 131.600 386.965,131.780 386.800,132.000 386.800 C 132.220 386.800,132.400 386.530,132.400 386.200 C 132.400 385.870,132.580 385.600,132.800 385.600 C 133.020 385.600,133.200 385.251,133.200 384.824 C 133.200 384.397,133.380 383.936,133.600 383.800 C 133.820 383.664,134.000 382.833,134.000 381.953 C 134.000 381.073,134.163 380.453,134.361 380.576 C 134.568 380.704,134.745 378.476,134.777 375.353 C 134.807 372.357,134.853 369.792,134.879 369.653 C 134.905 369.514,134.785 369.075,134.612 368.678 C 134.439 368.281,134.422 367.111,134.573 366.078 C 134.725 365.045,135.015 360.870,135.217 356.800 C 135.419 352.730,135.775 346.070,136.008 342.000 C 136.516 333.143,137.084 322.013,137.448 313.800 C 137.594 310.500,137.864 307.395,138.047 306.900 L 138.380 306.000 151.490 305.999 C 170.136 305.996,168.800 307.430,168.800 287.411 C 168.800 272.973,168.800 272.971,167.000 270.863 C 165.458 269.057,165.110 269.008,152.400 268.800 L 140.200 268.600 140.285 267.000 C 140.332 266.120,140.563 261.890,140.798 257.600 C 141.033 253.310,141.497 244.490,141.829 238.000 C 142.161 231.510,142.608 223.320,142.822 219.800 C 144.126 198.403,143.908 196.192,140.316 194.355 L 138.600 193.478 112.706 193.711 C 98.464 193.839,86.737 193.821,86.644 193.672 C 86.305 193.122,9.439 193.145,8.954 193.694 M323.692 223.675 C 323.779 223.936,324.064 224.221,324.325 224.308 C 324.618 224.406,324.707 224.223,324.557 223.833 C 324.278 223.106,323.452 222.955,323.692 223.675 M359.506 231.372 C 359.124 231.651,358.921 231.988,359.054 232.121 C 359.187 232.253,359.565 232.092,359.895 231.762 C 360.672 230.985,360.403 230.716,359.506 231.372 M51.830 234.195 C 61.171 235.594,66.373 237.714,75.773 243.953 C 82.006 248.090,84.156 249.180,89.600 250.963 C 100.446 254.515,113.887 253.684,124.600 248.800 C 125.700 248.298,127.074 247.752,127.653 247.585 L 128.706 247.283 128.547 250.741 C 128.459 252.644,128.295 255.730,128.183 257.600 C 128.070 259.470,127.797 264.330,127.576 268.400 C 127.055 277.988,126.470 288.532,126.000 296.800 C 125.606 303.744,125.101 312.749,124.398 325.400 C 124.166 329.580,123.803 336.060,123.593 339.800 C 123.105 348.472,122.540 358.940,122.039 368.600 C 121.488 379.202,121.297 379.877,118.513 381.055 C 116.745 381.804,33.372 381.825,31.235 381.077 C 28.834 380.238,28.374 378.703,27.946 370.097 C 27.467 360.444,27.036 352.503,25.620 327.200 C 25.404 323.350,25.129 318.400,25.009 316.200 C 24.603 308.795,23.984 297.846,23.594 291.200 C 23.381 287.570,23.020 281.000,22.792 276.600 C 22.300 267.106,21.760 257.723,21.169 248.412 C 20.598 239.417,20.370 239.734,29.784 236.437 C 32.725 235.407,34.362 235.029,40.200 234.031 C 43.358 233.492,47.527 233.550,51.830 234.195 M199.707 335.000 C 206.530 339.463,206.000 339.313,206.000 336.781 C 206.000 335.621,206.321 334.097,206.754 333.201 C 207.756 331.126,207.988 331.200,200.482 331.200 L 193.898 331.200 199.707 335.000 " stroke="none" fill="#f0f7fb" fill-rule="evenodd"></path></g></svg>