<?xml version="1.0" standalone="no"?>
<!DOCTYPE svg PUBLIC "-//W3C//DTD SVG 20010904//EN"
 "http://www.w3.org/TR/2001/REC-SVG-20010904/DTD/svg10.dtd">
<svg version="1.0" xmlns="http://www.w3.org/2000/svg"
 width="250" height="250" viewBox="0 0 1920.000000 1152.000000"
 preserveAspectRatio="xMidYMid meet">
<metadata>
Created by potrace 1.16, written by Peter Selinger 2001-2019
</metadata>
<g transform="translate(0.000000,1152.000000) scale(0.100000,-0.100000)"
fill="#000000" stroke="none">
<path d="M9704 8696 c-7 -17 -2 -23 85 -118 113 -122 197 -295 236 -483 17
-81 23 -295 11 -352 -6 -27 -4 -29 41 -41 26 -8 50 -14 53 -15 10 -4 40 141
48 229 24 282 -52 511 -232 694 -56 57 -100 78 -198 95 -30 6 -39 4 -44 -9z"/>
<path d="M10910 8586 c-180 -35 -309 -97 -417 -199 -105 -100 -164 -199 -214
-362 l-19 -60 33 -33 c93 -97 259 -191 385 -217 315 -67 671 84 1038 442 123
120 247 264 236 275 -26 26 -304 106 -482 140 -134 25 -463 33 -560 14z"/>
<path d="M9037 8509 c-84 -8 -337 -55 -346 -64 -15 -16 203 -289 314 -393 192
-180 367 -262 555 -262 129 0 232 35 344 117 l49 35 -7 54 c-3 30 -18 84 -31
121 -113 299 -420 436 -878 392z"/>
<path d="M9844 7572 c-28 -10 -64 -27 -80 -37 -26 -17 -47 -19 -234 -17 -162
2 -232 -1 -335 -17 -734 -110 -1290 -532 -1651 -1251 -206 -410 -304 -821
-304 -1272 0 -481 117 -861 368 -1193 25 -33 99 -113 164 -178 113 -113 119
-121 143 -194 102 -302 286 -515 500 -580 80 -23 256 -24 342 -1 106 29 217
77 304 130 127 76 125 76 265 87 528 42 993 319 1360 813 285 383 468 834 541
1333 23 164 24 518 0 665 -58 355 -185 660 -391 935 -132 177 -298 340 -471
463 -78 55 -91 69 -110 116 -70 171 -244 255 -411 198z"/>
</g>
</svg>
