<svg id="svg" version="1.1" xmlns="http://www.w3.org/2000/svg" xmlns:xlink="http://www.w3.org/1999/xlink" width="400" height="400" viewBox="0, 0, 400,400"><g id="svgg"><path id="path0" d="M161.200 162.280 C 161.200 162.760,161.361 163.252,161.558 163.374 C 161.755 163.495,162.010 164.271,162.125 165.097 C 162.240 165.924,162.543 167.410,162.796 168.400 C 163.050 169.390,163.355 170.787,163.473 171.504 C 163.592 172.221,163.849 172.906,164.044 173.027 C 164.240 173.148,164.400 173.719,164.400 174.295 C 164.400 174.872,164.568 175.896,164.773 176.572 C 164.978 177.247,165.338 178.565,165.573 179.500 C 165.808 180.435,166.173 181.875,166.384 182.700 C 166.992 185.075,167.968 189.053,169.059 193.600 C 169.614 195.910,170.424 199.240,170.859 201.000 C 171.295 202.760,171.830 204.920,172.048 205.800 C 172.266 206.680,172.604 208.120,172.800 209.000 C 173.159 210.611,173.634 212.563,174.433 215.700 C 174.670 216.635,174.960 218.076,175.075 218.903 C 175.190 219.729,175.445 220.505,175.642 220.626 C 175.839 220.748,176.000 221.229,176.000 221.695 C 176.000 222.162,176.168 223.096,176.373 223.772 C 176.578 224.447,176.923 225.720,177.140 226.600 C 177.357 227.480,177.729 228.965,177.967 229.900 C 178.205 230.835,178.580 232.320,178.800 233.200 C 179.020 234.080,179.395 235.565,179.633 236.500 C 179.871 237.435,180.226 238.830,180.421 239.600 C 180.616 240.370,181.611 244.420,182.631 248.600 C 184.747 257.271,184.990 257.925,185.377 255.967 C 185.525 255.215,185.795 254.240,185.976 253.800 C 186.157 253.360,186.705 251.650,187.193 250.000 C 187.682 248.350,188.244 246.687,188.441 246.305 C 188.638 245.923,188.800 245.259,188.800 244.829 C 188.800 244.399,188.980 243.936,189.200 243.800 C 189.420 243.664,189.600 243.034,189.600 242.400 C 189.600 241.766,189.780 241.136,190.000 241.000 C 190.220 240.864,190.400 240.324,190.400 239.800 C 190.400 239.276,190.580 238.736,190.800 238.600 C 191.020 238.464,191.200 237.924,191.200 237.400 C 191.200 236.876,191.380 236.336,191.600 236.200 C 191.820 236.064,192.000 235.434,192.000 234.800 C 192.000 234.166,192.180 233.536,192.400 233.400 C 192.620 233.264,192.800 232.801,192.800 232.371 C 192.800 231.941,192.962 231.277,193.161 230.895 C 193.360 230.513,193.737 229.390,194.000 228.400 C 194.263 227.410,194.640 226.287,194.839 225.905 C 195.038 225.523,195.200 224.859,195.200 224.429 C 195.200 223.999,195.359 223.549,195.554 223.429 C 195.749 223.308,195.993 222.713,196.098 222.105 C 196.316 220.842,200.042 208.519,201.218 205.173 C 201.648 203.949,202.000 202.675,202.000 202.343 C 202.000 202.011,196.375 196.189,189.500 189.406 C 182.625 182.622,173.445 173.548,169.100 169.240 C 163.108 163.299,161.200 161.618,161.200 162.280 M149.253 177.100 C 148.965 178.145,148.587 179.450,148.412 180.000 C 148.236 180.550,147.871 181.810,147.601 182.800 C 147.330 183.790,146.970 184.960,146.800 185.400 C 146.630 185.840,146.266 187.010,145.992 188.000 C 144.873 192.028,144.687 192.629,144.351 193.295 C 144.158 193.677,144.000 194.431,144.000 194.971 C 144.000 195.511,143.820 196.064,143.600 196.200 C 143.380 196.336,143.200 196.966,143.200 197.600 C 143.200 198.234,143.020 198.864,142.800 199.000 C 142.580 199.136,142.400 199.689,142.400 200.229 C 142.400 200.769,142.238 201.523,142.039 201.905 C 141.840 202.287,141.460 203.410,141.193 204.400 C 140.927 205.390,140.574 206.560,140.410 207.000 C 140.245 207.440,139.894 208.520,139.629 209.400 C 137.144 217.652,130.613 224.323,121.400 228.019 C 118.011 229.378,113.169 229.535,73.400 229.574 C 29.192 229.617,31.515 229.444,34.400 232.463 C 35.060 233.154,35.600 233.890,35.600 234.099 C 35.600 234.308,36.140 234.983,36.800 235.600 C 37.460 236.217,38.000 236.937,38.000 237.200 C 38.000 237.463,38.540 238.183,39.200 238.800 C 39.860 239.417,40.400 240.037,40.400 240.179 C 40.400 240.320,40.854 240.923,41.409 241.518 C 41.964 242.113,42.684 242.885,43.009 243.234 C 43.334 243.582,43.600 244.045,43.600 244.262 C 43.600 244.479,44.410 245.502,45.400 246.535 C 46.390 247.569,47.200 248.576,47.200 248.774 C 47.200 248.972,48.865 250.853,50.900 252.954 C 56.493 258.729,59.931 262.400,59.747 262.400 C 59.612 262.400,68.375 271.110,73.696 276.264 C 74.413 276.958,75.990 278.587,77.200 279.882 C 78.410 281.177,80.015 282.667,80.767 283.193 C 81.518 283.719,83.298 285.286,84.722 286.675 C 86.145 288.064,87.446 289.200,87.613 289.200 C 87.906 289.200,88.361 289.586,92.600 293.428 C 93.700 294.425,95.484 296.041,96.564 297.020 C 97.644 297.999,98.678 298.800,98.863 298.800 C 99.048 298.800,99.941 299.520,100.848 300.400 C 101.755 301.280,102.655 302.000,102.848 302.000 C 103.041 302.000,103.941 302.720,104.848 303.600 C 105.755 304.480,106.655 305.200,106.848 305.200 C 107.041 305.200,107.941 305.920,108.848 306.800 C 109.755 307.680,110.647 308.400,110.830 308.400 C 111.014 308.400,111.614 308.850,112.164 309.400 C 112.714 309.950,113.370 310.400,113.621 310.400 C 113.873 310.400,114.583 310.940,115.200 311.600 C 115.817 312.260,116.537 312.800,116.800 312.800 C 117.063 312.800,117.783 313.340,118.400 314.000 C 119.017 314.660,119.692 315.200,119.901 315.200 C 120.110 315.200,120.846 315.740,121.537 316.400 C 122.228 317.060,122.948 317.600,123.137 317.600 C 123.326 317.600,124.046 318.140,124.737 318.800 C 125.428 319.460,126.159 320.000,126.363 320.000 C 126.567 320.000,126.793 320.143,126.867 320.317 C 126.940 320.491,128.170 321.436,129.600 322.417 C 131.030 323.398,132.438 324.425,132.729 324.700 C 133.019 324.975,133.514 325.200,133.829 325.200 C 134.143 325.200,134.400 325.380,134.400 325.600 C 134.400 325.820,134.630 326.000,134.912 326.000 C 135.193 326.000,135.683 326.360,136.000 326.800 C 136.317 327.240,136.857 327.600,137.200 327.600 C 137.543 327.600,138.083 327.960,138.400 328.400 C 138.717 328.840,139.257 329.200,139.600 329.200 C 139.943 329.200,140.483 329.560,140.800 330.000 C 141.117 330.440,141.607 330.800,141.888 330.800 C 142.170 330.800,142.400 330.950,142.400 331.132 C 142.400 331.315,142.895 331.719,143.500 332.030 C 144.105 332.340,144.891 332.911,145.247 333.297 C 145.603 333.684,146.148 334.000,146.459 334.000 C 146.769 334.000,147.283 334.360,147.600 334.800 C 147.917 335.240,148.457 335.600,148.800 335.600 C 149.143 335.600,149.683 335.960,150.000 336.400 C 150.317 336.840,150.857 337.200,151.200 337.200 C 151.543 337.200,152.083 337.560,152.400 338.000 C 152.717 338.440,153.214 338.800,153.505 338.800 C 153.796 338.800,154.420 339.160,154.892 339.600 C 155.364 340.040,155.987 340.400,156.275 340.400 C 156.564 340.400,156.800 340.545,156.800 340.723 C 156.800 340.901,157.482 341.347,158.316 341.715 C 159.149 342.083,160.222 342.747,160.699 343.192 C 161.176 343.636,161.804 344.000,162.095 344.000 C 162.386 344.000,162.883 344.360,163.200 344.800 C 163.517 345.240,164.014 345.600,164.305 345.600 C 164.596 345.600,165.220 345.960,165.692 346.400 C 166.164 346.840,166.787 347.200,167.075 347.200 C 167.364 347.200,167.600 347.380,167.600 347.600 C 167.600 347.820,167.878 348.000,168.217 348.000 C 168.556 348.000,169.220 348.360,169.692 348.800 C 170.164 349.240,170.787 349.600,171.075 349.600 C 171.364 349.600,171.600 349.780,171.600 350.000 C 171.600 350.220,171.960 350.400,172.400 350.400 C 172.840 350.400,173.200 350.558,173.200 350.751 C 173.200 350.945,173.740 351.327,174.400 351.600 C 175.060 351.873,175.600 352.222,175.600 352.374 C 175.600 352.526,176.230 352.898,177.000 353.200 C 177.770 353.502,178.400 353.867,178.400 354.012 C 178.400 354.156,179.255 354.705,180.300 355.232 C 181.345 355.758,182.290 356.282,182.400 356.395 C 182.694 356.697,184.427 357.667,185.800 358.299 C 186.460 358.603,187.313 359.020,187.695 359.226 C 188.077 359.432,188.662 359.600,188.995 359.600 C 189.328 359.600,189.600 359.780,189.600 360.000 C 189.600 360.220,189.960 360.400,190.400 360.400 C 190.840 360.400,191.200 360.580,191.200 360.800 C 191.200 361.020,191.650 361.200,192.200 361.200 C 192.750 361.200,193.200 361.380,193.200 361.600 C 193.200 361.822,194.267 362.000,195.600 362.000 C 196.933 362.000,198.000 362.178,198.000 362.400 C 198.000 362.620,198.900 362.800,200.000 362.800 C 201.100 362.800,202.000 362.620,202.000 362.400 C 202.000 362.178,203.067 362.000,204.400 362.000 C 205.733 362.000,206.800 361.822,206.800 361.600 C 206.800 361.380,207.250 361.200,207.800 361.200 C 208.350 361.200,208.800 361.020,208.800 360.800 C 208.800 360.580,209.160 360.400,209.600 360.400 C 210.040 360.400,210.400 360.220,210.400 360.000 C 210.400 359.780,210.642 359.600,210.939 359.600 C 211.438 359.600,213.250 358.857,214.900 357.974 C 216.543 357.096,217.413 356.587,217.600 356.395 C 217.710 356.282,218.655 355.758,219.700 355.232 C 220.745 354.705,221.600 354.166,221.600 354.035 C 221.600 353.903,222.185 353.536,222.900 353.220 C 223.615 352.903,224.549 352.320,224.975 351.922 C 225.402 351.525,225.987 351.200,226.275 351.200 C 226.564 351.200,226.800 351.020,226.800 350.800 C 226.800 350.580,227.160 350.400,227.600 350.400 C 228.040 350.400,228.400 350.220,228.400 350.000 C 228.400 349.780,228.636 349.600,228.925 349.600 C 229.213 349.600,229.836 349.240,230.308 348.800 C 230.780 348.360,231.444 348.000,231.783 348.000 C 232.122 348.000,232.400 347.820,232.400 347.600 C 232.400 347.380,232.636 347.200,232.925 347.200 C 233.213 347.200,233.836 346.840,234.308 346.400 C 234.780 345.960,235.404 345.600,235.695 345.600 C 235.986 345.600,236.483 345.240,236.800 344.800 C 237.117 344.360,237.614 344.000,237.905 344.000 C 238.196 344.000,238.820 343.640,239.292 343.200 C 239.764 342.760,240.387 342.400,240.675 342.400 C 240.964 342.400,241.200 342.220,241.200 342.000 C 241.200 341.780,241.457 341.600,241.771 341.600 C 242.086 341.600,242.581 341.375,242.871 341.100 C 243.162 340.825,243.895 340.345,244.500 340.032 C 245.105 339.720,245.600 339.315,245.600 339.132 C 245.600 338.950,245.920 338.800,246.312 338.800 C 246.703 338.800,247.283 338.440,247.600 338.000 C 247.917 337.560,248.457 337.200,248.800 337.200 C 249.143 337.200,249.683 336.840,250.000 336.400 C 250.317 335.960,250.857 335.600,251.200 335.600 C 251.543 335.600,252.083 335.240,252.400 334.800 C 252.717 334.360,253.231 334.000,253.541 334.000 C 253.852 334.000,254.397 333.684,254.753 333.297 C 255.109 332.911,255.895 332.340,256.500 332.030 C 257.105 331.719,257.600 331.315,257.600 331.132 C 257.600 330.950,257.830 330.800,258.112 330.800 C 258.393 330.800,258.883 330.440,259.200 330.000 C 259.517 329.560,260.057 329.200,260.400 329.200 C 260.743 329.200,261.283 328.840,261.600 328.400 C 261.917 327.960,262.409 327.600,262.692 327.600 C 262.975 327.600,263.772 327.060,264.463 326.400 C 265.154 325.740,265.949 325.200,266.231 325.200 C 266.512 325.200,266.981 324.975,267.271 324.700 C 267.562 324.425,268.970 323.398,270.400 322.417 C 271.830 321.436,273.060 320.491,273.133 320.317 C 273.207 320.143,273.433 320.000,273.637 320.000 C 273.841 320.000,274.572 319.460,275.263 318.800 C 275.954 318.140,276.674 317.600,276.863 317.600 C 277.052 317.600,277.772 317.060,278.463 316.400 C 279.154 315.740,279.890 315.200,280.099 315.200 C 280.308 315.200,280.983 314.660,281.600 314.000 C 282.217 313.340,282.937 312.800,283.200 312.800 C 283.463 312.800,284.183 312.260,284.800 311.600 C 285.417 310.940,286.143 310.400,286.414 310.400 C 286.684 310.400,287.197 310.076,287.553 309.679 C 287.909 309.283,288.849 308.565,289.641 308.083 C 290.434 307.602,291.422 306.756,291.836 306.204 C 292.251 305.652,292.795 305.200,293.047 305.200 C 293.298 305.200,294.245 304.480,295.152 303.600 C 296.059 302.720,296.959 302.000,297.152 302.000 C 297.345 302.000,298.245 301.280,299.152 300.400 C 300.059 299.520,300.959 298.800,301.152 298.800 C 301.345 298.800,302.206 298.125,303.064 297.300 C 303.922 296.475,305.469 295.170,306.502 294.400 C 307.535 293.630,308.487 292.685,308.617 292.300 C 308.747 291.915,309.003 291.600,309.185 291.600 C 309.367 291.600,310.093 291.060,310.800 290.400 C 311.507 289.740,312.221 289.200,312.387 289.200 C 312.554 289.200,313.855 288.064,315.278 286.675 C 316.702 285.286,318.482 283.715,319.233 283.184 C 319.985 282.654,321.633 281.135,322.896 279.810 C 324.159 278.484,325.713 276.884,326.350 276.253 C 335.138 267.539,341.783 260.816,343.400 259.000 C 344.500 257.766,347.065 255.040,349.100 252.944 C 351.135 250.849,352.800 248.972,352.800 248.774 C 352.800 248.576,353.610 247.569,354.600 246.535 C 355.590 245.502,356.400 244.517,356.400 244.347 C 356.400 244.176,356.858 243.578,357.418 243.018 C 357.978 242.458,358.311 242.000,358.157 242.000 C 358.003 242.000,358.265 241.664,358.739 241.253 C 359.212 240.842,359.600 240.374,359.600 240.214 C 359.600 240.053,360.140 239.417,360.800 238.800 C 361.460 238.183,362.000 237.463,362.000 237.200 C 362.000 236.937,362.540 236.217,363.200 235.600 C 363.860 234.983,364.400 234.308,364.400 234.099 C 364.400 233.890,364.940 233.154,365.600 232.463 C 368.128 229.818,371.146 230.000,324.795 230.000 C 300.133 230.000,282.502 230.151,282.095 230.366 C 281.713 230.568,280.764 231.008,279.987 231.344 C 278.759 231.875,277.861 232.489,276.200 233.933 C 275.383 234.643,273.664 236.732,272.979 237.848 C 271.041 241.004,270.370 242.066,268.271 245.296 C 267.022 247.219,266.000 248.974,266.000 249.196 C 266.000 249.418,265.820 249.600,265.600 249.600 C 265.380 249.600,265.200 249.870,265.200 250.200 C 265.200 250.530,265.020 250.800,264.800 250.800 C 264.580 250.800,264.400 250.993,264.400 251.228 C 264.400 252.760,258.180 259.600,256.787 259.600 C 256.380 259.600,255.936 259.780,255.800 260.000 C 255.664 260.220,253.974 260.400,252.044 260.400 C 247.002 260.400,243.003 258.176,241.596 254.590 C 241.296 253.826,240.904 253.200,240.725 253.200 C 240.546 253.200,240.400 252.928,240.400 252.595 C 240.400 252.262,240.241 251.677,240.047 251.295 C 239.647 250.508,238.837 248.594,238.400 247.400 C 238.239 246.960,237.927 246.150,237.707 245.600 C 237.487 245.050,237.127 244.150,236.907 243.600 C 236.687 243.050,236.327 242.150,236.107 241.600 C 235.467 239.999,234.925 238.700,234.273 237.200 C 233.938 236.430,232.367 232.470,230.782 228.400 C 229.197 224.330,227.742 220.829,227.550 220.620 C 227.357 220.411,227.200 219.826,227.200 219.320 C 227.200 218.814,227.020 218.400,226.800 218.400 C 226.580 218.400,226.400 218.128,226.400 217.795 C 226.400 217.462,226.241 216.877,226.047 216.495 C 225.852 216.113,225.516 215.350,225.300 214.800 C 225.084 214.250,224.703 213.305,224.454 212.700 C 224.204 212.095,223.796 211.105,223.546 210.500 C 223.297 209.895,222.937 208.995,222.746 208.500 C 221.943 206.413,221.216 204.667,219.832 201.500 C 219.519 200.785,219.147 199.795,219.005 199.300 C 218.724 198.324,218.060 198.097,217.835 198.900 C 217.757 199.175,217.476 200.210,217.208 201.200 C 216.941 202.190,216.560 203.313,216.361 203.695 C 216.162 204.077,216.000 204.741,216.000 205.171 C 216.000 205.601,215.820 206.064,215.600 206.200 C 215.380 206.336,215.200 206.876,215.200 207.400 C 215.200 207.924,215.020 208.464,214.800 208.600 C 214.580 208.736,214.400 209.366,214.400 210.000 C 214.400 210.634,214.220 211.264,214.000 211.400 C 213.780 211.536,213.600 212.076,213.600 212.600 C 213.600 213.124,213.420 213.664,213.200 213.800 C 212.980 213.936,212.800 214.476,212.800 215.000 C 212.800 215.524,212.620 216.064,212.400 216.200 C 212.180 216.336,212.000 216.977,212.000 217.624 C 212.000 218.271,211.820 218.800,211.600 218.800 C 211.380 218.800,211.200 219.329,211.200 219.976 C 211.200 220.623,211.020 221.264,210.800 221.400 C 210.580 221.536,210.400 222.076,210.400 222.600 C 210.400 223.124,210.220 223.664,210.000 223.800 C 209.780 223.936,209.600 224.476,209.600 225.000 C 209.600 225.524,209.420 226.064,209.200 226.200 C 208.980 226.336,208.800 226.966,208.800 227.600 C 208.800 228.234,208.620 228.864,208.400 229.000 C 208.180 229.136,208.000 229.676,208.000 230.200 C 208.000 230.724,207.820 231.264,207.600 231.400 C 207.380 231.536,207.200 232.076,207.200 232.600 C 207.200 233.124,207.020 233.664,206.800 233.800 C 206.580 233.936,206.400 234.367,206.400 234.758 C 206.400 235.483,205.058 239.954,204.407 241.400 C 204.209 241.840,203.931 242.789,203.789 243.510 C 203.648 244.230,202.850 246.930,202.016 249.510 C 201.182 252.089,199.919 256.090,199.209 258.400 C 198.499 260.710,197.777 262.960,197.604 263.400 C 197.432 263.840,197.057 265.010,196.771 266.000 C 195.609 270.014,192.353 275.200,190.993 275.200 C 190.845 275.200,190.187 275.582,189.531 276.049 C 187.493 277.501,178.800 277.058,178.800 275.502 C 178.800 275.336,178.547 275.200,178.237 275.200 C 177.452 275.200,174.000 271.274,174.000 270.380 C 174.000 269.977,173.820 269.536,173.600 269.400 C 173.380 269.264,173.200 268.724,173.200 268.200 C 173.200 267.676,173.020 267.136,172.800 267.000 C 172.580 266.864,172.400 266.144,172.400 265.400 C 172.400 264.656,172.220 263.936,172.000 263.800 C 171.780 263.664,171.600 263.171,171.600 262.705 C 171.600 262.238,171.423 261.304,171.207 260.628 C 170.991 259.953,170.371 257.510,169.830 255.200 C 168.725 250.486,164.191 231.813,163.590 229.500 C 162.417 224.988,162.125 223.703,161.727 221.296 C 161.609 220.579,161.351 219.894,161.156 219.773 C 160.960 219.652,160.800 219.081,160.800 218.505 C 160.800 217.928,160.632 216.904,160.427 216.228 C 160.222 215.553,159.877 214.280,159.660 213.400 C 159.443 212.520,159.056 210.990,158.800 210.000 C 158.544 209.010,158.169 207.525,157.967 206.700 C 157.765 205.875,157.405 204.435,157.167 203.500 C 156.654 201.484,156.083 199.203,155.540 197.000 C 155.323 196.120,155.000 194.860,154.822 194.200 C 154.644 193.540,153.537 188.995,152.361 184.100 C 150.024 174.374,150.010 174.343,149.253 177.100 M229.200 186.739 C 229.200 186.998,229.359 187.523,229.553 187.905 C 229.903 188.592,230.473 189.951,231.146 191.700 C 231.337 192.195,231.721 193.140,232.000 193.800 C 232.279 194.460,232.645 195.360,232.813 195.800 C 232.981 196.240,233.391 197.230,233.725 198.000 C 234.058 198.770,235.610 202.640,237.174 206.600 C 240.048 213.879,240.607 215.237,241.247 216.495 C 241.441 216.877,241.600 217.552,241.600 217.995 C 241.600 218.438,241.780 218.800,242.000 218.800 C 242.220 218.800,242.400 219.250,242.400 219.800 C 242.400 220.350,242.580 220.800,242.800 220.800 C 243.020 220.800,243.200 221.149,243.200 221.576 C 243.200 222.003,243.380 222.464,243.600 222.600 C 243.820 222.736,244.000 223.287,244.000 223.824 C 244.000 224.361,244.180 224.800,244.400 224.800 C 244.620 224.800,244.800 225.072,244.800 225.405 C 244.800 225.738,244.959 226.323,245.153 226.705 C 245.348 227.087,245.708 227.895,245.953 228.500 C 246.199 229.105,246.604 230.095,246.854 230.700 C 247.103 231.305,247.439 232.160,247.600 232.600 C 247.953 233.563,248.508 234.916,249.326 236.800 C 249.659 237.570,250.417 239.415,251.009 240.900 C 251.601 242.385,252.169 243.600,252.271 243.600 C 252.601 243.600,253.385 242.630,253.968 241.500 C 254.280 240.895,254.685 240.400,254.868 240.400 C 255.050 240.400,255.200 240.210,255.200 239.978 C 255.200 239.746,255.920 238.496,256.800 237.200 C 257.680 235.904,258.400 234.654,258.400 234.422 C 258.400 234.190,258.580 234.000,258.800 234.000 C 259.020 234.000,259.200 233.730,259.200 233.400 C 259.200 233.070,259.380 232.800,259.600 232.800 C 259.820 232.800,260.000 232.604,260.000 232.365 C 260.000 231.769,263.903 226.134,265.500 224.425 C 267.103 222.709,267.125 222.885,265.096 221.200 C 262.669 219.185,254.296 211.101,241.077 198.011 C 234.739 191.735,229.474 186.525,229.377 186.433 C 229.280 186.342,229.200 186.479,229.200 186.739 M390.832 186.839 C 390.814 187.190,390.511 188.056,390.158 188.763 C 389.805 189.471,389.621 190.154,389.749 190.282 C 389.877 190.410,390.092 190.174,390.227 189.757 C 390.362 189.341,390.657 188.613,390.883 188.139 C 391.108 187.666,391.196 187.036,391.078 186.739 C 390.920 186.342,390.855 186.369,390.832 186.839 M11.763 194.216 C 12.001 194.977,12.322 195.600,12.477 195.600 C 12.814 195.600,12.049 193.277,11.625 193.016 C 11.463 192.915,11.525 193.456,11.763 194.216 M377.605 213.191 C 377.259 213.836,377.294 213.939,377.791 213.748 C 378.126 213.620,378.400 213.264,378.400 212.957 C 378.400 212.176,378.101 212.264,377.605 213.191 M22.400 214.629 C 22.400 214.927,23.475 216.000,23.775 216.000 C 23.902 216.000,23.782 215.640,23.507 215.200 C 23.038 214.449,22.400 214.120,22.400 214.629 " stroke="none" fill="#dc412a" fill-rule="evenodd"></path><path id="path1" d="M148.200 155.473 C 143.050 156.198,140.406 159.449,138.011 168.000 C 137.734 168.990,137.369 170.250,137.200 170.800 C 137.031 171.350,136.671 172.610,136.400 173.600 C 136.129 174.590,135.767 175.850,135.595 176.400 C 135.424 176.950,134.892 178.750,134.413 180.400 C 133.934 182.050,133.194 184.570,132.768 186.000 C 132.342 187.430,131.820 189.230,131.607 190.000 C 126.521 208.443,125.049 211.373,119.400 214.306 C 115.255 216.458,116.741 216.395,69.524 216.398 C 40.440 216.399,25.162 216.537,25.000 216.800 C 24.864 217.020,24.963 217.200,25.220 217.200 C 25.518 217.200,25.604 217.598,25.459 218.300 C 25.334 218.905,25.330 219.175,25.449 218.900 C 25.752 218.205,26.400 218.273,26.400 219.000 C 26.400 219.330,26.580 219.600,26.800 219.600 C 27.020 219.600,27.200 219.870,27.200 220.200 C 27.200 220.530,27.380 220.800,27.600 220.800 C 27.820 220.800,28.000 221.055,28.000 221.367 C 28.000 221.678,28.145 221.993,28.323 222.067 C 28.791 222.259,31.200 225.865,31.200 226.372 C 31.200 226.607,31.395 226.800,31.633 226.800 C 31.872 226.800,31.991 227.025,31.898 227.300 C 31.408 228.755,31.957 228.774,74.480 228.787 C 117.532 228.800,116.304 228.840,121.451 227.266 C 131.321 224.249,136.913 217.194,141.164 202.400 C 141.961 199.626,143.273 195.186,144.002 192.800 C 144.170 192.250,144.529 190.990,144.800 190.000 C 145.071 189.010,145.431 187.750,145.600 187.200 C 145.769 186.650,146.107 185.480,146.350 184.600 C 146.594 183.720,147.146 181.830,147.577 180.400 C 148.008 178.970,148.613 176.900,148.922 175.800 C 149.865 172.442,150.362 173.216,152.264 181.000 C 153.232 184.960,154.199 188.875,154.412 189.700 C 154.625 190.525,154.965 191.875,155.167 192.700 C 155.731 195.007,156.288 197.222,156.800 199.200 C 157.056 200.190,157.427 201.630,157.624 202.400 C 158.214 204.707,163.012 224.397,165.179 233.400 C 166.290 238.020,167.395 242.520,167.633 243.400 C 168.255 245.698,168.615 247.158,170.000 253.000 C 170.678 255.860,171.405 258.875,171.616 259.700 C 171.827 260.525,172.192 261.965,172.427 262.900 C 172.662 263.835,173.022 265.153,173.227 265.828 C 173.432 266.504,173.600 267.264,173.600 267.517 C 173.600 268.595,175.645 272.297,176.870 273.437 C 183.319 279.436,192.982 276.419,195.564 267.600 C 195.854 266.610,196.229 265.440,196.398 265.000 C 196.566 264.560,197.293 262.310,198.012 260.000 C 198.731 257.690,199.584 254.990,199.907 254.000 C 200.230 253.010,200.636 251.660,200.807 251.000 C 200.979 250.340,202.689 244.850,204.607 238.800 C 206.525 232.750,208.232 227.260,208.399 226.600 C 208.567 225.940,209.147 224.050,209.689 222.400 C 210.232 220.750,211.085 218.050,211.585 216.400 C 212.086 214.750,212.632 213.040,212.800 212.600 C 212.967 212.160,213.691 209.910,214.408 207.600 C 218.216 195.331,218.190 195.385,219.136 197.700 C 219.428 198.415,219.832 199.405,220.034 199.900 C 220.235 200.395,220.604 201.295,220.854 201.900 C 221.103 202.505,221.463 203.405,221.654 203.900 C 221.844 204.395,222.156 205.205,222.346 205.700 C 222.803 206.886,223.381 208.283,224.125 210.000 C 224.459 210.770,226.737 216.440,229.187 222.600 C 231.637 228.760,233.887 234.340,234.187 235.000 C 234.487 235.660,236.203 239.890,238.000 244.400 C 242.132 254.770,242.198 254.905,243.944 256.643 C 246.871 259.554,251.548 260.749,255.172 259.513 C 259.156 258.153,260.109 257.001,269.000 242.804 C 274.122 234.624,277.907 230.400,280.113 230.400 C 280.465 230.400,280.852 230.239,280.974 230.042 C 281.670 228.915,288.447 228.745,327.649 228.872 C 368.159 229.002,368.400 228.995,368.400 227.621 C 368.400 227.395,368.715 226.841,369.100 226.392 C 369.485 225.942,369.800 225.445,369.800 225.287 C 369.800 224.804,372.180 221.201,372.500 221.201 C 372.665 221.200,372.800 220.943,372.800 220.629 C 372.800 220.315,373.219 219.728,373.732 219.325 C 374.245 218.922,374.590 218.369,374.499 218.096 C 374.408 217.823,374.528 217.600,374.767 217.600 C 375.005 217.600,375.200 217.330,375.200 217.000 C 375.200 216.235,284.798 216.079,281.120 216.837 C 272.545 218.604,266.922 222.776,261.079 231.704 C 259.385 234.291,258.000 236.502,258.000 236.617 C 258.000 236.921,252.415 245.200,252.210 245.200 C 252.048 245.200,251.094 243.184,250.413 241.400 C 249.938 240.157,249.354 238.768,248.440 236.704 C 247.978 235.662,247.600 234.661,247.600 234.479 C 247.600 234.298,247.240 233.405,246.800 232.494 C 246.360 231.584,246.000 230.678,246.000 230.481 C 246.000 230.284,245.745 229.600,245.434 228.961 C 245.123 228.323,243.219 223.660,241.205 218.600 C 239.190 213.540,237.300 208.860,237.005 208.200 C 236.709 207.540,234.819 202.860,232.804 197.800 C 230.790 192.740,228.698 187.685,228.157 186.568 C 224.908 179.860,216.367 177.928,210.849 182.651 C 208.575 184.597,207.576 186.805,204.808 196.000 C 204.311 197.650,203.764 199.360,203.593 199.800 C 203.421 200.240,202.887 201.950,202.406 203.600 C 201.924 205.250,201.202 207.590,200.800 208.800 C 200.399 210.010,199.411 213.160,198.605 215.800 C 197.026 220.971,193.568 232.025,192.411 235.600 C 192.019 236.810,191.119 239.690,190.410 242.000 C 189.701 244.310,188.801 247.190,188.410 248.400 C 188.019 249.610,187.120 252.445,186.413 254.700 C 185.705 256.955,184.984 258.800,184.810 258.800 C 184.445 258.800,184.465 258.868,182.592 251.200 C 181.813 248.010,180.986 244.680,180.755 243.800 C 180.523 242.920,180.184 241.570,180.000 240.800 C 179.816 240.030,179.486 238.680,179.266 237.800 C 179.046 236.920,178.686 235.480,178.466 234.600 C 178.246 233.720,177.875 232.280,177.641 231.400 C 177.106 229.382,171.667 207.128,170.017 200.200 C 168.810 195.134,168.509 193.910,167.652 190.600 C 167.424 189.720,166.852 187.380,166.379 185.400 C 165.907 183.420,165.363 181.260,165.171 180.600 C 164.979 179.940,164.269 177.060,163.594 174.200 C 161.494 165.301,161.034 163.661,160.003 161.400 C 158.123 157.279,153.143 154.778,148.200 155.473 " stroke="none" fill="#fbfbfa" fill-rule="evenodd"></path><path id="path2" d="M197.502 114.600 C 197.607 115.150,197.762 115.600,197.847 115.600 C 197.931 115.600,198.000 115.150,198.000 114.600 C 198.000 114.050,197.845 113.600,197.655 113.600 C 197.466 113.600,197.397 114.050,197.502 114.600 M397.502 114.600 C 397.607 115.150,397.762 115.600,397.847 115.600 C 397.931 115.600,398.000 115.150,398.000 114.600 C 398.000 114.050,397.845 113.600,397.655 113.600 C 397.466 113.600,397.397 114.050,397.502 114.600 M1.680 116.480 C 1.068 117.092,1.059 117.714,1.665 117.512 C 1.921 117.426,2.175 117.051,2.230 116.678 C 2.348 115.871,2.305 115.855,1.680 116.480 M197.849 116.321 C 197.705 116.554,197.744 116.842,197.937 116.961 C 198.315 117.195,198.336 119.397,197.964 119.769 C 197.535 120.198,1.811 120.032,1.668 119.603 C 1.594 119.381,1.739 119.200,1.990 119.200 C 2.242 119.200,2.319 119.408,2.162 119.662 C 1.994 119.933,2.051 120.016,2.301 119.861 C 2.904 119.488,2.461 118.133,1.735 118.133 C 1.284 118.133,1.168 118.473,1.282 119.455 C 1.373 120.234,1.243 120.852,0.964 120.958 C 0.378 121.183,0.361 121.501,0.146 136.200 C -0.012 147.010,0.111 150.105,1.054 159.100 C 1.175 160.255,1.437 161.200,1.637 161.200 C 1.837 161.200,2.000 161.999,2.000 162.976 C 2.000 163.953,2.180 164.864,2.400 165.000 C 2.620 165.136,2.800 165.946,2.800 166.800 C 2.800 167.654,2.980 168.464,3.200 168.600 C 3.420 168.736,3.600 169.467,3.600 170.224 C 3.600 170.981,3.780 171.600,4.000 171.600 C 4.220 171.600,4.400 172.129,4.400 172.776 C 4.400 173.423,4.580 174.064,4.800 174.200 C 5.020 174.336,5.200 174.977,5.200 175.624 C 5.200 176.271,5.380 176.800,5.600 176.800 C 5.820 176.800,6.000 177.340,6.000 178.000 C 6.000 178.660,6.180 179.200,6.400 179.200 C 6.620 179.200,6.800 179.639,6.800 180.176 C 6.800 180.713,6.980 181.264,7.200 181.400 C 7.420 181.536,7.600 181.999,7.600 182.429 C 7.600 182.859,7.767 183.523,7.971 183.905 C 8.457 184.816,8.884 186.011,9.070 186.983 C 9.153 187.413,9.419 187.888,9.661 188.038 C 9.904 188.188,9.979 188.511,9.828 188.755 C 9.676 189.000,9.743 189.200,9.976 189.200 C 10.209 189.200,10.400 189.472,10.400 189.805 C 10.400 190.137,11.300 192.313,12.400 194.639 C 13.500 196.965,14.400 199.123,14.400 199.434 C 14.400 199.745,14.560 200.000,14.757 200.000 C 14.953 200.000,15.398 200.675,15.746 201.500 C 16.093 202.325,16.986 204.080,17.729 205.400 C 18.472 206.720,19.580 208.700,20.192 209.800 C 20.803 210.900,21.550 212.084,21.852 212.431 C 22.153 212.779,22.400 213.281,22.400 213.548 C 22.400 213.815,22.760 214.420,23.200 214.892 C 23.640 215.364,24.000 216.167,24.000 216.675 C 24.000 217.184,24.180 217.600,24.400 217.600 C 24.620 217.600,24.800 217.247,24.800 216.814 C 24.800 216.039,25.385 216.027,70.300 215.914 L 115.800 215.800 118.605 214.343 C 123.105 212.005,126.085 208.227,127.394 203.200 C 127.537 202.650,127.812 201.660,128.004 201.000 C 128.197 200.340,128.545 199.125,128.777 198.300 C 129.010 197.475,129.390 196.125,129.623 195.300 C 129.855 194.475,130.225 193.170,130.445 192.400 C 130.665 191.630,131.025 190.370,131.245 189.600 C 131.465 188.830,131.797 187.660,131.982 187.000 C 133.715 180.833,136.489 171.201,136.764 170.400 C 136.953 169.850,137.329 168.590,137.600 167.600 C 138.428 164.575,139.037 162.860,140.115 160.511 C 141.730 156.994,148.915 153.363,151.509 154.752 C 151.970 154.998,152.899 155.200,153.574 155.200 C 154.248 155.200,154.800 155.380,154.800 155.600 C 154.800 155.820,155.087 156.000,155.437 156.000 C 156.182 156.000,160.840 160.677,160.760 161.345 C 160.629 162.436,160.848 163.021,161.128 162.331 C 161.484 161.457,202.028 201.358,202.046 202.600 C 202.052 203.040,202.372 202.320,202.757 201.000 C 206.416 188.447,207.696 185.165,209.800 182.942 C 214.919 177.533,224.798 178.904,228.082 185.479 C 228.558 186.431,229.054 187.037,229.184 186.826 C 229.315 186.614,234.547 191.528,240.811 197.744 C 253.468 210.305,262.553 219.078,265.101 221.200 C 267.125 222.886,267.103 222.707,265.500 224.437 C 263.807 226.264,261.458 229.603,261.875 229.589 C 262.054 229.583,262.624 228.890,263.142 228.050 C 265.578 224.098,270.714 220.011,275.810 217.971 C 281.565 215.666,283.365 215.590,332.000 215.603 C 356.090 215.609,376.025 215.611,376.300 215.607 C 376.575 215.603,376.800 215.330,376.800 215.000 C 376.800 214.670,376.991 214.400,377.224 214.400 C 377.457 214.400,377.549 214.241,377.429 214.047 C 377.309 213.853,377.582 213.223,378.034 212.647 C 378.487 212.071,378.748 211.600,378.613 211.600 C 378.479 211.600,378.736 211.206,379.184 210.725 C 379.633 210.243,380.000 209.628,380.000 209.358 C 380.000 209.088,380.135 208.807,380.300 208.733 C 380.594 208.603,381.262 207.417,383.757 202.600 C 384.441 201.280,385.135 200.140,385.300 200.067 C 385.465 199.993,385.600 199.689,385.600 199.390 C 385.600 199.092,386.489 196.977,387.576 194.690 C 388.663 192.403,389.673 190.050,389.820 189.462 C 389.968 188.874,390.249 188.294,390.444 188.173 C 390.640 188.052,390.800 187.603,390.800 187.176 C 390.800 186.749,390.941 186.400,391.113 186.400 C 391.285 186.400,391.466 185.905,391.516 185.300 C 391.566 184.695,391.785 184.140,392.003 184.067 C 392.222 183.993,392.400 183.408,392.400 182.767 C 392.400 182.125,392.580 181.600,392.800 181.600 C 393.020 181.600,393.200 181.060,393.200 180.400 C 393.200 179.740,393.380 179.200,393.600 179.200 C 393.820 179.200,394.000 178.660,394.000 178.000 C 394.000 177.340,394.180 176.800,394.400 176.800 C 394.620 176.800,394.800 176.271,394.800 175.624 C 394.800 174.977,394.980 174.336,395.200 174.200 C 395.420 174.064,395.600 173.434,395.600 172.800 C 395.600 172.166,395.780 171.536,396.000 171.400 C 396.220 171.264,396.400 170.634,396.400 170.000 C 396.400 169.366,396.580 168.736,396.800 168.600 C 397.020 168.464,397.200 167.654,397.200 166.800 C 397.200 165.946,397.380 165.136,397.600 165.000 C 397.820 164.864,398.000 163.953,398.000 162.976 C 398.000 161.999,398.180 161.200,398.400 161.200 C 398.620 161.200,398.800 160.336,398.800 159.280 C 398.800 158.224,399.018 157.142,399.284 156.876 C 400.224 155.936,399.956 120.800,399.010 120.800 C 398.732 120.800,398.623 120.266,398.724 119.401 C 398.926 117.669,398.511 115.884,397.982 116.211 C 397.765 116.345,397.722 116.668,397.886 116.928 C 398.292 117.567,398.360 119.578,397.984 119.810 C 397.334 120.212,201.802 120.006,201.668 119.603 C 201.594 119.381,201.739 119.200,201.990 119.200 C 202.242 119.200,202.319 119.408,202.162 119.662 C 201.994 119.933,202.051 120.016,202.301 119.861 C 202.904 119.488,202.461 118.133,201.735 118.133 C 201.284 118.133,201.168 118.473,201.282 119.455 C 201.370 120.207,201.241 120.852,200.984 120.951 C 200.732 121.048,200.520 122.042,200.506 123.188 C 200.465 126.707,199.611 126.593,199.518 123.055 C 199.483 121.743,199.278 120.800,199.026 120.800 C 198.761 120.800,198.648 120.119,198.735 119.032 C 198.879 117.215,198.332 115.540,197.849 116.321 M201.680 116.480 C 201.068 117.092,201.059 117.714,201.665 117.512 C 201.921 117.426,202.175 117.051,202.230 116.678 C 202.348 115.871,202.305 115.855,201.680 116.480 M161.228 163.476 C 161.318 164.515,161.944 165.396,161.972 164.524 C 161.987 164.042,161.820 163.536,161.600 163.400 C 161.380 163.264,161.213 163.298,161.228 163.476 M162.244 167.400 C 162.573 168.871,162.802 169.190,162.794 168.167 C 162.791 167.745,162.605 167.130,162.382 166.800 C 162.085 166.362,162.048 166.524,162.244 167.400 M163.044 170.600 C 163.373 172.071,163.602 172.390,163.594 171.367 C 163.591 170.945,163.405 170.330,163.182 170.000 C 162.885 169.562,162.848 169.724,163.044 170.600 M163.840 173.866 C 164.208 175.399,164.400 175.544,164.400 174.290 C 164.400 173.717,164.213 173.132,163.984 172.990 C 163.711 172.821,163.662 173.123,163.840 173.866 M149.230 175.878 C 149.005 176.690,148.906 177.439,149.008 177.541 C 149.111 177.644,149.308 177.159,149.447 176.464 C 149.734 175.030,150.400 174.753,150.400 176.067 C 150.400 176.543,150.512 176.822,150.648 176.685 C 151.000 176.334,150.461 174.400,150.011 174.400 C 149.806 174.400,149.454 175.065,149.230 175.878 M164.658 177.200 C 164.975 178.925,165.202 179.251,165.194 177.967 C 165.191 177.435,165.011 176.730,164.794 176.400 C 164.518 175.978,164.477 176.215,164.658 177.200 M150.868 177.600 C 150.888 178.639,151.518 180.346,151.532 179.400 C 151.538 178.960,151.389 178.240,151.200 177.800 C 150.989 177.310,150.861 177.232,150.868 177.600 M148.446 178.467 C 148.421 178.834,148.296 179.464,148.170 179.867 C 147.952 180.562,147.963 180.563,148.397 179.887 C 148.648 179.496,148.773 178.866,148.673 178.487 C 148.511 177.868,148.488 177.866,148.446 178.467 M165.458 180.400 C 165.775 182.125,166.002 182.451,165.994 181.167 C 165.991 180.635,165.811 179.930,165.594 179.600 C 165.318 179.178,165.277 179.415,165.458 180.400 M147.646 181.267 C 147.621 181.634,147.496 182.264,147.370 182.667 C 147.152 183.362,147.163 183.363,147.597 182.687 C 147.848 182.296,147.973 181.666,147.873 181.287 C 147.711 180.668,147.688 180.666,147.646 181.267 M152.068 182.600 C 152.062 183.040,152.211 183.760,152.400 184.200 C 152.838 185.219,152.838 184.168,152.400 182.800 C 152.143 181.996,152.077 181.957,152.068 182.600 M166.258 183.600 C 166.575 185.325,166.802 185.651,166.794 184.367 C 166.791 183.835,166.611 183.130,166.394 182.800 C 166.118 182.378,166.077 182.615,166.258 183.600 M167.867 190.000 C 168.248 192.101,168.836 193.322,168.542 191.400 C 168.408 190.520,168.144 189.530,167.956 189.200 C 167.748 188.835,167.713 189.149,167.867 190.000 M154.406 192.433 C 154.409 192.965,154.589 193.670,154.806 194.000 C 155.082 194.422,155.123 194.185,154.942 193.200 C 154.625 191.475,154.398 191.149,154.406 192.433 M231.007 192.450 C 231.507 194.073,232.366 195.491,232.384 194.724 C 232.393 194.352,232.220 193.936,232.000 193.800 C 231.780 193.664,231.600 193.214,231.600 192.800 C 231.600 192.386,231.401 191.924,231.157 191.774 C 230.853 191.586,230.806 191.798,231.007 192.450 M168.806 194.233 C 168.809 194.655,168.995 195.270,169.218 195.600 C 169.515 196.038,169.552 195.876,169.356 195.000 C 169.027 193.529,168.798 193.210,168.806 194.233 M155.206 195.633 C 155.209 196.165,155.389 196.870,155.606 197.200 C 155.882 197.622,155.923 197.385,155.742 196.400 C 155.425 194.675,155.198 194.349,155.206 195.633 M169.634 197.400 C 169.622 197.840,169.787 198.470,170.000 198.800 C 170.514 199.595,170.514 198.596,170.000 197.400 L 169.656 196.600 169.634 197.400 M217.843 197.833 C 217.499 198.730,217.530 198.802,218.164 198.559 C 218.516 198.423,218.828 198.690,218.996 199.271 C 219.144 199.782,219.610 200.963,220.032 201.896 C 220.455 202.828,220.800 203.763,220.800 203.972 C 220.800 204.181,220.982 204.465,221.205 204.603 C 221.427 204.740,221.227 203.896,220.760 202.726 C 220.292 201.557,219.621 199.835,219.269 198.900 C 218.584 197.084,218.231 196.820,217.843 197.833 M234.013 199.600 C 234.491 200.810,235.433 203.196,236.105 204.903 C 236.777 206.610,237.397 207.936,237.482 207.851 C 237.682 207.651,234.000 198.327,233.512 197.800 C 233.309 197.580,233.534 198.390,234.013 199.600 M156.006 198.833 C 156.009 199.365,156.189 200.070,156.406 200.400 C 156.682 200.822,156.723 200.585,156.542 199.600 C 156.225 197.875,155.998 197.549,156.006 198.833 M216.693 201.493 C 216.320 202.733,216.097 203.830,216.198 203.931 C 216.299 204.032,216.454 203.864,216.543 203.557 C 216.633 203.251,216.936 202.234,217.218 201.298 C 217.499 200.362,217.649 199.516,217.551 199.418 C 217.453 199.320,217.067 200.254,216.693 201.493 M170.406 200.633 C 170.409 201.055,170.595 201.670,170.818 202.000 C 171.115 202.438,171.152 202.276,170.956 201.400 C 170.627 199.929,170.398 199.610,170.406 200.633 M156.806 202.233 C 156.809 202.655,156.995 203.270,157.218 203.600 C 157.515 204.038,157.552 203.876,157.356 203.000 C 157.027 201.529,156.798 201.210,156.806 202.233 M171.212 204.000 C 171.212 204.330,171.387 204.870,171.600 205.200 C 171.945 205.733,171.988 205.733,171.988 205.200 C 171.988 204.870,171.813 204.330,171.600 204.000 C 171.255 203.467,171.212 203.467,171.212 204.000 M200.844 206.244 C 200.380 207.724,200.070 209.004,200.156 209.089 C 200.241 209.175,200.691 208.035,201.156 206.556 C 201.620 205.076,201.930 203.796,201.844 203.711 C 201.759 203.625,201.309 204.765,200.844 206.244 M215.646 204.667 C 215.621 204.924,215.484 205.464,215.341 205.867 C 215.140 206.436,215.194 206.497,215.579 206.142 C 215.852 205.891,215.989 205.351,215.884 204.942 C 215.779 204.534,215.672 204.410,215.646 204.667 M157.606 205.433 C 157.609 205.855,157.795 206.470,158.018 206.800 C 158.315 207.238,158.352 207.076,158.156 206.200 C 157.827 204.729,157.598 204.410,157.606 205.433 M172.012 207.200 C 172.012 207.530,172.187 208.070,172.400 208.400 C 172.745 208.933,172.788 208.933,172.788 208.400 C 172.788 208.070,172.613 207.530,172.400 207.200 C 172.055 206.667,172.012 206.667,172.012 207.200 M237.633 208.625 C 237.603 209.006,238.056 210.097,239.529 213.200 L 240.004 214.200 239.747 213.200 C 239.392 211.822,237.673 208.102,237.633 208.625 M199.067 211.867 C 198.222 214.835,198.501 215.114,199.413 212.213 C 199.799 210.986,200.025 209.892,199.916 209.782 C 199.806 209.673,199.424 210.611,199.067 211.867 M214.046 209.867 C 214.021 210.124,213.884 210.664,213.741 211.067 C 213.540 211.636,213.594 211.697,213.979 211.342 C 214.252 211.091,214.389 210.551,214.284 210.142 C 214.179 209.734,214.072 209.610,214.046 209.867 M213.246 212.267 C 213.221 212.524,213.084 213.064,212.941 213.467 C 212.740 214.036,212.794 214.097,213.179 213.742 C 213.452 213.491,213.589 212.951,213.484 212.542 C 213.379 212.134,213.272 212.010,213.246 212.267 M197.829 215.829 C 197.681 216.415,197.638 216.972,197.732 217.066 C 197.827 217.160,198.024 216.758,198.171 216.171 C 198.319 215.585,198.362 215.028,198.268 214.934 C 198.173 214.840,197.976 215.242,197.829 215.829 M135.052 217.700 C 134.175 218.890,133.915 219.420,134.452 218.924 C 135.297 218.143,137.035 215.599,136.723 215.600 C 136.655 215.601,135.903 216.546,135.052 217.700 M160.828 218.676 C 160.813 219.158,160.980 219.664,161.200 219.800 C 161.673 220.092,161.673 219.701,161.200 218.600 C 160.869 217.829,160.855 217.831,160.828 218.676 M210.846 219.867 C 210.821 220.124,210.684 220.664,210.541 221.067 C 210.340 221.636,210.394 221.697,210.779 221.342 C 211.052 221.091,211.189 220.551,211.084 220.142 C 210.979 219.734,210.872 219.610,210.846 219.867 M131.389 221.837 L 129.400 223.675 131.500 222.000 C 133.353 220.523,133.873 220.000,133.489 220.000 C 133.428 220.000,132.483 220.827,131.389 221.837 M162.412 225.200 C 162.412 225.530,162.587 226.070,162.800 226.400 C 163.145 226.933,163.188 226.933,163.188 226.400 C 163.188 226.070,163.013 225.530,162.800 225.200 C 162.455 224.667,162.412 224.667,162.412 225.200 M177.044 227.400 C 177.373 228.871,177.602 229.190,177.594 228.167 C 177.591 227.745,177.405 227.130,177.182 226.800 C 176.885 226.362,176.848 226.524,177.044 227.400 M163.212 228.400 C 163.212 228.730,163.387 229.270,163.600 229.600 C 163.945 230.133,163.988 230.133,163.988 229.600 C 163.988 229.270,163.813 228.730,163.600 228.400 C 163.255 227.867,163.212 227.867,163.212 228.400 M117.000 228.800 C 115.893 229.082,115.877 229.109,116.800 229.147 C 117.350 229.169,118.070 229.013,118.400 228.800 C 119.081 228.360,118.729 228.360,117.000 228.800 M32.662 229.500 C 32.496 229.769,89.876 229.759,106.400 229.488 C 110.030 229.428,94.966 229.339,72.924 229.290 C 50.882 229.240,32.764 229.335,32.662 229.500 M231.200 229.331 C 231.200 229.805,234.109 236.990,234.459 237.380 C 234.647 237.589,234.800 238.073,234.800 238.456 C 234.800 238.839,234.978 239.263,235.195 239.397 C 235.623 239.661,235.444 238.953,234.589 237.000 C 234.301 236.340,233.494 234.360,232.797 232.600 C 231.587 229.542,231.200 228.751,231.200 229.331 M284.600 229.600 C 283.720 229.758,301.900 229.909,325.000 229.937 C 352.243 229.970,366.789 229.852,366.400 229.600 C 365.701 229.149,287.121 229.149,284.600 229.600 M177.844 230.600 C 178.173 232.071,178.402 232.390,178.394 231.367 C 178.391 230.945,178.205 230.330,177.982 230.000 C 177.685 229.562,177.648 229.724,177.844 230.600 M260.614 231.035 C 260.241 231.604,260.027 232.161,260.139 232.272 C 260.250 232.383,260.629 231.918,260.981 231.237 C 261.759 229.733,261.544 229.615,260.614 231.035 M277.829 232.159 C 275.796 233.605,273.253 236.400,273.971 236.400 C 274.207 236.400,274.400 236.265,274.400 236.100 C 274.401 235.407,278.695 231.601,279.476 231.600 C 279.738 231.600,280.064 231.420,280.200 231.200 C 280.678 230.427,279.722 230.814,277.829 232.159 M164.056 231.600 C 164.056 231.930,164.211 232.560,164.400 233.000 C 164.617 233.504,164.744 233.578,164.744 233.200 C 164.744 232.870,164.589 232.240,164.400 231.800 C 164.183 231.296,164.056 231.222,164.056 231.600 M178.644 233.800 C 178.973 235.271,179.202 235.590,179.194 234.567 C 179.191 234.145,179.005 233.530,178.782 233.200 C 178.485 232.762,178.448 232.924,178.644 233.800 M164.856 234.800 C 164.856 235.130,165.011 235.760,165.200 236.200 C 165.417 236.704,165.544 236.778,165.544 236.400 C 165.544 236.070,165.389 235.440,165.200 235.000 C 164.983 234.496,164.856 234.422,164.856 234.800 M179.246 236.400 C 179.265 236.730,179.424 237.450,179.600 238.000 L 179.920 239.000 179.954 238.000 C 179.973 237.450,179.813 236.730,179.600 236.400 C 179.255 235.867,179.216 235.867,179.246 236.400 M249.530 238.200 C 249.964 239.300,250.633 241.010,251.019 242.000 C 251.996 244.508,252.289 244.732,253.104 243.597 C 254.479 241.680,255.182 240.400,254.862 240.400 C 254.682 240.400,254.280 240.895,253.968 241.500 C 253.386 242.626,252.601 243.600,252.274 243.600 C 252.173 243.600,251.502 242.115,250.784 240.300 C 250.065 238.485,249.312 236.820,249.110 236.600 C 248.908 236.380,249.097 237.100,249.530 238.200 M256.253 237.991 C 255.253 239.502,254.815 240.596,255.536 239.780 C 256.092 239.152,257.679 236.400,257.486 236.400 C 257.387 236.400,256.832 237.116,256.253 237.991 M165.634 238.000 C 165.646 238.330,165.811 238.960,166.000 239.400 L 166.344 240.200 166.366 239.400 C 166.378 238.960,166.213 238.330,166.000 238.000 C 165.655 237.467,165.615 237.467,165.634 238.000 M205.000 238.400 C 204.850 238.873,204.817 239.350,204.927 239.460 C 205.037 239.570,205.250 239.273,205.400 238.800 C 205.550 238.327,205.583 237.850,205.473 237.740 C 205.363 237.630,205.150 237.927,205.000 238.400 M270.659 240.795 C 269.636 242.333,268.800 243.691,268.800 243.813 C 268.800 243.936,267.932 245.333,266.871 246.918 C 264.330 250.714,264.283 250.800,264.776 250.800 C 265.009 250.800,265.200 250.530,265.200 250.200 C 265.200 249.870,265.380 249.600,265.600 249.600 C 265.820 249.600,266.000 249.418,266.000 249.196 C 266.000 248.858,268.438 244.921,271.200 240.800 C 271.568 240.250,272.086 239.395,272.349 238.900 C 273.278 237.156,272.496 238.032,270.659 240.795 M180.258 240.400 C 180.575 242.125,180.802 242.451,180.794 241.167 C 180.791 240.635,180.611 239.930,180.394 239.600 C 180.118 239.178,180.077 239.415,180.258 240.400 M189.867 241.067 C 189.720 241.213,189.611 241.708,189.625 242.167 C 189.649 242.933,189.682 242.923,190.034 242.042 C 190.426 241.063,190.344 240.589,189.867 241.067 M202.987 244.987 C 202.601 246.214,202.375 247.308,202.484 247.418 C 202.594 247.527,202.976 246.589,203.333 245.333 C 204.178 242.365,203.899 242.086,202.987 244.987 M167.268 244.400 C 167.288 245.439,167.918 247.146,167.932 246.200 C 167.938 245.760,167.789 245.040,167.600 244.600 C 167.389 244.110,167.261 244.032,167.268 244.400 M181.668 246.000 C 181.688 247.039,182.318 248.746,182.332 247.800 C 182.338 247.360,182.189 246.640,182.000 246.200 C 181.789 245.710,181.661 245.632,181.668 246.000 M188.267 246.267 C 188.120 246.413,188.011 246.908,188.025 247.367 C 188.049 248.133,188.082 248.123,188.434 247.242 C 188.826 246.263,188.744 245.789,188.267 246.267 M201.244 250.644 C 200.780 252.124,200.470 253.404,200.556 253.489 C 200.641 253.575,201.091 252.435,201.556 250.956 C 202.020 249.476,202.330 248.196,202.244 248.111 C 202.159 248.025,201.709 249.165,201.244 250.644 M187.051 250.360 C 186.693 251.455,186.411 252.586,186.425 252.875 C 186.439 253.164,186.800 252.336,187.227 251.035 C 187.654 249.734,187.936 248.603,187.853 248.520 C 187.770 248.437,187.409 249.265,187.051 250.360 M182.468 249.200 C 182.488 250.239,183.118 251.946,183.132 251.000 C 183.138 250.560,182.989 249.840,182.800 249.400 C 182.589 248.910,182.461 248.832,182.468 249.200 M168.800 250.560 C 168.800 251.295,170.524 258.009,170.674 257.859 C 170.853 257.681,169.251 250.720,168.965 250.433 C 168.874 250.342,168.800 250.399,168.800 250.560 M262.851 253.120 C 261.119 255.819,261.272 256.276,263.033 253.661 C 263.821 252.491,264.385 251.451,264.285 251.351 C 264.185 251.251,263.540 252.047,262.851 253.120 M183.232 252.143 C 183.150 253.024,184.575 258.000,184.908 258.000 C 185.116 258.000,185.151 257.685,184.987 257.300 C 184.822 256.915,184.442 255.700,184.142 254.600 C 183.515 252.302,183.276 251.657,183.232 252.143 M242.000 255.491 C 242.000 255.933,245.132 259.006,245.345 258.774 C 245.434 258.678,244.717 257.822,243.753 256.872 C 242.789 255.922,242.000 255.300,242.000 255.491 M198.844 258.244 C 198.380 259.724,198.070 261.004,198.156 261.089 C 198.241 261.175,198.691 260.035,199.156 258.556 C 199.620 257.076,199.930 255.796,199.844 255.711 C 199.759 255.625,199.309 256.765,198.844 258.244 M257.594 258.818 C 257.047 259.239,256.780 259.580,257.000 259.578 C 257.529 259.573,258.991 258.458,258.765 258.231 C 258.668 258.134,258.141 258.398,257.594 258.818 M170.806 259.233 C 170.809 259.765,170.989 260.470,171.206 260.800 C 171.482 261.222,171.523 260.985,171.342 260.000 C 171.025 258.275,170.798 257.949,170.806 259.233 M171.600 262.510 C 171.600 263.083,171.787 263.668,172.016 263.810 C 172.289 263.979,172.338 263.677,172.160 262.934 C 171.792 261.401,171.600 261.256,171.600 262.510 M172.400 265.776 C 172.400 266.313,172.547 266.844,172.728 266.955 C 172.908 267.067,172.977 266.627,172.882 265.979 C 172.672 264.549,172.400 264.435,172.400 265.776 M176.286 273.603 C 177.214 274.570,178.035 275.280,178.112 275.180 C 178.188 275.081,177.429 274.290,176.425 273.422 L 174.600 271.844 176.286 273.603 " stroke="none" fill="#f06270" fill-rule="evenodd"></path><path id="path3" d="M96.655 37.478 C 96.250 37.883,95.477 37.955,90.700 38.027 C 88.335 38.063,86.400 38.252,86.400 38.446 C 86.400 38.641,85.410 38.800,84.200 38.800 C 82.990 38.800,82.000 38.980,82.000 39.200 C 82.000 39.420,81.111 39.600,80.024 39.600 C 78.937 39.600,77.936 39.780,77.800 40.000 C 77.664 40.220,76.944 40.400,76.200 40.400 C 75.456 40.400,74.736 40.580,74.600 40.800 C 74.464 41.020,73.744 41.200,73.000 41.200 C 72.256 41.200,71.536 41.380,71.400 41.600 C 71.264 41.820,70.758 42.008,70.276 42.018 C 69.794 42.027,68.680 42.306,67.800 42.638 C 66.920 42.969,66.020 43.285,65.800 43.339 C 65.580 43.394,65.040 43.630,64.600 43.865 C 64.160 44.100,63.554 44.204,63.254 44.097 C 62.953 43.990,62.577 44.113,62.418 44.371 C 62.258 44.629,61.752 44.868,61.292 44.903 C 60.832 44.938,60.544 45.109,60.651 45.283 C 60.759 45.457,60.376 45.600,59.800 45.600 C 59.204 45.600,58.859 45.772,59.000 46.000 C 59.136 46.220,58.987 46.400,58.669 46.400 C 58.351 46.400,57.589 46.661,56.974 46.980 C 56.360 47.298,55.664 47.449,55.429 47.315 C 55.193 47.181,55.132 47.218,55.294 47.396 C 55.598 47.732,53.876 48.800,53.030 48.800 C 52.766 48.800,52.194 49.115,51.758 49.500 C 50.753 50.388,48.809 51.583,47.900 51.871 C 47.515 51.993,47.200 52.252,47.200 52.447 C 47.200 52.641,46.930 52.800,46.600 52.800 C 46.270 52.800,46.000 52.936,46.000 53.102 C 46.000 53.269,45.428 53.658,44.728 53.968 C 44.029 54.277,43.114 54.816,42.695 55.165 C 42.276 55.514,41.453 56.205,40.866 56.700 C 40.280 57.194,39.654 57.599,39.476 57.600 C 39.298 57.600,39.251 57.760,39.372 57.955 C 39.492 58.150,39.229 58.404,38.786 58.519 C 37.622 58.824,37.646 58.806,35.352 61.100 C 34.197 62.255,33.060 63.200,32.826 63.200 C 32.592 63.200,32.400 63.470,32.400 63.800 C 32.400 64.130,32.258 64.355,32.085 64.300 C 31.912 64.245,31.270 64.698,30.659 65.308 C 30.048 65.917,29.376 66.308,29.164 66.178 C 28.953 66.047,28.830 66.179,28.890 66.470 C 28.951 66.764,28.732 66.940,28.400 66.867 C 28.070 66.793,27.929 66.862,28.086 67.019 C 28.518 67.452,27.625 68.863,27.118 68.549 C 26.875 68.399,26.778 68.441,26.903 68.643 C 27.148 69.039,26.448 70.180,25.800 70.440 C 25.580 70.528,24.860 71.220,24.200 71.978 C 23.540 72.736,23.270 73.215,23.600 73.043 C 23.930 72.870,23.570 73.349,22.800 74.107 C 22.030 74.865,21.355 75.690,21.301 75.940 C 21.227 76.278,41.359 76.394,99.856 76.394 C 158.506 76.394,178.652 76.511,179.065 76.854 C 179.506 77.220,179.567 77.180,179.366 76.657 C 179.228 76.295,178.943 76.000,178.734 76.000 C 178.524 76.000,178.482 75.775,178.641 75.500 C 178.799 75.225,178.781 75.134,178.600 75.297 C 178.419 75.461,178.018 75.233,177.709 74.791 C 177.399 74.348,176.992 74.081,176.805 74.197 C 176.618 74.312,176.350 73.884,176.210 73.245 C 176.070 72.606,175.609 71.770,175.187 71.388 C 174.764 71.006,174.515 70.537,174.633 70.347 C 174.751 70.156,174.574 70.000,174.240 70.000 C 173.429 70.000,171.542 67.931,171.781 67.305 C 171.886 67.032,171.753 66.852,171.486 66.905 C 171.219 66.957,171.045 66.775,171.100 66.500 C 171.155 66.225,171.044 66.045,170.854 66.100 C 170.664 66.155,169.488 65.255,168.242 64.100 C 166.995 62.945,165.905 62.000,165.820 62.000 C 165.734 62.000,164.974 61.318,164.132 60.484 C 163.289 59.650,162.510 58.941,162.400 58.909 C 161.346 58.605,160.571 58.091,159.157 56.760 C 158.246 55.902,157.243 55.200,156.927 55.200 C 156.611 55.200,156.445 55.050,156.558 54.868 C 156.671 54.685,156.142 54.291,155.382 53.993 C 154.622 53.695,154.000 53.304,154.000 53.125 C 154.000 52.946,153.730 52.800,153.400 52.800 C 153.070 52.800,152.800 52.620,152.800 52.400 C 152.800 52.180,152.564 52.000,152.275 52.000 C 151.987 52.000,151.402 51.675,150.975 51.278 C 150.549 50.880,149.615 50.297,148.900 49.980 C 148.185 49.664,147.600 49.297,147.600 49.166 C 147.600 49.035,146.886 48.692,146.013 48.404 C 145.141 48.116,144.524 47.723,144.643 47.530 C 144.762 47.338,144.702 47.230,144.509 47.290 C 143.990 47.453,141.200 46.303,141.200 45.925 C 141.200 45.746,140.840 45.600,140.400 45.600 C 139.960 45.600,139.600 45.458,139.600 45.285 C 139.600 45.112,139.211 44.941,138.736 44.905 C 138.261 44.869,137.731 44.611,137.558 44.332 C 137.385 44.052,137.121 43.946,136.971 44.096 C 136.821 44.245,136.181 44.101,135.549 43.774 C 134.917 43.447,134.400 43.279,134.400 43.400 C 134.400 43.521,133.844 43.333,133.164 42.981 C 132.484 42.630,131.674 42.439,131.364 42.559 C 131.054 42.678,130.800 42.601,130.800 42.387 C 130.800 42.174,130.361 42.000,129.824 42.000 C 129.287 42.000,128.736 41.820,128.600 41.600 C 128.464 41.380,127.744 41.200,127.000 41.200 C 126.256 41.200,125.536 41.020,125.400 40.800 C 125.264 40.580,124.544 40.400,123.800 40.400 C 123.056 40.400,122.336 40.220,122.200 40.000 C 122.064 39.780,121.063 39.600,119.976 39.600 C 118.889 39.600,118.000 39.420,118.000 39.200 C 118.000 38.977,116.925 38.800,115.576 38.800 C 114.243 38.800,113.252 38.640,113.372 38.445 C 113.494 38.248,111.525 38.061,108.933 38.026 C 106.371 37.990,103.955 37.790,103.564 37.581 C 102.748 37.144,97.074 37.060,96.655 37.478 M296.655 37.478 C 296.250 37.883,295.477 37.955,290.700 38.027 C 288.335 38.063,286.400 38.252,286.400 38.446 C 286.400 38.641,285.410 38.800,284.200 38.800 C 282.990 38.800,282.000 38.980,282.000 39.200 C 282.000 39.420,281.111 39.600,280.024 39.600 C 278.937 39.600,277.936 39.780,277.800 40.000 C 277.664 40.220,276.944 40.400,276.200 40.400 C 275.456 40.400,274.736 40.580,274.600 40.800 C 274.464 41.020,273.744 41.200,273.000 41.200 C 272.256 41.200,271.536 41.380,271.400 41.600 C 271.264 41.820,270.758 42.008,270.276 42.018 C 269.794 42.027,268.680 42.306,267.800 42.638 C 266.920 42.969,266.020 43.285,265.800 43.339 C 265.580 43.394,265.040 43.630,264.600 43.865 C 264.160 44.100,263.554 44.204,263.254 44.097 C 262.953 43.990,262.577 44.113,262.418 44.371 C 262.258 44.629,261.752 44.868,261.292 44.903 C 260.832 44.938,260.544 45.109,260.651 45.283 C 260.759 45.457,260.376 45.600,259.800 45.600 C 259.204 45.600,258.859 45.772,259.000 46.000 C 259.136 46.220,258.987 46.400,258.669 46.400 C 258.351 46.400,257.589 46.661,256.974 46.980 C 256.360 47.298,255.664 47.449,255.429 47.315 C 255.193 47.181,255.132 47.218,255.294 47.396 C 255.598 47.732,253.876 48.800,253.030 48.800 C 252.766 48.800,252.194 49.115,251.758 49.500 C 250.753 50.388,248.809 51.583,247.900 51.871 C 247.515 51.993,247.200 52.252,247.200 52.447 C 247.200 52.641,246.930 52.800,246.600 52.800 C 246.270 52.800,246.000 52.936,246.000 53.102 C 246.000 53.269,245.428 53.658,244.728 53.968 C 244.029 54.277,243.114 54.816,242.695 55.165 C 242.276 55.514,241.453 56.205,240.866 56.700 C 240.280 57.194,239.654 57.599,239.476 57.600 C 239.298 57.600,239.251 57.760,239.372 57.955 C 239.492 58.150,239.229 58.404,238.786 58.519 C 237.622 58.824,237.646 58.806,235.352 61.100 C 234.197 62.255,233.060 63.200,232.826 63.200 C 232.592 63.200,232.400 63.470,232.400 63.800 C 232.400 64.130,232.258 64.355,232.085 64.300 C 231.912 64.245,231.270 64.698,230.659 65.308 C 230.048 65.917,229.376 66.308,229.164 66.178 C 228.953 66.047,228.830 66.179,228.890 66.470 C 228.951 66.764,228.732 66.940,228.400 66.867 C 228.070 66.793,227.929 66.862,228.086 67.019 C 228.518 67.452,227.625 68.863,227.118 68.549 C 226.875 68.399,226.778 68.441,226.903 68.643 C 227.148 69.039,226.448 70.180,225.800 70.440 C 225.580 70.528,224.860 71.220,224.200 71.978 C 223.540 72.736,223.270 73.215,223.600 73.043 C 223.930 72.870,223.570 73.349,222.800 74.107 C 222.030 74.865,221.355 75.690,221.301 75.940 C 221.227 76.278,241.359 76.394,299.856 76.394 C 358.506 76.394,378.652 76.511,379.065 76.854 C 379.506 77.220,379.567 77.180,379.366 76.657 C 379.228 76.295,378.943 76.000,378.734 76.000 C 378.524 76.000,378.482 75.775,378.641 75.500 C 378.799 75.225,378.781 75.134,378.600 75.297 C 378.419 75.461,378.018 75.233,377.709 74.791 C 377.399 74.348,376.992 74.081,376.805 74.197 C 376.618 74.312,376.350 73.884,376.210 73.245 C 376.070 72.606,375.609 71.770,375.187 71.388 C 374.764 71.006,374.515 70.537,374.633 70.347 C 374.751 70.156,374.574 70.000,374.240 70.000 C 373.429 70.000,371.542 67.931,371.781 67.305 C 371.886 67.032,371.753 66.852,371.486 66.905 C 371.219 66.957,371.045 66.775,371.100 66.500 C 371.155 66.225,371.044 66.045,370.854 66.100 C 370.664 66.155,369.488 65.255,368.242 64.100 C 366.995 62.945,365.905 62.000,365.820 62.000 C 365.734 62.000,364.974 61.318,364.132 60.484 C 363.289 59.650,362.510 58.941,362.400 58.909 C 361.346 58.605,360.571 58.091,359.157 56.760 C 358.246 55.902,357.243 55.200,356.927 55.200 C 356.611 55.200,356.445 55.050,356.558 54.868 C 356.671 54.685,356.142 54.291,355.382 53.993 C 354.622 53.695,354.000 53.304,354.000 53.125 C 354.000 52.946,353.730 52.800,353.400 52.800 C 353.070 52.800,352.800 52.620,352.800 52.400 C 352.800 52.180,352.564 52.000,352.275 52.000 C 351.987 52.000,351.402 51.675,350.975 51.278 C 350.549 50.880,349.615 50.297,348.900 49.980 C 348.185 49.664,347.600 49.297,347.600 49.166 C 347.600 49.035,346.886 48.692,346.013 48.404 C 345.141 48.116,344.524 47.723,344.643 47.530 C 344.762 47.338,344.702 47.230,344.509 47.290 C 343.990 47.453,341.200 46.303,341.200 45.925 C 341.200 45.746,340.840 45.600,340.400 45.600 C 339.960 45.600,339.600 45.458,339.600 45.285 C 339.600 45.112,339.211 44.941,338.736 44.905 C 338.261 44.869,337.731 44.611,337.558 44.332 C 337.385 44.052,337.121 43.946,336.971 44.096 C 336.821 44.245,336.181 44.101,335.549 43.774 C 334.917 43.447,334.400 43.279,334.400 43.400 C 334.400 43.521,333.844 43.333,333.164 42.981 C 332.484 42.630,331.674 42.439,331.364 42.559 C 331.054 42.678,330.800 42.601,330.800 42.387 C 330.800 42.174,330.361 42.000,329.824 42.000 C 329.287 42.000,328.736 41.820,328.600 41.600 C 328.464 41.380,327.744 41.200,327.000 41.200 C 326.256 41.200,325.536 41.020,325.400 40.800 C 325.264 40.580,324.544 40.400,323.800 40.400 C 323.056 40.400,322.336 40.220,322.200 40.000 C 322.064 39.780,321.063 39.600,319.976 39.600 C 318.889 39.600,318.000 39.420,318.000 39.200 C 318.000 38.977,316.925 38.800,315.576 38.800 C 314.243 38.800,313.252 38.640,313.372 38.445 C 313.494 38.248,311.525 38.061,308.933 38.026 C 306.371 37.990,303.955 37.790,303.564 37.581 C 302.748 37.144,297.074 37.060,296.655 37.478 M147.600 155.156 C 143.331 156.082,139.610 160.017,138.668 164.600 C 138.432 165.746,138.441 165.755,138.853 164.800 C 139.091 164.250,139.655 162.948,140.108 161.907 C 143.310 154.537,152.872 153.050,158.413 159.061 C 159.286 160.008,160.000 161.046,160.000 161.367 C 160.000 161.689,160.173 162.060,160.384 162.190 C 161.241 162.720,159.892 160.052,158.622 158.705 C 155.774 155.686,151.499 154.310,147.600 155.156 M138.046 166.467 C 138.021 166.834,137.896 167.464,137.770 167.867 C 137.552 168.562,137.563 168.563,137.997 167.887 C 138.248 167.496,138.373 166.866,138.273 166.487 C 138.111 165.868,138.088 165.866,138.046 166.467 M137.246 169.267 C 137.221 169.634,137.096 170.264,136.970 170.667 C 136.752 171.362,136.763 171.363,137.197 170.687 C 137.448 170.296,137.573 169.666,137.473 169.287 C 137.311 168.668,137.288 168.666,137.246 169.267 M136.446 172.067 C 136.421 172.434,136.296 173.064,136.170 173.467 C 135.952 174.162,135.963 174.163,136.397 173.487 C 136.648 173.096,136.773 172.466,136.673 172.087 C 136.511 171.468,136.488 171.466,136.446 172.067 M149.397 174.005 C 149.244 174.252,149.228 174.561,149.360 174.693 C 149.492 174.825,149.600 174.701,149.600 174.418 C 149.600 174.010,149.739 174.017,150.265 174.451 C 150.832 174.919,150.902 174.915,150.740 174.425 C 150.491 173.672,149.747 173.439,149.397 174.005 M135.646 174.867 C 135.621 175.234,135.496 175.864,135.370 176.267 C 135.152 176.962,135.163 176.963,135.597 176.287 C 135.848 175.896,135.973 175.266,135.873 174.887 C 135.711 174.268,135.688 174.266,135.646 174.867 M134.600 178.400 C 134.450 178.873,134.417 179.350,134.527 179.460 C 134.637 179.570,134.850 179.273,135.000 178.800 C 135.150 178.327,135.183 177.850,135.073 177.740 C 134.963 177.630,134.750 177.927,134.600 178.400 M215.515 179.928 C 215.138 180.078,216.246 180.200,217.977 180.200 C 219.708 180.200,220.916 180.068,220.662 179.906 C 220.091 179.543,216.447 179.558,215.515 179.928 M133.829 181.029 C 133.681 181.615,133.638 182.172,133.732 182.266 C 133.827 182.360,134.024 181.958,134.171 181.371 C 134.319 180.785,134.362 180.228,134.268 180.134 C 134.173 180.040,133.976 180.442,133.829 181.029 M210.080 182.970 C 209.050 183.944,208.295 184.799,208.403 184.870 C 208.512 184.942,209.458 184.145,210.506 183.100 C 212.912 180.703,212.585 180.603,210.080 182.970 M224.282 181.802 C 224.754 182.133,225.785 183.156,226.571 184.074 C 227.357 184.993,228.000 185.614,228.000 185.455 C 228.000 184.975,224.323 181.200,223.856 181.200 C 223.617 181.200,223.809 181.471,224.282 181.802 M133.029 183.829 C 132.881 184.415,132.838 184.972,132.932 185.066 C 133.027 185.160,133.224 184.758,133.371 184.171 C 133.519 183.585,133.562 183.028,133.468 182.934 C 133.373 182.840,133.176 183.242,133.029 183.829 M207.451 186.900 C 207.128 187.615,206.758 188.650,206.630 189.200 L 206.396 190.200 206.846 189.200 C 207.093 188.650,207.491 187.750,207.729 187.200 C 207.967 186.650,208.226 186.065,208.305 185.900 C 208.383 185.735,208.355 185.600,208.242 185.600 C 208.130 185.600,207.773 186.185,207.451 186.900 M205.246 193.267 C 205.221 193.634,205.096 194.264,204.970 194.667 C 204.752 195.362,204.763 195.363,205.197 194.687 C 205.448 194.296,205.573 193.666,205.473 193.287 C 205.311 192.668,205.288 192.666,205.246 193.267 M129.873 194.553 C 129.723 194.945,129.611 195.566,129.625 195.933 C 129.642 196.375,129.781 196.274,130.037 195.634 C 130.249 195.103,130.361 194.482,130.285 194.254 C 130.209 194.027,130.024 194.161,129.873 194.553 M128.249 200.215 C 128.112 200.573,128.015 201.166,128.034 201.533 C 128.053 201.900,128.227 201.669,128.421 201.020 C 128.798 199.758,128.665 199.133,128.249 200.215 M224.428 211.292 C 224.382 211.765,225.686 214.848,225.858 214.675 C 225.945 214.588,225.666 213.725,225.237 212.758 C 224.808 211.791,224.444 211.131,224.428 211.292 M70.018 215.900 C 45.498 215.957,25.302 216.138,25.138 216.302 C 24.974 216.466,45.246 216.510,70.187 216.400 C 95.127 216.290,115.669 216.065,115.833 215.900 C 115.998 215.735,115.788 215.644,115.367 215.698 C 114.945 215.752,94.538 215.843,70.018 215.900 M307.300 216.300 C 319.785 216.359,340.215 216.359,352.700 216.300 C 365.185 216.241,354.970 216.193,330.000 216.193 C 305.030 216.193,294.815 216.241,307.300 216.300 M374.860 217.442 C 374.131 218.266,374.600 218.657,375.381 217.876 C 375.721 217.536,376.000 217.154,376.000 217.029 C 376.000 216.609,375.406 216.824,374.860 217.442 M272.700 219.429 C 271.149 220.270,271.325 220.561,272.900 219.759 C 274.408 218.993,274.675 218.794,274.167 218.816 C 273.965 218.825,273.305 219.101,272.700 219.429 M373.464 219.529 C 373.099 219.933,372.800 220.459,372.800 220.698 C 372.800 220.938,372.655 221.193,372.477 221.267 C 371.675 221.597,369.572 225.200,370.181 225.200 C 370.521 225.200,370.800 224.964,370.800 224.675 C 370.800 224.387,371.160 223.764,371.600 223.292 C 372.040 222.820,372.400 222.246,372.400 222.017 C 372.400 221.788,372.535 221.599,372.700 221.597 C 373.051 221.595,374.496 219.162,374.277 218.943 C 374.195 218.862,373.830 219.125,373.464 219.529 M28.400 222.800 C 28.635 223.240,29.003 223.600,29.217 223.600 C 29.433 223.600,29.384 223.243,29.107 222.800 C 28.832 222.360,28.465 222.000,28.290 222.000 C 28.115 222.000,28.165 222.360,28.400 222.800 M266.181 224.500 L 264.600 226.200 266.300 224.619 C 267.235 223.749,268.000 222.984,268.000 222.919 C 268.000 222.616,267.652 222.919,266.181 224.500 M29.888 224.800 C 30.194 225.994,31.205 227.180,31.191 226.329 C 31.186 226.038,30.833 225.350,30.407 224.800 L 29.632 223.800 29.888 224.800 M369.089 226.405 C 368.324 227.298,368.235 227.600,368.736 227.600 C 368.920 227.600,369.277 227.150,369.527 226.600 C 370.079 225.390,369.991 225.351,369.089 226.405 M263.944 227.100 C 262.793 228.489,262.306 229.200,262.504 229.200 C 262.614 229.200,263.186 228.570,263.773 227.800 C 264.863 226.371,264.995 225.832,263.944 227.100 M32.143 228.600 C 32.670 229.127,37.713 229.188,73.471 229.102 L 114.200 229.004 73.618 228.900 C 47.368 228.833,32.896 228.656,32.638 228.398 C 32.419 228.179,32.083 228.000,31.891 228.000 C 31.700 228.000,31.813 228.270,32.143 228.600 M305.700 229.100 C 316.865 229.159,335.135 229.159,346.300 229.100 C 357.465 229.041,348.330 228.993,326.000 228.993 C 303.670 228.993,294.535 229.041,305.700 229.100 M261.753 230.100 C 260.376 232.436,260.286 232.635,260.987 231.800 C 261.800 230.832,262.500 229.600,262.238 229.600 C 262.133 229.600,261.915 229.825,261.753 230.100 M275.366 233.700 C 273.596 235.632,272.653 236.800,272.862 236.800 C 272.964 236.800,273.902 235.810,274.947 234.600 C 277.007 232.213,277.296 231.593,275.366 233.700 M164.856 233.200 C 164.856 233.530,165.011 234.160,165.200 234.600 C 165.417 235.104,165.544 235.178,165.544 234.800 C 165.544 234.470,165.389 233.840,165.200 233.400 C 164.983 232.896,164.856 232.822,164.856 233.200 M257.053 237.700 L 256.333 239.000 257.158 238.000 C 257.889 237.113,258.214 236.400,257.886 236.400 C 257.824 236.400,257.449 236.985,257.053 237.700 M259.587 256.913 C 259.030 257.401,258.130 258.123,257.587 258.517 C 256.638 259.207,256.651 259.207,257.924 258.517 C 258.652 258.123,259.628 257.395,260.094 256.900 C 261.170 255.754,260.902 255.761,259.587 256.913 M246.800 259.031 C 246.800 259.301,248.878 260.056,249.076 259.857 C 249.167 259.767,248.692 259.501,248.020 259.267 C 247.349 259.033,246.800 258.927,246.800 259.031 M250.900 260.287 C 251.505 260.378,252.495 260.378,253.100 260.287 C 253.705 260.195,253.210 260.120,252.000 260.120 C 250.790 260.120,250.295 260.195,250.900 260.287 M183.705 276.687 C 184.314 276.779,185.214 276.777,185.705 276.682 C 186.197 276.587,185.700 276.511,184.600 276.514 C 183.500 276.517,183.097 276.595,183.705 276.687 " stroke="none" fill="#fc76a1" fill-rule="evenodd"></path><path id="path4" d="M33.400 62.427 C 32.740 62.850,32.405 63.197,32.656 63.198 C 32.906 63.199,33.536 62.846,34.056 62.413 C 35.245 61.423,34.959 61.429,33.400 62.427 M233.400 62.427 C 232.740 62.850,232.405 63.197,232.656 63.198 C 232.906 63.199,233.536 62.846,234.056 62.413 C 235.245 61.423,234.959 61.429,233.400 62.427 M26.900 68.816 C 25.637 70.375,25.771 70.733,27.050 69.214 C 27.627 68.528,28.032 67.908,27.950 67.836 C 27.867 67.764,27.395 68.205,26.900 68.816 M172.232 68.487 C 172.654 69.086,173.255 69.581,173.567 69.587 C 173.878 69.594,174.058 69.555,173.967 69.500 C 173.875 69.445,173.274 68.950,172.632 68.400 L 171.464 67.400 172.232 68.487 M226.900 68.816 C 225.637 70.375,225.771 70.733,227.050 69.214 C 227.627 68.528,228.032 67.908,227.950 67.836 C 227.867 67.764,227.395 68.205,226.900 68.816 M372.232 68.487 C 372.654 69.086,373.255 69.581,373.567 69.587 C 373.878 69.594,374.058 69.555,373.967 69.500 C 373.875 69.445,373.274 68.950,372.632 68.400 L 371.464 67.400 372.232 68.487 M23.362 72.738 C 23.526 73.003,23.409 73.200,23.088 73.200 C 22.780 73.200,22.329 73.638,22.085 74.173 C 21.686 75.049,21.725 75.130,22.475 74.986 C 23.465 74.795,23.957 74.400,23.205 74.400 C 22.822 74.400,22.866 74.190,23.364 73.640 C 23.881 73.068,23.931 72.804,23.564 72.578 C 23.253 72.385,23.180 72.443,23.362 72.738 M176.157 73.033 C 176.291 73.381,176.400 73.841,176.400 74.056 C 176.400 74.271,176.568 74.344,176.773 74.217 C 176.978 74.090,177.425 74.386,177.766 74.874 C 178.247 75.560,178.276 75.832,177.894 76.076 C 177.145 76.554,21.108 76.472,21.404 75.994 C 21.538 75.777,21.499 75.600,21.319 75.600 C 20.946 75.600,19.400 77.554,19.400 78.025 C 19.400 78.194,18.995 78.684,18.500 79.113 C 18.005 79.543,17.600 80.098,17.600 80.347 C 17.600 80.596,17.462 80.800,17.293 80.800 C 17.125 80.800,16.373 81.835,15.623 83.100 C 14.873 84.365,14.156 85.490,14.030 85.600 C 13.754 85.840,13.338 86.586,11.581 90.000 C 10.845 91.430,10.075 92.715,9.870 92.855 C 9.665 92.996,9.609 93.290,9.744 93.510 C 9.880 93.730,9.725 94.130,9.400 94.400 C 9.075 94.670,8.900 95.038,9.011 95.218 C 9.122 95.398,9.030 95.658,8.807 95.796 C 8.583 95.934,8.400 96.407,8.400 96.847 C 8.400 97.287,8.220 97.536,8.000 97.400 C 7.773 97.260,7.600 97.596,7.600 98.176 C 7.600 98.739,7.420 99.200,7.200 99.200 C 6.980 99.200,6.800 99.639,6.800 100.176 C 6.800 100.713,6.620 101.264,6.400 101.400 C 6.180 101.536,6.000 102.087,6.000 102.624 C 6.000 103.161,5.820 103.600,5.600 103.600 C 5.380 103.600,5.200 104.050,5.200 104.600 C 5.200 105.150,5.020 105.600,4.800 105.600 C 4.580 105.600,4.400 106.039,4.400 106.576 C 4.400 107.113,4.220 107.664,4.000 107.800 C 3.780 107.936,3.600 108.637,3.600 109.357 C 3.600 110.077,3.475 110.792,3.322 110.945 C 3.169 111.098,3.005 111.443,2.959 111.712 C 2.912 111.980,2.742 112.830,2.581 113.600 C 2.421 114.370,2.263 115.505,2.231 116.123 C 2.199 116.740,1.909 117.413,1.587 117.617 C 1.071 117.943,1.299 118.159,2.057 118.062 C 2.520 118.002,2.736 119.593,2.301 119.861 C 2.051 120.016,1.994 119.933,2.162 119.662 C 2.319 119.408,2.242 119.200,1.990 119.200 C 1.739 119.200,1.594 119.381,1.668 119.603 C 1.802 120.006,197.334 120.212,197.984 119.810 C 198.235 119.655,198.261 117.000,198.012 117.000 C 197.921 117.000,197.797 116.233,197.402 113.200 C 197.245 111.990,196.955 110.829,196.758 110.620 C 196.561 110.411,196.400 109.646,196.400 108.920 C 196.400 108.194,196.220 107.600,196.000 107.600 C 195.780 107.600,195.600 107.150,195.600 106.600 C 195.600 106.050,195.420 105.600,195.200 105.600 C 194.980 105.600,194.800 105.150,194.800 104.600 C 194.800 104.050,194.620 103.600,194.400 103.600 C 194.180 103.600,194.000 103.060,194.000 102.400 C 194.000 101.740,193.820 101.200,193.600 101.200 C 193.380 101.200,193.200 100.876,193.200 100.480 C 193.200 99.586,192.306 97.607,191.900 97.603 C 191.735 97.601,191.600 97.337,191.600 97.016 C 191.600 96.125,186.754 86.395,185.800 85.371 C 185.580 85.134,185.044 84.279,184.609 83.471 C 184.174 82.662,183.679 82.000,183.509 82.000 C 183.339 82.000,183.200 81.801,183.200 81.559 C 183.200 80.995,179.907 76.453,179.476 76.423 C 179.298 76.410,179.288 76.625,179.453 76.900 C 179.647 77.223,179.507 77.200,179.058 76.835 C 178.511 76.391,178.473 76.200,178.881 75.941 C 179.166 75.760,179.220 75.605,179.000 75.595 C 178.780 75.586,178.159 74.863,177.620 73.989 C 176.657 72.428,175.680 71.790,176.157 73.033 M223.362 72.738 C 223.526 73.003,223.409 73.200,223.088 73.200 C 222.780 73.200,222.329 73.638,222.085 74.173 C 221.686 75.049,221.725 75.130,222.475 74.986 C 223.465 74.795,223.957 74.400,223.205 74.400 C 222.822 74.400,222.866 74.190,223.364 73.640 C 223.881 73.068,223.931 72.804,223.564 72.578 C 223.253 72.385,223.180 72.443,223.362 72.738 M376.157 73.033 C 376.291 73.381,376.400 73.841,376.400 74.056 C 376.400 74.271,376.568 74.344,376.773 74.217 C 376.978 74.090,377.425 74.386,377.766 74.874 C 378.247 75.560,378.276 75.832,377.894 76.076 C 377.145 76.554,221.108 76.472,221.404 75.994 C 221.538 75.777,221.499 75.600,221.319 75.600 C 220.946 75.600,219.400 77.554,219.400 78.025 C 219.400 78.194,218.995 78.684,218.500 79.113 C 218.005 79.543,217.600 80.098,217.600 80.347 C 217.600 80.596,217.462 80.800,217.293 80.800 C 217.125 80.800,216.373 81.835,215.623 83.100 C 214.873 84.365,214.156 85.490,214.030 85.600 C 213.754 85.840,213.338 86.586,211.581 90.000 C 210.845 91.430,210.075 92.715,209.870 92.855 C 209.665 92.996,209.609 93.290,209.744 93.510 C 209.880 93.730,209.725 94.130,209.400 94.400 C 209.075 94.670,208.900 95.038,209.011 95.218 C 209.122 95.398,209.030 95.658,208.807 95.796 C 208.583 95.934,208.400 96.407,208.400 96.847 C 208.400 97.287,208.220 97.536,208.000 97.400 C 207.773 97.260,207.600 97.596,207.600 98.176 C 207.600 98.739,207.420 99.200,207.200 99.200 C 206.980 99.200,206.800 99.639,206.800 100.176 C 206.800 100.713,206.620 101.264,206.400 101.400 C 206.180 101.536,206.000 102.087,206.000 102.624 C 206.000 103.161,205.820 103.600,205.600 103.600 C 205.380 103.600,205.200 104.050,205.200 104.600 C 205.200 105.150,205.020 105.600,204.800 105.600 C 204.580 105.600,204.400 106.039,204.400 106.576 C 204.400 107.113,204.220 107.664,204.000 107.800 C 203.780 107.936,203.600 108.637,203.600 109.357 C 203.600 110.077,203.475 110.792,203.322 110.945 C 203.169 111.098,203.005 111.443,202.959 111.712 C 202.912 111.980,202.742 112.830,202.581 113.600 C 202.421 114.370,202.263 115.505,202.231 116.123 C 202.199 116.740,201.909 117.413,201.587 117.617 C 201.071 117.943,201.299 118.159,202.057 118.062 C 202.520 118.002,202.736 119.593,202.301 119.861 C 202.051 120.016,201.994 119.933,202.162 119.662 C 202.319 119.408,202.242 119.200,201.990 119.200 C 201.739 119.200,201.594 119.381,201.668 119.603 C 201.802 120.006,397.334 120.212,397.984 119.810 C 398.235 119.655,398.261 117.000,398.012 117.000 C 397.921 117.000,397.797 116.233,397.402 113.200 C 397.245 111.990,396.955 110.829,396.758 110.620 C 396.561 110.411,396.400 109.646,396.400 108.920 C 396.400 108.194,396.220 107.600,396.000 107.600 C 395.780 107.600,395.600 107.150,395.600 106.600 C 395.600 106.050,395.420 105.600,395.200 105.600 C 394.980 105.600,394.800 105.150,394.800 104.600 C 394.800 104.050,394.620 103.600,394.400 103.600 C 394.180 103.600,394.000 103.060,394.000 102.400 C 394.000 101.740,393.820 101.200,393.600 101.200 C 393.380 101.200,393.200 100.876,393.200 100.480 C 393.200 99.586,392.306 97.607,391.900 97.603 C 391.735 97.601,391.600 97.337,391.600 97.016 C 391.600 96.125,386.754 86.395,385.800 85.371 C 385.580 85.134,385.044 84.279,384.609 83.471 C 384.174 82.662,383.679 82.000,383.509 82.000 C 383.339 82.000,383.200 81.801,383.200 81.559 C 383.200 80.995,379.907 76.453,379.476 76.423 C 379.298 76.410,379.288 76.625,379.453 76.900 C 379.647 77.223,379.507 77.200,379.058 76.835 C 378.511 76.391,378.473 76.200,378.881 75.941 C 379.166 75.760,379.220 75.605,379.000 75.595 C 378.780 75.586,378.159 74.863,377.620 73.989 C 376.657 72.428,375.680 71.790,376.157 73.033 M308.700 215.900 C 320.855 215.959,340.745 215.959,352.900 215.900 C 365.055 215.841,355.110 215.793,330.800 215.793 C 306.490 215.793,296.545 215.841,308.700 215.900 M27.493 222.000 C 27.870 222.440,28.211 222.800,28.251 222.800 C 28.292 222.800,28.231 222.440,28.116 222.000 C 28.001 221.560,27.659 221.200,27.357 221.200 C 26.937 221.200,26.968 221.387,27.493 222.000 " stroke="none" fill="#f86f8f" fill-rule="evenodd"></path></g></svg>